<svg xmlns="http://www.w3.org/2000/svg" xmlns:xlink="http://www.w3.org/1999/xlink" width="500" zoomAndPan="magnify" viewBox="0 0 375 374.999991" height="500" preserveAspectRatio="xMidYMid meet" version="1.0"><defs><g/><clipPath id="c84535b351"><path d="M 191 135 L 235.835938 135 L 235.835938 227 L 191 227 Z M 191 135 " clip-rule="nonzero"/></clipPath><clipPath id="187d8a109e"><path d="M 122.585938 113.335938 L 190 113.335938 L 190 249 L 122.585938 249 Z M 122.585938 113.335938 " clip-rule="nonzero"/></clipPath></defs><g clip-path="url(#c84535b351)"><path fill="#000000" d="M 234.328125 193.253906 C 235.332031 189.65625 235.902344 185.882812 235.972656 181.988281 L 233.871094 181.988281 C 233.839844 185.882812 233.589844 189.746094 233.160156 193.597656 C 233.554688 193.484375 233.941406 193.363281 234.328125 193.253906 M 230.980469 166.3125 C 230.546875 163.476562 229.980469 160.605469 229.265625 157.695312 C 226.6875 156.265625 223.964844 155.078125 221.097656 154.101562 C 221.886719 157.648438 222.511719 161.144531 222.992188 164.582031 C 225.730469 165.035156 228.402344 165.605469 230.980469 166.3125 Z M 232.097656 180.292969 C 232.058594 176.394531 231.800781 172.441406 231.28125 168.421875 C 228.710938 167.824219 226.039062 167.320312 223.285156 166.894531 C 223.828125 171.449219 224.101562 175.910156 224.136719 180.292969 Z M 231.359375 194.097656 C 231.8125 190.105469 232.074219 186.074219 232.097656 181.984375 L 224.136719 181.984375 C 224.109375 186.730469 223.800781 191.382812 223.253906 195.949219 C 225.972656 195.441406 228.671875 194.820312 231.359375 194.097656 Z M 229.085938 205.0625 C 229.382812 204.59375 229.667969 204.121094 229.945312 203.644531 C 230.410156 201.117188 230.808594 198.574219 231.132812 196.015625 C 228.457031 196.761719 225.75 197.378906 223.011719 197.878906 C 222.523438 201.480469 221.882812 205.035156 221.113281 208.546875 C 223.8125 207.589844 226.472656 206.4375 229.085938 205.0625 Z M 218.335938 151.320312 C 217.867188 149.09375 217.347656 146.84375 216.761719 144.570312 C 213.222656 143.570312 209.597656 142.683594 205.90625 141.957031 C 206.4375 144.21875 206.910156 146.601562 207.335938 149.070312 C 211.160156 149.546875 214.839844 150.285156 218.335938 151.320312 Z M 220.46875 164.207031 C 220.042969 160.652344 219.472656 157.039062 218.75 153.351562 C 215.226562 152.308594 211.519531 151.5625 207.660156 151.046875 C 208.261719 154.921875 208.738281 158.996094 209.082031 163.195312 C 212.96875 163.390625 216.777344 163.707031 220.46875 164.207031 Z M 221.480469 180.292969 C 221.453125 175.808594 221.214844 171.222656 220.726562 166.523438 C 217.027344 166.023438 213.183594 165.652344 209.25 165.378906 C 209.59375 170.253906 209.769531 175.265625 209.777344 180.292969 Z M 220.652344 196.414062 C 221.15625 191.710938 221.449219 186.910156 221.480469 181.988281 L 209.769531 181.988281 C 209.738281 187.289062 209.511719 192.589844 209.105469 197.742188 C 212.980469 197.476562 216.828125 197.042969 220.652344 196.414062 Z M 218.699219 209.332031 C 219.398438 205.714844 219.984375 202.042969 220.429688 198.3125 C 216.65625 198.902344 212.832031 199.285156 208.960938 199.5 C 208.589844 203.71875 208.089844 207.832031 207.460938 211.746094 C 211.277344 211.238281 215.027344 210.460938 218.699219 209.332031 Z M 216.925781 217.476562 C 217.433594 215.382812 217.90625 213.277344 218.339844 211.148438 C 214.699219 212.25 210.96875 213.03125 207.167969 213.53125 C 206.730469 216.078125 206.234375 218.535156 205.6875 220.878906 C 209.464844 220.054688 213.210938 218.890625 216.925781 217.476562 Z M 203.335938 139.484375 C 203.222656 138.886719 203.109375 138.289062 202.992188 137.699219 C 199.285156 136.652344 195.378906 136.054688 191.347656 135.980469 L 191.347656 138.289062 C 195.378906 138.382812 199.378906 138.800781 203.335938 139.484375 Z M 204.867188 148.792969 C 204.523438 146.347656 204.136719 143.925781 203.710938 141.542969 C 199.664062 140.824219 195.535156 140.300781 191.34375 140.03125 L 191.34375 148.398438 C 195.988281 148.269531 200.515625 148.378906 204.867188 148.792969 Z M 206.417969 163.082031 C 206.101562 158.917969 205.667969 154.800781 205.136719 150.746094 C 200.707031 150.277344 196.09375 150.09375 191.347656 150.121094 L 191.347656 162.933594 C 196.417969 162.902344 201.472656 162.90625 206.417969 163.082031 Z M 207.109375 180.292969 C 207.089844 175.238281 206.90625 170.195312 206.566406 165.207031 C 201.609375 164.910156 196.515625 164.753906 191.34375 164.664062 L 191.34375 180.296875 L 207.109375 180.296875 Z M 206.539062 197.886719 C 206.910156 192.625 207.097656 187.304688 207.109375 181.984375 L 191.34375 181.984375 L 191.34375 197.828125 C 196.445312 198.09375 201.507812 198.128906 206.539062 197.886719 Z M 205.082031 212.03125 C 205.644531 207.953125 206.082031 203.808594 206.40625 199.621094 C 201.453125 199.808594 196.429688 199.746094 191.339844 199.519531 L 191.339844 212.492188 C 195.988281 212.617188 200.578125 212.496094 205.082031 212.03125 Z M 203.589844 221.300781 C 204.050781 218.835938 204.464844 216.335938 204.835938 213.804688 C 200.429688 214.253906 195.921875 214.355469 191.347656 214.195312 L 191.347656 222.191406 C 195.460938 222.382812 199.546875 222.042969 203.589844 221.300781 Z M 191.34375 226.296875 C 195.359375 226.222656 199.246094 225.636719 202.9375 224.59375 C 203.039062 224.085938 203.144531 223.582031 203.246094 223.070312 C 199.332031 223.757812 195.363281 224.058594 191.34375 223.882812 Z M 235.976562 180.292969 C 235.910156 176.457031 235.355469 172.742188 234.382812 169.207031 C 233.96875 169.09375 233.546875 168.980469 233.125 168.871094 C 233.605469 172.707031 233.847656 176.511719 233.875 180.292969 Z M 235.976562 180.292969 " fill-opacity="1" fill-rule="evenodd"/></g><g clip-path="url(#187d8a109e)"><path fill="#fcb040" d="M 189.644531 135.980469 L 189.40625 113.347656 L 188.234375 136.027344 C 187.546875 136.058594 186.867188 136.109375 186.1875 136.171875 L 184.929688 128.394531 L 184.730469 136.328125 L 184.730469 136.332031 C 184.46875 136.367188 184.210938 136.398438 183.945312 136.4375 L 177.746094 114.839844 L 180.527344 137.066406 C 179.65625 137.257812 178.800781 137.480469 177.953125 137.71875 L 177.945312 137.71875 L 175.25 129.9375 L 177.09375 137.972656 L 177.09375 137.980469 C 176.628906 138.117188 176.167969 138.269531 175.710938 138.425781 L 175.707031 138.425781 L 165.96875 117.664062 L 172.242188 139.757812 C 171.683594 140 171.125 140.257812 170.578125 140.527344 L 170.570312 140.527344 L 166.28125 132.839844 L 169.554688 141.03125 C 169.066406 141.285156 168.578125 141.546875 168.097656 141.816406 L 154.707031 122.304688 L 165.511719 143.390625 C 164.855469 143.820312 164.207031 144.269531 163.578125 144.734375 L 163.570312 144.734375 L 158.175781 138.238281 L 162.824219 145.285156 C 162.390625 145.617188 161.960938 145.957031 161.539062 146.304688 L 161.535156 146.304688 L 145.226562 129.925781 L 159.082031 148.464844 L 159.082031 148.472656 C 158.621094 148.914062 158.167969 149.359375 157.722656 149.816406 L 157.71875 149.816406 L 150.75 143.929688 L 156.589844 151.027344 C 156.304688 151.34375 156.019531 151.671875 155.738281 151.992188 L 136.832031 138.71875 L 153.660156 154.632812 L 153.660156 154.636719 C 153.347656 155.0625 153.046875 155.492188 152.75 155.921875 L 144.820312 151.917969 L 151.863281 157.28125 L 151.863281 157.289062 C 151.589844 157.730469 151.320312 158.175781 151.058594 158.625 L 129.6875 148.644531 L 149.578125 161.375 L 149.578125 161.378906 C 149.207031 162.136719 148.851562 162.902344 148.527344 163.679688 L 140.902344 160.421875 L 148.070312 164.808594 C 147.917969 165.191406 147.777344 165.574219 147.636719 165.960938 L 126.300781 160.1875 L 146.617188 169.195312 L 146.617188 169.199219 C 146.414062 169.9375 146.230469 170.683594 146.0625 171.4375 L 146.058594 171.4375 L 138.324219 169.308594 L 145.835938 172.492188 L 145.84375 172.492188 C 145.730469 173.070312 145.628906 173.65625 145.535156 174.242188 L 123.839844 172.496094 L 145.203125 176.925781 L 145.207031 176.925781 C 145.140625 177.671875 145.089844 178.429688 145.054688 179.1875 L 145.046875 179.1875 L 136.953125 179.113281 L 145.019531 179.957031 C 145.007812 180.351562 145.003906 180.746094 145.003906 181.140625 C 145.003906 181.351562 145.007812 181.566406 145.007812 181.773438 L 145.003906 181.773438 L 122.585938 184.472656 L 145.15625 184.785156 C 145.214844 185.503906 145.289062 186.21875 145.378906 186.929688 L 137.359375 188.425781 L 145.59375 188.355469 C 145.621094 188.511719 145.644531 188.671875 145.671875 188.828125 L 125.085938 196.097656 L 146.617188 193.097656 C 146.675781 193.316406 146.742188 193.535156 146.804688 193.757812 L 138.804688 198.679688 L 147.457031 195.800781 L 147.585938 196.164062 L 127.425781 207.960938 L 149.328125 200.378906 C 149.40625 200.550781 149.492188 200.722656 149.578125 200.894531 L 144.375 206.101562 L 150.773438 203.160156 C 150.859375 203.316406 150.949219 203.472656 151.035156 203.621094 L 134.125 218.449219 L 153.507812 207.4375 C 153.808594 207.851562 154.117188 208.265625 154.429688 208.667969 L 148.890625 214.660156 L 155.601562 210.121094 C 155.867188 210.4375 156.144531 210.753906 156.421875 211.066406 L 140.984375 227.8125 L 158.664062 213.410156 C 159.023438 213.765625 159.394531 214.109375 159.773438 214.449219 L 154.78125 221.355469 L 160.96875 215.496094 C 161.382812 215.847656 161.804688 216.191406 162.234375 216.527344 L 150.105469 236.441406 L 164.355469 218.105469 C 164.867188 218.457031 165.382812 218.808594 165.910156 219.140625 L 162.453125 227.402344 L 167.449219 220.082031 C 167.921875 220.355469 168.398438 220.625 168.882812 220.882812 L 160.511719 241.925781 L 170.863281 221.886719 C 171.515625 222.199219 172.183594 222.496094 172.855469 222.78125 L 171.242188 230.875 L 174.769531 223.535156 C 175.296875 223.726562 175.828125 223.914062 176.367188 224.085938 L 171.40625 246.046875 L 178.585938 224.742188 C 179.300781 224.9375 180.023438 225.109375 180.746094 225.265625 L 180.359375 232.730469 L 182.53125 225.613281 C 183.300781 225.75 184.082031 225.867188 184.867188 225.964844 L 184.398438 248.707031 L 186.902344 226.164062 C 187.460938 226.207031 188.027344 226.242188 188.597656 226.265625 L 189.320312 231.199219 L 189.644531 226.296875 Z M 189.644531 135.980469 " fill-opacity="1" fill-rule="evenodd"/></g><path stroke-linecap="butt" transform="matrix(0.621346, 0, 0, 0.621346, 63.9, 161.403445)" fill="none" stroke-linejoin="miter" d="M 57.615563 20.826235 C 57.615563 21.153146 57.502401 21.43605 57.276078 21.68752 C 57.056042 21.92013 56.766852 22.039578 56.40222 22.039578 L 40.603613 22.039578 C 40.289276 22.039578 40.006372 22.15274 39.761189 22.379063 C 39.516005 22.599099 39.39027 22.869429 39.39027 23.190054 C 39.39027 24.441117 39.383983 25.836776 39.365123 27.37703 C 39.339976 28.904711 39.314829 30.5707 39.270822 32.387571 C 39.270822 32.708195 39.39027 32.997386 39.629167 33.242569 C 39.87435 33.481466 40.157254 33.600914 40.484165 33.600914 L 53.252557 33.600914 C 53.579468 33.600914 53.862372 33.720362 54.101269 33.965546 C 54.346452 34.204442 54.4659 34.487346 54.4659 34.80797 L 54.4659 38.812631 C 54.4659 39.133256 54.346452 39.409873 54.101269 39.655056 C 53.862372 39.893952 53.579468 40.013401 53.252557 40.013401 L 40.484165 40.013401 C 40.157254 40.013401 39.87435 40.132849 39.629167 40.384319 C 39.39027 40.629502 39.270822 40.906119 39.270822 41.226744 C 39.314829 43.049902 39.339976 44.728464 39.365123 46.262432 C 39.383983 47.790112 39.39027 49.179485 39.39027 50.430548 C 39.39027 50.757459 39.516005 51.034076 39.761189 51.260399 C 40.006372 51.474149 40.289276 51.58731 40.603613 51.58731 L 56.40222 51.58731 C 56.766852 51.58731 57.056042 51.706759 57.276078 51.951942 C 57.502401 52.190839 57.615563 52.473742 57.615563 52.794367 L 57.615563 56.786454 C 57.615563 57.113365 57.502401 57.396269 57.276078 57.647739 C 57.056042 57.880349 56.766852 57.999797 56.40222 57.999797 L 31.349515 57.999797 C 30.984883 57.999797 30.689406 57.880349 30.463083 57.647739 C 30.249333 57.396269 30.142459 57.113365 30.142459 56.786454 C 30.180179 55.459949 30.23676 53.108704 30.318488 49.739005 C 30.393929 46.369307 30.437936 42.056595 30.437936 36.807157 C 30.437936 31.526286 30.393929 27.207288 30.318488 23.856449 C 30.23676 20.505611 30.180179 18.166939 30.142459 16.834148 C 30.142459 16.513523 30.249333 16.23062 30.463083 15.991723 C 30.689406 15.74654 30.984883 15.627091 31.349515 15.627091 L 56.40222 15.627091 C 56.766852 15.627091 57.056042 15.74654 57.276078 15.991723 C 57.502401 16.23062 57.615563 16.513523 57.615563 16.834148 Z M 93.575782 36.807157 C 93.575782 42.056595 93.607216 46.369307 93.663796 49.739005 C 93.720377 53.108704 93.795818 55.459949 93.883833 56.786454 C 93.883833 57.113365 93.764385 57.396269 93.519201 57.647739 C 93.267731 57.880349 92.991114 57.999797 92.676777 57.999797 L 79.964965 57.999797 C 79.235702 57.999797 78.827063 57.654026 78.751622 56.962483 C 78.581879 55.711419 78.229821 53.391608 77.689161 50.003049 C 77.142213 46.61449 76.406663 42.213764 75.469937 36.807157 C 75.19332 35.23547 74.92299 33.758083 74.658946 32.368711 C 74.40119 30.973052 74.14972 29.665408 73.904536 28.452065 C 73.860529 28.13144 73.690787 27.993132 73.382736 28.043426 C 73.080972 28.081146 72.93009 28.238315 72.93009 28.514932 C 72.93009 29.728275 72.917516 31.023346 72.898656 32.400145 C 72.879796 33.770656 72.867222 35.23547 72.867222 36.807157 C 72.867222 42.056595 72.904943 46.369307 72.986671 49.739005 C 73.074685 53.108704 73.137553 55.459949 73.18156 56.786454 C 73.18156 57.113365 73.068398 57.396269 72.835789 57.647739 C 72.622039 57.880349 72.332848 57.999797 71.968217 57.999797 L 64.945915 57.999797 C 64.581284 57.999797 64.285806 57.880349 64.059483 57.647739 C 63.839447 57.396269 63.732572 57.113365 63.732572 56.786454 C 63.77658 55.459949 63.83316 53.108704 63.908601 49.739005 C 63.990329 46.369307 64.02805 42.056595 64.02805 36.807157 C 64.02805 31.526286 63.990329 27.207288 63.908601 23.856449 C 63.83316 20.505611 63.77658 18.166939 63.732572 16.834148 C 63.732572 16.513523 63.839447 16.23062 64.059483 15.991723 C 64.285806 15.74654 64.581284 15.627091 64.945915 15.627091 L 77.657727 15.627091 C 78.34927 15.627091 78.751622 15.966576 78.87107 16.645545 C 79.028239 17.858888 79.367723 20.172413 79.889524 23.592406 C 80.423898 26.999825 81.172021 31.406838 82.133894 36.807157 C 82.423085 38.341125 82.693415 39.818511 82.951172 41.239317 C 83.215215 42.64755 83.447825 43.961481 83.642714 45.168537 C 83.730729 45.489161 83.925618 45.621183 84.221096 45.583463 C 84.52286 45.545742 84.680029 45.388573 84.680029 45.111956 C 84.680029 43.898613 84.686315 42.597256 84.705176 41.207884 C 84.724036 39.812225 84.736609 38.341125 84.736609 36.807157 C 84.736609 31.526286 84.698889 27.207288 84.617161 23.856449 C 84.54172 20.505611 84.478852 18.166939 84.441132 16.834148 C 84.403411 16.513523 84.497713 16.23062 84.736609 15.991723 C 84.981793 15.74654 85.264696 15.627091 85.579034 15.627091 L 92.676777 15.627091 C 92.991114 15.627091 93.267731 15.74654 93.519201 15.991723 C 93.764385 16.23062 93.883833 16.513523 93.883833 16.834148 C 93.795818 18.166939 93.720377 20.505611 93.663796 23.856449 C 93.607216 27.207288 93.575782 31.526286 93.575782 36.807157 Z M 127.411079 20.826235 C 127.411079 21.153146 127.297917 21.43605 127.065308 21.68752 C 126.851558 21.92013 126.562367 22.039578 126.197736 22.039578 L 110.399129 22.039578 C 110.078505 22.039578 109.801888 22.15274 109.556704 22.379063 C 109.305234 22.599099 109.185786 22.869429 109.185786 23.190054 C 109.185786 24.441117 109.173213 25.836776 109.154352 27.37703 C 109.135492 28.904711 109.104058 30.5707 109.066338 32.387571 C 109.066338 32.708195 109.185786 32.997386 109.418396 33.242569 C 109.669866 33.481466 109.95277 33.600914 110.279681 33.600914 L 123.048073 33.600914 C 123.374984 33.600914 123.651602 33.720362 123.890498 33.965546 C 124.135681 34.204442 124.261416 34.487346 124.261416 34.80797 L 124.261416 38.812631 C 124.261416 39.133256 124.135681 39.409873 123.890498 39.655056 C 123.651602 39.893952 123.374984 40.013401 123.048073 40.013401 L 110.279681 40.013401 C 109.95277 40.013401 109.669866 40.132849 109.418396 40.384319 C 109.185786 40.629502 109.066338 40.906119 109.066338 41.226744 C 109.104058 43.049902 109.135492 44.728464 109.154352 46.262432 C 109.173213 47.790112 109.185786 49.179485 109.185786 50.430548 C 109.185786 50.757459 109.305234 51.034076 109.556704 51.260399 C 109.801888 51.474149 110.078505 51.58731 110.399129 51.58731 L 126.197736 51.58731 C 126.562367 51.58731 126.851558 51.706759 127.065308 51.951942 C 127.297917 52.190839 127.411079 52.473742 127.411079 52.794367 L 127.411079 56.786454 C 127.411079 57.113365 127.297917 57.396269 127.065308 57.647739 C 126.851558 57.880349 126.562367 57.999797 126.197736 57.999797 L 101.145031 57.999797 C 100.780399 57.999797 100.484922 57.880349 100.258599 57.647739 C 100.038563 57.396269 99.931688 57.113365 99.931688 56.786454 C 99.969408 55.459949 100.032276 53.108704 100.107717 49.739005 C 100.189445 46.369307 100.227165 42.056595 100.227165 36.807157 C 100.227165 31.526286 100.189445 27.207288 100.107717 23.856449 C 100.032276 20.505611 99.969408 18.166939 99.931688 16.834148 C 99.931688 16.513523 100.038563 16.23062 100.258599 15.991723 C 100.484922 15.74654 100.780399 15.627091 101.145031 15.627091 L 126.197736 15.627091 C 126.562367 15.627091 126.851558 15.74654 127.065308 15.991723 C 127.297917 16.23062 127.411079 16.513523 127.411079 16.834148 Z M 161.611008 57.999797 L 153.92231 57.999797 C 153.595399 57.999797 153.312495 57.880349 153.067312 57.647739 C 152.828416 57.396269 152.708967 57.113365 152.708967 56.786454 L 152.708967 47.463201 C 152.708967 46.532762 152.570659 45.62747 152.281468 44.741038 C 152.004851 43.854606 151.495624 43.119056 150.747501 42.540675 C 149.999377 41.94972 148.955777 41.654243 147.629272 41.654243 L 143.869795 41.654243 C 143.54917 41.654243 143.25998 41.773691 143.014796 42.025161 C 142.7759 42.257771 142.681599 42.540675 142.719319 42.867586 C 142.719319 46.413314 142.750753 49.355514 142.807334 51.700472 C 142.876488 54.051717 142.933069 55.742853 142.970789 56.786454 C 142.970789 57.113365 142.857628 57.396269 142.631305 57.647739 C 142.411268 57.880349 142.122078 57.999797 141.757446 57.999797 L 134.741431 57.999797 C 134.3768 57.999797 134.081322 57.880349 133.848713 57.647739 C 133.634963 57.396269 133.528088 57.113365 133.528088 56.786454 C 133.565809 55.459949 133.622389 53.108704 133.704117 49.739005 C 133.785845 46.369307 133.823566 42.056595 133.823566 36.807157 C 133.823566 31.526286 133.785845 27.207288 133.704117 23.856449 C 133.622389 20.505611 133.565809 18.166939 133.528088 16.834148 C 133.528088 16.513523 133.634963 16.23062 133.848713 15.991723 C 134.081322 15.74654 134.3768 15.627091 134.741431 15.627091 L 147.880742 15.627091 C 149.848495 15.627091 151.721947 15.809407 153.494811 16.174039 C 155.280249 16.53867 156.851937 17.179919 158.222448 18.110358 C 159.59296 19.034511 160.674282 20.323295 161.460125 21.982997 C 162.252256 23.636413 162.642035 25.755048 162.642035 28.338903 C 162.642035 30.721582 162.107661 32.689335 161.032626 34.24845 C 159.970165 35.79499 158.58708 37.01462 156.895944 37.901052 C 156.726202 37.976493 156.644474 38.121089 156.644474 38.328551 C 156.644474 38.523441 156.745062 38.686896 156.952525 38.812631 C 158.492779 39.535608 159.762703 40.591782 160.768583 41.993728 C 161.774463 43.3831 162.271116 45.206258 162.271116 47.463201 C 162.271116 49.638417 162.333984 51.505583 162.453432 53.064697 C 162.579167 54.617525 162.704902 55.824581 162.818064 56.667006 C 162.862071 57.031637 162.755196 57.352262 162.510013 57.616305 C 162.271116 57.874062 161.975639 57.999797 161.611008 57.999797 Z M 147.993904 22.039578 L 143.989243 22.039578 C 143.674905 22.039578 143.392001 22.15274 143.146818 22.379063 C 142.901635 22.599099 142.7759 22.869429 142.7759 23.190054 C 142.7759 24.642293 142.75704 26.264275 142.719319 28.068573 C 142.681599 29.860297 142.662738 31.84691 142.662738 34.028413 C 142.662738 34.393045 142.7759 34.688522 143.014796 34.914845 C 143.25998 35.128595 143.54917 35.23547 143.869795 35.23547 L 147.993904 35.23547 C 149.326695 35.23547 150.364009 34.851978 151.099559 34.084994 C 151.847682 33.31801 152.369483 32.400145 152.652387 31.337684 C 152.93529 30.262649 153.079886 29.263056 153.079886 28.338903 C 153.079886 26.716921 152.784408 25.459571 152.193454 24.554279 C 151.615073 23.6427 150.929817 23.001451 150.137686 22.617959 C 149.351842 22.234467 148.635152 22.039578 147.993904 22.039578 Z M 178.440641 27.301589 C 178.440641 28.552653 178.924721 29.552246 179.886594 30.30037 C 180.861041 31.048493 182.124678 31.696028 183.671219 32.236689 C 185.230333 32.77735 186.871175 33.355731 188.606319 33.965546 C 190.341462 34.569074 191.988591 35.348631 193.547705 36.304217 C 195.100533 37.24723 196.36417 38.517154 197.326043 40.113989 C 198.294203 41.704537 198.778283 43.766591 198.778283 46.306439 C 198.778283 48.902867 198.313063 51.109517 197.388911 52.945249 C 196.464758 54.78098 194.918217 56.182926 192.761862 57.157372 C 190.605506 58.125532 187.707313 58.603325 184.073571 58.603325 C 180.603284 58.603325 177.774246 58.043804 175.586456 56.918476 C 173.41124 55.78686 171.782972 54.303187 170.707937 52.473742 C 169.645476 50.631724 169.035661 48.676544 168.878492 46.620777 C 168.834485 46.293866 168.935073 46.004675 169.17397 45.746918 C 169.419153 45.482875 169.727204 45.350853 170.091835 45.350853 L 177.227298 45.350853 C 177.956562 45.350853 178.340053 45.715484 178.377774 46.444748 C 178.459502 47.161437 178.673251 47.966141 179.019023 48.865147 C 179.358507 49.751579 179.924315 50.531136 180.703872 51.203819 C 181.489716 51.863927 182.571037 52.190839 183.954123 52.190839 C 185.569818 52.190839 186.74544 51.920508 187.487277 51.379848 C 188.2354 50.826613 188.71948 50.09735 188.93323 49.192058 C 189.159553 48.286766 189.272714 47.324893 189.272714 46.306439 C 189.272714 45.017655 188.776061 43.992915 187.782754 43.232218 C 186.795734 42.465234 185.52581 41.811412 183.966696 41.270751 C 182.420155 40.717517 180.779313 40.139136 179.04417 39.541894 C 177.309026 38.925793 175.674471 38.152522 174.140503 37.203223 C 172.612823 36.26021 171.349186 34.996573 170.355879 33.418598 C 169.368859 31.84691 168.878492 29.803716 168.878492 27.301589 C 168.878492 24.717734 169.349999 22.511084 170.293011 20.68164 C 171.242311 18.839621 172.782565 17.431389 174.920061 16.469516 C 177.057556 15.501356 179.968322 15.017277 183.639785 15.017277 C 187.072351 15.017277 189.832235 15.583084 191.93201 16.720986 C 194.031785 17.840028 195.584613 19.323701 196.590493 21.16572 C 197.60266 23.001451 198.193615 24.944057 198.363357 27.006112 C 198.363357 27.333023 198.250196 27.6285 198.023873 27.892544 C 197.79755 28.150301 197.508359 28.276036 197.150014 28.276036 L 189.995691 28.276036 C 189.279001 28.276036 188.876649 27.911404 188.788635 27.182141 C 188.744627 26.452878 188.593745 25.648173 188.329702 24.761741 C 188.071945 23.875309 187.587865 23.095752 186.877462 22.435643 C 186.179633 21.769248 185.142319 21.43605 183.759233 21.43605 C 182.156112 21.43605 180.967916 21.70638 180.200932 22.259614 C 179.427661 22.800275 178.943582 23.529538 178.736119 24.43483 C 178.541229 25.340123 178.440641 26.295709 178.440641 27.301589 Z M 229.281601 28.571513 C 228.080832 31.318823 227.093812 33.644921 226.326828 35.549807 C 225.553558 37.442119 224.96889 38.869212 224.566538 39.837372 C 224.321354 40.447187 224.195619 41.069575 224.195619 41.710824 C 224.157899 42.521815 224.113892 43.483688 224.076171 44.596443 C 224.038451 45.696624 224.01959 46.960261 224.01959 48.381067 C 224.01959 50.399114 224.051024 52.102824 224.107605 53.492196 C 224.164186 54.881568 224.220766 55.962889 224.27106 56.729873 C 224.308781 57.094505 224.208193 57.396269 223.956723 57.647739 C 223.71154 57.880349 223.409775 57.999797 223.057717 57.999797 L 216.154864 57.999797 C 215.790233 57.999797 215.482182 57.880349 215.236998 57.647739 C 215.004389 57.396269 214.903801 57.094505 214.941521 56.729873 C 214.985528 55.962889 215.029536 54.881568 215.092403 53.492196 C 215.148984 52.102824 215.180418 50.399114 215.180418 48.381067 C 215.180418 46.960261 215.161557 45.696624 215.11755 44.596443 C 215.07983 43.483688 215.042109 42.521815 215.004389 41.710824 C 215.004389 41.069575 214.878654 40.447187 214.63347 39.837372 C 214.231118 38.869212 213.640164 37.442119 212.87318 35.549807 C 212.112483 33.644921 211.13175 31.318823 209.918407 28.571513 C 208.705064 25.874496 207.655176 23.586119 206.768744 21.712667 C 205.882312 19.832928 205.197056 18.361828 204.712976 17.311941 C 204.505513 16.953596 204.524374 16.582678 204.756984 16.199186 C 205.008454 15.815694 205.347938 15.627091 205.794298 15.627091 L 212.521122 15.627091 C 213.080643 15.627091 213.464134 15.903708 213.671597 16.469516 C 213.910494 17.311941 214.356853 18.757894 215.016962 20.801088 C 215.689645 22.837995 216.58865 25.428137 217.720265 28.571513 C 218.204345 29.910591 218.669565 31.180515 219.109637 32.387571 C 219.197652 32.632754 219.361107 32.752203 219.600004 32.752203 C 219.845187 32.752203 220.008643 32.632754 220.084084 32.387571 C 220.530443 31.180515 220.995663 29.910591 221.473456 28.571513 C 222.611358 25.428137 223.504077 22.837995 224.164186 20.801088 C 224.836868 18.757894 225.295801 17.311941 225.540984 16.469516 C 225.735874 15.903708 226.119365 15.627091 226.678886 15.627091 L 233.40571 15.627091 C 233.845783 15.627091 234.185268 15.815694 234.424164 16.199186 C 234.669348 16.582678 234.694495 16.953596 234.499605 17.311941 C 234.015525 18.361828 233.323983 19.832928 232.431264 21.712667 C 231.538545 23.586119 230.494944 25.874496 229.281601 28.571513 Z M 249.990161 27.301589 C 249.990161 28.552653 250.467954 29.552246 251.436114 30.30037 C 252.41056 31.048493 253.674198 31.696028 255.220738 32.236689 C 256.773566 32.77735 258.420695 33.355731 260.155838 33.965546 C 261.890982 34.569074 263.538111 35.348631 265.090938 36.304217 C 266.650053 37.24723 267.91369 38.517154 268.875563 40.113989 C 269.843723 41.704537 270.327802 43.766591 270.327802 46.306439 C 270.327802 48.902867 269.862583 51.109517 268.93843 52.945249 C 268.007991 54.78098 266.467737 56.182926 264.311381 57.157372 C 262.148739 58.125532 259.256833 58.603325 255.616804 58.603325 C 252.152804 58.603325 249.323765 58.043804 247.135976 56.918476 C 244.954473 55.78686 243.332491 54.303187 242.257457 52.473742 C 241.194996 50.631724 240.585181 48.676544 240.421725 46.620777 C 240.384005 46.293866 240.484593 46.004675 240.717203 45.746918 C 240.968673 45.482875 241.270437 45.350853 241.635068 45.350853 L 248.776818 45.350853 C 249.506081 45.350853 249.889573 45.715484 249.927294 46.444748 C 250.009021 47.161437 250.216484 47.966141 250.562256 48.865147 C 250.908027 49.751579 251.467548 50.531136 252.247105 51.203819 C 253.039236 51.863927 254.120557 52.190839 255.497355 52.190839 C 257.119337 52.190839 258.29496 51.920508 259.03051 51.379848 C 259.778633 50.826613 260.262713 50.09735 260.482749 49.192058 C 260.709073 48.286766 260.822234 47.324893 260.822234 46.306439 C 260.822234 45.017655 260.325581 43.992915 259.325987 43.232218 C 258.345254 42.465234 257.069043 41.811412 255.516216 41.270751 C 253.969675 40.717517 252.328833 40.139136 250.593689 39.541894 C 248.858546 38.925793 247.22399 38.152522 245.683736 37.203223 C 244.156056 36.26021 242.898705 34.996573 241.905399 33.418598 C 240.918379 31.84691 240.421725 29.803716 240.421725 27.301589 C 240.421725 24.717734 240.899518 22.511084 241.842531 20.68164 C 242.791831 18.839621 244.332085 17.431389 246.46958 16.469516 C 248.607076 15.501356 251.511555 15.017277 255.189305 15.017277 C 258.621871 15.017277 261.381755 15.583084 263.48153 16.720986 C 265.581305 17.840028 267.134133 19.323701 268.140013 21.16572 C 269.15218 23.001451 269.743135 24.944057 269.912877 27.006112 C 269.912877 27.333023 269.799715 27.6285 269.573392 27.892544 C 269.347069 28.150301 269.051592 28.276036 268.699534 28.276036 L 261.545211 28.276036 C 260.828521 28.276036 260.419882 27.911404 260.331867 27.182141 C 260.294147 26.452878 260.143265 25.648173 259.872935 24.761741 C 259.621465 23.875309 259.137385 23.095752 258.426982 22.435643 C 257.729152 21.769248 256.685552 21.43605 255.308753 21.43605 C 253.699345 21.43605 252.517435 21.70638 251.744165 22.259614 C 250.977181 22.800275 250.486814 23.529538 250.285638 24.43483 C 250.084462 25.340123 249.990161 26.295709 249.990161 27.301589 Z M 306.042838 20.826235 C 306.042838 21.153146 305.92339 21.43605 305.678207 21.68752 C 305.43931 21.92013 305.156406 22.039578 304.835782 22.039578 L 296.958482 22.039578 C 296.637858 22.039578 296.367527 22.15274 296.141204 22.379063 C 295.927455 22.599099 295.82058 22.869429 295.82058 23.190054 C 295.770286 24.925197 295.732566 26.924384 295.713705 29.193901 C 295.694845 31.450845 295.682272 33.984406 295.682272 36.807157 C 295.682272 42.056595 295.713705 46.369307 295.770286 49.739005 C 295.83944 53.108704 295.896021 55.459949 295.933742 56.786454 C 295.977749 57.113365 295.870874 57.396269 295.625691 57.647739 C 295.386794 57.880349 295.110177 57.999797 294.783266 57.999797 L 287.704384 57.999797 C 287.377473 57.999797 287.094569 57.880349 286.843099 57.647739 C 286.610489 57.396269 286.491041 57.113365 286.491041 56.786454 C 286.572769 55.459949 286.641923 53.108704 286.698504 49.739005 C 286.755084 46.369307 286.786518 42.056595 286.786518 36.807157 C 286.786518 33.984406 286.773945 31.450845 286.755084 29.193901 C 286.736224 26.924384 286.70479 24.925197 286.66707 23.190054 C 286.66707 22.869429 286.553908 22.599099 286.327585 22.379063 C 286.113836 22.15274 285.818358 22.039578 285.453727 22.039578 L 277.651868 22.039578 C 277.324957 22.039578 277.042053 21.92013 276.79687 21.68752 C 276.557973 21.43605 276.438525 21.153146 276.438525 20.826235 L 276.438525 16.834148 C 276.438525 16.513523 276.557973 16.23062 276.79687 15.991723 C 277.042053 15.74654 277.324957 15.627091 277.651868 15.627091 L 304.835782 15.627091 C 305.156406 15.627091 305.43931 15.74654 305.678207 15.991723 C 305.92339 16.23062 306.042838 16.513523 306.042838 16.834148 Z M 339.570084 20.826235 C 339.570084 21.153146 339.456923 21.43605 339.2306 21.68752 C 339.010563 21.92013 338.721373 22.039578 338.356741 22.039578 L 322.558135 22.039578 C 322.243797 22.039578 321.960893 22.15274 321.71571 22.379063 C 321.470527 22.599099 321.344791 22.869429 321.344791 23.190054 C 321.344791 24.441117 321.338505 25.836776 321.313358 27.37703 C 321.294497 28.904711 321.26935 30.5707 321.225343 32.387571 C 321.225343 32.708195 321.344791 32.997386 321.583688 33.242569 C 321.828871 33.481466 322.111775 33.600914 322.438686 33.600914 L 335.207079 33.600914 C 335.53399 33.600914 335.816894 33.720362 336.049503 33.965546 C 336.300973 34.204442 336.420422 34.487346 336.420422 34.80797 L 336.420422 38.812631 C 336.420422 39.133256 336.300973 39.409873 336.049503 39.655056 C 335.816894 39.893952 335.53399 40.013401 335.207079 40.013401 L 322.438686 40.013401 C 322.111775 40.013401 321.828871 40.132849 321.583688 40.384319 C 321.344791 40.629502 321.225343 40.906119 321.225343 41.226744 C 321.26935 43.049902 321.294497 44.728464 321.313358 46.262432 C 321.338505 47.790112 321.344791 49.179485 321.344791 50.430548 C 321.344791 50.757459 321.470527 51.034076 321.71571 51.260399 C 321.960893 51.474149 322.243797 51.58731 322.558135 51.58731 L 338.356741 51.58731 C 338.721373 51.58731 339.010563 51.706759 339.2306 51.951942 C 339.456923 52.190839 339.570084 52.473742 339.570084 52.794367 L 339.570084 56.786454 C 339.570084 57.113365 339.456923 57.396269 339.2306 57.647739 C 339.010563 57.880349 338.721373 57.999797 338.356741 57.999797 L 313.304036 57.999797 C 312.939405 57.999797 312.643927 57.880349 312.417604 57.647739 C 312.203855 57.396269 312.090693 57.113365 312.090693 56.786454 C 312.1347 55.459949 312.191281 53.108704 312.273009 49.739005 C 312.34845 46.369307 312.38617 42.056595 312.38617 36.807157 C 312.38617 31.526286 312.34845 27.207288 312.273009 23.856449 C 312.191281 20.505611 312.1347 18.166939 312.090693 16.834148 C 312.090693 16.513523 312.203855 16.23062 312.417604 15.991723 C 312.643927 15.74654 312.939405 15.627091 313.304036 15.627091 L 338.356741 15.627091 C 338.721373 15.627091 339.010563 15.74654 339.2306 15.991723 C 339.456923 16.23062 339.570084 16.513523 339.570084 16.834148 Z M 387.770609 15.627091 C 388.084946 15.627091 388.361563 15.74654 388.594173 15.991723 C 388.839356 16.23062 388.965091 16.513523 388.965091 16.834148 C 388.927371 18.166939 388.864503 20.505611 388.789062 23.856449 C 388.707335 27.207288 388.669614 31.526286 388.669614 36.807157 C 388.669614 42.056595 388.707335 46.369307 388.789062 49.739005 C 388.864503 53.108704 388.927371 55.459949 388.965091 56.786454 C 388.965091 57.113365 388.839356 57.396269 388.594173 57.647739 C 388.361563 57.880349 388.084946 57.999797 387.770609 57.999797 L 380.672866 57.999797 C 380.358528 57.999797 380.075625 57.880349 379.830441 57.647739 C 379.585258 57.396269 379.478383 57.113365 379.522391 56.786454 C 379.566398 55.459949 379.635552 53.108704 379.710993 49.739005 C 379.792721 46.369307 379.830441 42.056595 379.830441 36.807157 C 379.830441 34.261023 379.817868 31.953785 379.799008 29.87287 C 379.780147 27.791956 379.748714 25.931077 379.710993 24.283948 C 379.710993 23.963324 379.560111 23.787295 379.25206 23.768435 C 378.950296 23.749574 378.755407 23.89417 378.679966 24.214794 C 378.390775 25.830489 378.063864 27.697654 377.699233 29.81629 C 377.347174 31.934925 376.969969 34.261023 376.561331 36.807157 C 375.718906 42.176043 375.046223 46.564196 374.555857 49.971615 C 374.071777 53.385321 373.770013 55.711419 373.650565 56.962483 C 373.531116 57.654026 373.128764 57.999797 372.443508 57.999797 L 362.214963 57.999797 C 361.4857 57.999797 361.077061 57.654026 361.00162 56.962483 C 360.844452 55.711419 360.530114 53.385321 360.052321 49.971615 C 359.593388 46.564196 358.914419 42.176043 358.027987 36.807157 C 357.625635 34.261023 357.242143 31.934925 356.877511 29.81629 C 356.519167 27.697654 356.204829 25.830489 355.915638 24.214794 C 355.877918 23.89417 355.701889 23.749574 355.400125 23.768435 C 355.092074 23.787295 354.941192 23.963324 354.941192 24.283948 C 354.903471 25.931077 354.872038 27.791956 354.853177 29.87287 C 354.834317 31.953785 354.821744 34.261023 354.821744 36.807157 C 354.821744 42.056595 354.859464 46.369307 354.941192 49.739005 C 355.029206 53.108704 355.092074 55.459949 355.129794 56.786454 C 355.129794 57.113365 355.016633 57.396269 354.79031 57.647739 C 354.57656 57.880349 354.28737 57.999797 353.922738 57.999797 L 346.900437 57.999797 C 346.535805 57.999797 346.240328 57.880349 346.014005 57.647739 C 345.793968 57.396269 345.687094 57.113365 345.687094 56.786454 C 345.724814 55.459949 345.787682 53.108704 345.863123 49.739005 C 345.94485 46.369307 345.982571 42.056595 345.982571 36.807157 C 345.982571 31.526286 345.94485 27.207288 345.863123 23.856449 C 345.787682 20.505611 345.724814 18.166939 345.687094 16.834148 C 345.687094 16.513523 345.793968 16.23062 346.014005 15.991723 C 346.240328 15.74654 346.535805 15.627091 346.900437 15.627091 L 360.643276 15.627091 C 361.328531 15.627091 361.705737 15.966576 361.781178 16.645545 C 361.95092 17.896609 362.265257 20.222707 362.730477 23.623839 C 363.195697 27.012399 363.868379 31.406838 364.754811 36.807157 C 365.157163 39.271564 365.534368 41.528508 365.88014 43.590562 C 366.225911 45.64633 366.533962 47.488348 366.810579 49.104044 C 366.848299 49.386947 367.011755 49.531543 367.294659 49.531543 C 367.583849 49.531543 367.747305 49.386947 367.785025 49.104044 C 368.111936 47.488348 368.438848 45.64633 368.772045 43.590562 C 369.117817 41.528508 369.495022 39.271564 369.897374 36.807157 C 370.746085 31.406838 371.412481 27.012399 371.896561 23.623839 C 372.386927 20.222707 372.688692 17.896609 372.80814 16.645545 C 372.889868 15.966576 373.29222 15.627091 374.021483 15.627091 Z M 387.770609 15.627091 " stroke="#ffbd59" stroke-width="4.540575" stroke-opacity="1" stroke-miterlimit="4"/><g fill="#000000" fill-opacity="1"><g transform="translate(80.744311, 197.441532)"><g><path d="M 18.953125 -23.09375 C 18.953125 -22.894531 18.882812 -22.71875 18.75 -22.5625 C 18.613281 -22.414062 18.429688 -22.34375 18.203125 -22.34375 L 8.390625 -22.34375 C 8.191406 -22.34375 8.015625 -22.269531 7.859375 -22.125 C 7.710938 -21.988281 7.640625 -21.820312 7.640625 -21.625 C 7.640625 -20.84375 7.628906 -19.972656 7.609375 -19.015625 C 7.597656 -18.066406 7.582031 -17.03125 7.5625 -15.90625 C 7.5625 -15.707031 7.632812 -15.53125 7.78125 -15.375 C 7.9375 -15.226562 8.113281 -15.15625 8.3125 -15.15625 L 16.25 -15.15625 C 16.445312 -15.15625 16.617188 -15.078125 16.765625 -14.921875 C 16.921875 -14.773438 17 -14.601562 17 -14.40625 L 17 -11.921875 C 17 -11.722656 16.921875 -11.546875 16.765625 -11.390625 C 16.617188 -11.242188 16.445312 -11.171875 16.25 -11.171875 L 8.3125 -11.171875 C 8.113281 -11.171875 7.9375 -11.09375 7.78125 -10.9375 C 7.632812 -10.789062 7.5625 -10.617188 7.5625 -10.421875 C 7.582031 -9.285156 7.597656 -8.238281 7.609375 -7.28125 C 7.628906 -6.332031 7.640625 -5.472656 7.640625 -4.703125 C 7.640625 -4.503906 7.710938 -4.332031 7.859375 -4.1875 C 8.015625 -4.050781 8.191406 -3.984375 8.390625 -3.984375 L 18.203125 -3.984375 C 18.429688 -3.984375 18.613281 -3.90625 18.75 -3.75 C 18.882812 -3.601562 18.953125 -3.429688 18.953125 -3.234375 L 18.953125 -0.75 C 18.953125 -0.550781 18.882812 -0.375 18.75 -0.21875 C 18.613281 -0.0703125 18.429688 0 18.203125 0 L 2.625 0 C 2.40625 0 2.222656 -0.0703125 2.078125 -0.21875 C 1.941406 -0.375 1.875 -0.550781 1.875 -0.75 C 1.90625 -1.582031 1.941406 -3.046875 1.984375 -5.140625 C 2.035156 -7.234375 2.0625 -9.90625 2.0625 -13.15625 C 2.0625 -16.445312 2.035156 -19.128906 1.984375 -21.203125 C 1.941406 -23.285156 1.90625 -24.742188 1.875 -25.578125 C 1.875 -25.773438 1.941406 -25.945312 2.078125 -26.09375 C 2.222656 -26.25 2.40625 -26.328125 2.625 -26.328125 L 18.203125 -26.328125 C 18.429688 -26.328125 18.613281 -26.25 18.75 -26.09375 C 18.882812 -25.945312 18.953125 -25.773438 18.953125 -25.578125 Z M 18.953125 -23.09375 "/></g></g></g><g fill="#000000" fill-opacity="1"><g transform="translate(101.618309, 197.441532)"><g><path d="M 20.421875 -13.15625 C 20.421875 -9.90625 20.4375 -7.234375 20.46875 -5.140625 C 20.507812 -3.046875 20.554688 -1.582031 20.609375 -0.75 C 20.609375 -0.550781 20.53125 -0.375 20.375 -0.21875 C 20.226562 -0.0703125 20.054688 0 19.859375 0 L 11.953125 0 C 11.503906 0 11.253906 -0.210938 11.203125 -0.640625 C 11.109375 -1.421875 10.890625 -2.863281 10.546875 -4.96875 C 10.210938 -7.070312 9.753906 -9.800781 9.171875 -13.15625 C 8.992188 -14.132812 8.820312 -15.054688 8.65625 -15.921875 C 8.5 -16.785156 8.347656 -17.597656 8.203125 -18.359375 C 8.171875 -18.554688 8.0625 -18.640625 7.875 -18.609375 C 7.6875 -18.585938 7.59375 -18.488281 7.59375 -18.3125 C 7.59375 -17.5625 7.585938 -16.757812 7.578125 -15.90625 C 7.566406 -15.050781 7.5625 -14.132812 7.5625 -13.15625 C 7.5625 -9.90625 7.582031 -7.234375 7.625 -5.140625 C 7.675781 -3.046875 7.71875 -1.582031 7.75 -0.75 C 7.75 -0.550781 7.675781 -0.375 7.53125 -0.21875 C 7.394531 -0.0703125 7.21875 0 7 0 L 2.625 0 C 2.40625 0 2.222656 -0.0703125 2.078125 -0.21875 C 1.941406 -0.375 1.875 -0.550781 1.875 -0.75 C 1.90625 -1.582031 1.941406 -3.046875 1.984375 -5.140625 C 2.035156 -7.234375 2.0625 -9.90625 2.0625 -13.15625 C 2.0625 -16.445312 2.035156 -19.128906 1.984375 -21.203125 C 1.941406 -23.285156 1.90625 -24.742188 1.875 -25.578125 C 1.875 -25.773438 1.941406 -25.945312 2.078125 -26.09375 C 2.222656 -26.25 2.40625 -26.328125 2.625 -26.328125 L 10.53125 -26.328125 C 10.957031 -26.328125 11.207031 -26.113281 11.28125 -25.6875 C 11.382812 -24.9375 11.597656 -23.5 11.921875 -21.375 C 12.242188 -19.257812 12.707031 -16.519531 13.3125 -13.15625 C 13.488281 -12.207031 13.65625 -11.289062 13.8125 -10.40625 C 13.976562 -9.53125 14.125 -8.71875 14.25 -7.96875 C 14.300781 -7.769531 14.421875 -7.679688 14.609375 -7.703125 C 14.796875 -7.734375 14.890625 -7.835938 14.890625 -8.015625 C 14.890625 -8.765625 14.894531 -9.570312 14.90625 -10.4375 C 14.925781 -11.300781 14.9375 -12.207031 14.9375 -13.15625 C 14.9375 -16.445312 14.910156 -19.128906 14.859375 -21.203125 C 14.804688 -23.285156 14.769531 -24.742188 14.75 -25.578125 C 14.71875 -25.773438 14.773438 -25.945312 14.921875 -26.09375 C 15.078125 -26.25 15.253906 -26.328125 15.453125 -26.328125 L 19.859375 -26.328125 C 20.054688 -26.328125 20.226562 -26.25 20.375 -26.09375 C 20.53125 -25.945312 20.609375 -25.773438 20.609375 -25.578125 C 20.554688 -24.742188 20.507812 -23.285156 20.46875 -21.203125 C 20.4375 -19.128906 20.421875 -16.445312 20.421875 -13.15625 Z M 20.421875 -13.15625 "/></g></g></g><g fill="#000000" fill-opacity="1"><g transform="translate(124.109565, 197.441532)"><g><path d="M 18.953125 -23.09375 C 18.953125 -22.894531 18.882812 -22.71875 18.75 -22.5625 C 18.613281 -22.414062 18.429688 -22.34375 18.203125 -22.34375 L 8.390625 -22.34375 C 8.191406 -22.34375 8.015625 -22.269531 7.859375 -22.125 C 7.710938 -21.988281 7.640625 -21.820312 7.640625 -21.625 C 7.640625 -20.84375 7.628906 -19.972656 7.609375 -19.015625 C 7.597656 -18.066406 7.582031 -17.03125 7.5625 -15.90625 C 7.5625 -15.707031 7.632812 -15.53125 7.78125 -15.375 C 7.9375 -15.226562 8.113281 -15.15625 8.3125 -15.15625 L 16.25 -15.15625 C 16.445312 -15.15625 16.617188 -15.078125 16.765625 -14.921875 C 16.921875 -14.773438 17 -14.601562 17 -14.40625 L 17 -11.921875 C 17 -11.722656 16.921875 -11.546875 16.765625 -11.390625 C 16.617188 -11.242188 16.445312 -11.171875 16.25 -11.171875 L 8.3125 -11.171875 C 8.113281 -11.171875 7.9375 -11.09375 7.78125 -10.9375 C 7.632812 -10.789062 7.5625 -10.617188 7.5625 -10.421875 C 7.582031 -9.285156 7.597656 -8.238281 7.609375 -7.28125 C 7.628906 -6.332031 7.640625 -5.472656 7.640625 -4.703125 C 7.640625 -4.503906 7.710938 -4.332031 7.859375 -4.1875 C 8.015625 -4.050781 8.191406 -3.984375 8.390625 -3.984375 L 18.203125 -3.984375 C 18.429688 -3.984375 18.613281 -3.90625 18.75 -3.75 C 18.882812 -3.601562 18.953125 -3.429688 18.953125 -3.234375 L 18.953125 -0.75 C 18.953125 -0.550781 18.882812 -0.375 18.75 -0.21875 C 18.613281 -0.0703125 18.429688 0 18.203125 0 L 2.625 0 C 2.40625 0 2.222656 -0.0703125 2.078125 -0.21875 C 1.941406 -0.375 1.875 -0.550781 1.875 -0.75 C 1.90625 -1.582031 1.941406 -3.046875 1.984375 -5.140625 C 2.035156 -7.234375 2.0625 -9.90625 2.0625 -13.15625 C 2.0625 -16.445312 2.035156 -19.128906 1.984375 -21.203125 C 1.941406 -23.285156 1.90625 -24.742188 1.875 -25.578125 C 1.875 -25.773438 1.941406 -25.945312 2.078125 -26.09375 C 2.222656 -26.25 2.40625 -26.328125 2.625 -26.328125 L 18.203125 -26.328125 C 18.429688 -26.328125 18.613281 -26.25 18.75 -26.09375 C 18.882812 -25.945312 18.953125 -25.773438 18.953125 -25.578125 Z M 18.953125 -23.09375 "/></g></g></g><g fill="#000000" fill-opacity="1"><g transform="translate(144.983564, 197.441532)"><g><path d="M 19.328125 0 L 14.5625 0 C 14.351562 0 14.171875 -0.0703125 14.015625 -0.21875 C 13.867188 -0.375 13.796875 -0.550781 13.796875 -0.75 L 13.796875 -6.546875 C 13.796875 -7.117188 13.707031 -7.679688 13.53125 -8.234375 C 13.363281 -8.785156 13.046875 -9.242188 12.578125 -9.609375 C 12.117188 -9.972656 11.472656 -10.15625 10.640625 -10.15625 L 8.3125 -10.15625 C 8.113281 -10.15625 7.9375 -10.078125 7.78125 -9.921875 C 7.632812 -9.773438 7.570312 -9.601562 7.59375 -9.40625 C 7.59375 -7.195312 7.609375 -5.363281 7.640625 -3.90625 C 7.679688 -2.457031 7.71875 -1.40625 7.75 -0.75 C 7.75 -0.550781 7.675781 -0.375 7.53125 -0.21875 C 7.394531 -0.0703125 7.21875 0 7 0 L 2.625 0 C 2.40625 0 2.222656 -0.0703125 2.078125 -0.21875 C 1.941406 -0.375 1.875 -0.550781 1.875 -0.75 C 1.90625 -1.582031 1.941406 -3.046875 1.984375 -5.140625 C 2.035156 -7.234375 2.0625 -9.90625 2.0625 -13.15625 C 2.0625 -16.445312 2.035156 -19.128906 1.984375 -21.203125 C 1.941406 -23.285156 1.90625 -24.742188 1.875 -25.578125 C 1.875 -25.773438 1.941406 -25.945312 2.078125 -26.09375 C 2.222656 -26.25 2.40625 -26.328125 2.625 -26.328125 L 10.796875 -26.328125 C 12.023438 -26.328125 13.191406 -26.210938 14.296875 -25.984375 C 15.398438 -25.765625 16.375 -25.363281 17.21875 -24.78125 C 18.070312 -24.207031 18.742188 -23.40625 19.234375 -22.375 C 19.722656 -21.34375 19.96875 -20.023438 19.96875 -18.421875 C 19.96875 -16.941406 19.632812 -15.71875 18.96875 -14.75 C 18.3125 -13.789062 17.453125 -13.035156 16.390625 -12.484375 C 16.296875 -12.429688 16.25 -12.34375 16.25 -12.21875 C 16.25 -12.09375 16.3125 -11.992188 16.4375 -11.921875 C 17.382812 -11.472656 18.171875 -10.816406 18.796875 -9.953125 C 19.429688 -9.085938 19.75 -7.953125 19.75 -6.546875 C 19.75 -5.191406 19.785156 -4.03125 19.859375 -3.0625 C 19.929688 -2.101562 20.003906 -1.359375 20.078125 -0.828125 C 20.109375 -0.597656 20.046875 -0.398438 19.890625 -0.234375 C 19.742188 -0.078125 19.554688 0 19.328125 0 Z M 10.875 -22.34375 L 8.390625 -22.34375 C 8.191406 -22.34375 8.015625 -22.269531 7.859375 -22.125 C 7.710938 -21.988281 7.640625 -21.820312 7.640625 -21.625 C 7.640625 -20.71875 7.625 -19.707031 7.59375 -18.59375 C 7.570312 -17.476562 7.5625 -16.242188 7.5625 -14.890625 C 7.5625 -14.671875 7.632812 -14.488281 7.78125 -14.34375 C 7.9375 -14.207031 8.113281 -14.140625 8.3125 -14.140625 L 10.875 -14.140625 C 11.695312 -14.140625 12.335938 -14.375 12.796875 -14.84375 C 13.265625 -15.320312 13.585938 -15.894531 13.765625 -16.5625 C 13.941406 -17.226562 14.03125 -17.847656 14.03125 -18.421875 C 14.03125 -19.429688 13.847656 -20.21875 13.484375 -20.78125 C 13.117188 -21.34375 12.691406 -21.742188 12.203125 -21.984375 C 11.710938 -22.222656 11.269531 -22.34375 10.875 -22.34375 Z M 10.875 -22.34375 "/></g></g></g><g fill="#000000" fill-opacity="1"><g transform="translate(166.948274, 197.441532)"><g><path d="M 7.828125 -19.0625 C 7.828125 -18.289062 8.125 -17.671875 8.71875 -17.203125 C 9.320312 -16.742188 10.109375 -16.34375 11.078125 -16 C 12.046875 -15.664062 13.066406 -15.304688 14.140625 -14.921875 C 15.222656 -14.546875 16.242188 -14.0625 17.203125 -13.46875 C 18.171875 -12.882812 18.953125 -12.097656 19.546875 -11.109375 C 20.148438 -10.117188 20.453125 -8.835938 20.453125 -7.265625 C 20.453125 -5.660156 20.164062 -4.285156 19.59375 -3.140625 C 19.019531 -1.992188 18.0625 -1.117188 16.71875 -0.515625 C 15.375 0.078125 13.578125 0.375 11.328125 0.375 C 9.171875 0.375 7.414062 0.0234375 6.0625 -0.671875 C 4.707031 -1.378906 3.695312 -2.300781 3.03125 -3.4375 C 2.363281 -4.582031 1.976562 -5.796875 1.875 -7.078125 C 1.851562 -7.273438 1.914062 -7.453125 2.0625 -7.609375 C 2.21875 -7.773438 2.40625 -7.859375 2.625 -7.859375 L 7.078125 -7.859375 C 7.523438 -7.859375 7.757812 -7.632812 7.78125 -7.1875 C 7.832031 -6.726562 7.960938 -6.222656 8.171875 -5.671875 C 8.390625 -5.128906 8.742188 -4.648438 9.234375 -4.234375 C 9.722656 -3.816406 10.394531 -3.609375 11.25 -3.609375 C 12.25 -3.609375 12.976562 -3.773438 13.4375 -4.109375 C 13.90625 -4.453125 14.207031 -4.90625 14.34375 -5.46875 C 14.488281 -6.03125 14.5625 -6.628906 14.5625 -7.265625 C 14.5625 -8.066406 14.253906 -8.703125 13.640625 -9.171875 C 13.023438 -9.648438 12.234375 -10.054688 11.265625 -10.390625 C 10.296875 -10.734375 9.269531 -11.09375 8.1875 -11.46875 C 7.113281 -11.84375 6.097656 -12.320312 5.140625 -12.90625 C 4.191406 -13.5 3.410156 -14.285156 2.796875 -15.265625 C 2.179688 -16.242188 1.875 -17.507812 1.875 -19.0625 C 1.875 -20.664062 2.164062 -22.035156 2.75 -23.171875 C 3.34375 -24.316406 4.304688 -25.191406 5.640625 -25.796875 C 6.972656 -26.398438 8.78125 -26.703125 11.0625 -26.703125 C 13.1875 -26.703125 14.898438 -26.347656 16.203125 -25.640625 C 17.515625 -24.941406 18.484375 -24.019531 19.109375 -22.875 C 19.734375 -21.738281 20.097656 -20.53125 20.203125 -19.25 C 20.203125 -19.050781 20.128906 -18.867188 19.984375 -18.703125 C 19.847656 -18.546875 19.664062 -18.46875 19.4375 -18.46875 L 15 -18.46875 C 14.550781 -18.46875 14.300781 -18.691406 14.25 -19.140625 C 14.226562 -19.585938 14.132812 -20.085938 13.96875 -20.640625 C 13.8125 -21.191406 13.507812 -21.675781 13.0625 -22.09375 C 12.625 -22.507812 11.976562 -22.71875 11.125 -22.71875 C 10.125 -22.71875 9.382812 -22.546875 8.90625 -22.203125 C 8.4375 -21.867188 8.140625 -21.421875 8.015625 -20.859375 C 7.890625 -20.296875 7.828125 -19.695312 7.828125 -19.0625 Z M 7.828125 -19.0625 "/></g></g></g><g fill="#000000" fill-opacity="1"><g transform="translate(189.326697, 197.441532)"><g><path d="M 17.03125 -18.28125 C 16.28125 -16.570312 15.664062 -15.128906 15.1875 -13.953125 C 14.71875 -12.773438 14.359375 -11.882812 14.109375 -11.28125 C 13.953125 -10.90625 13.875 -10.515625 13.875 -10.109375 C 13.851562 -9.609375 13.828125 -9.015625 13.796875 -8.328125 C 13.773438 -7.640625 13.765625 -6.859375 13.765625 -5.984375 C 13.765625 -4.722656 13.78125 -3.660156 13.8125 -2.796875 C 13.851562 -1.929688 13.890625 -1.265625 13.921875 -0.796875 C 13.941406 -0.566406 13.875 -0.375 13.71875 -0.21875 C 13.570312 -0.0703125 13.382812 0 13.15625 0 L 8.875 0 C 8.644531 0 8.457031 -0.0703125 8.3125 -0.21875 C 8.164062 -0.375 8.101562 -0.566406 8.125 -0.796875 C 8.144531 -1.265625 8.175781 -1.929688 8.21875 -2.796875 C 8.257812 -3.660156 8.28125 -4.722656 8.28125 -5.984375 C 8.28125 -6.859375 8.265625 -7.640625 8.234375 -8.328125 C 8.210938 -9.015625 8.1875 -9.609375 8.15625 -10.109375 C 8.15625 -10.515625 8.082031 -10.90625 7.9375 -11.28125 C 7.6875 -11.882812 7.320312 -12.773438 6.84375 -13.953125 C 6.363281 -15.128906 5.75 -16.570312 5 -18.28125 C 4.25 -19.957031 3.597656 -21.378906 3.046875 -22.546875 C 2.492188 -23.710938 2.066406 -24.625 1.765625 -25.28125 C 1.640625 -25.5 1.648438 -25.726562 1.796875 -25.96875 C 1.953125 -26.207031 2.164062 -26.328125 2.4375 -26.328125 L 6.625 -26.328125 C 6.96875 -26.328125 7.203125 -26.148438 7.328125 -25.796875 C 7.484375 -25.273438 7.765625 -24.378906 8.171875 -23.109375 C 8.585938 -21.847656 9.148438 -20.238281 9.859375 -18.28125 C 10.160156 -17.445312 10.445312 -16.65625 10.71875 -15.90625 C 10.769531 -15.757812 10.867188 -15.6875 11.015625 -15.6875 C 11.171875 -15.6875 11.273438 -15.757812 11.328125 -15.90625 C 11.597656 -16.65625 11.882812 -17.445312 12.1875 -18.28125 C 12.882812 -20.238281 13.441406 -21.847656 13.859375 -23.109375 C 14.273438 -24.378906 14.554688 -25.273438 14.703125 -25.796875 C 14.828125 -26.148438 15.066406 -26.328125 15.421875 -26.328125 L 19.59375 -26.328125 C 19.875 -26.328125 20.085938 -26.207031 20.234375 -25.96875 C 20.378906 -25.726562 20.390625 -25.5 20.265625 -25.28125 C 19.960938 -24.625 19.535156 -23.710938 18.984375 -22.546875 C 18.441406 -21.378906 17.789062 -19.957031 17.03125 -18.28125 Z M 17.03125 -18.28125 "/></g></g></g><g fill="#000000" fill-opacity="1"><g transform="translate(211.40424, 197.441532)"><g><path d="M 7.828125 -19.0625 C 7.828125 -18.289062 8.125 -17.671875 8.71875 -17.203125 C 9.320312 -16.742188 10.109375 -16.34375 11.078125 -16 C 12.046875 -15.664062 13.066406 -15.304688 14.140625 -14.921875 C 15.222656 -14.546875 16.242188 -14.0625 17.203125 -13.46875 C 18.171875 -12.882812 18.953125 -12.097656 19.546875 -11.109375 C 20.148438 -10.117188 20.453125 -8.835938 20.453125 -7.265625 C 20.453125 -5.660156 20.164062 -4.285156 19.59375 -3.140625 C 19.019531 -1.992188 18.0625 -1.117188 16.71875 -0.515625 C 15.375 0.078125 13.578125 0.375 11.328125 0.375 C 9.171875 0.375 7.414062 0.0234375 6.0625 -0.671875 C 4.707031 -1.378906 3.695312 -2.300781 3.03125 -3.4375 C 2.363281 -4.582031 1.976562 -5.796875 1.875 -7.078125 C 1.851562 -7.273438 1.914062 -7.453125 2.0625 -7.609375 C 2.21875 -7.773438 2.40625 -7.859375 2.625 -7.859375 L 7.078125 -7.859375 C 7.523438 -7.859375 7.757812 -7.632812 7.78125 -7.1875 C 7.832031 -6.726562 7.960938 -6.222656 8.171875 -5.671875 C 8.390625 -5.128906 8.742188 -4.648438 9.234375 -4.234375 C 9.722656 -3.816406 10.394531 -3.609375 11.25 -3.609375 C 12.25 -3.609375 12.976562 -3.773438 13.4375 -4.109375 C 13.90625 -4.453125 14.207031 -4.90625 14.34375 -5.46875 C 14.488281 -6.03125 14.5625 -6.628906 14.5625 -7.265625 C 14.5625 -8.066406 14.253906 -8.703125 13.640625 -9.171875 C 13.023438 -9.648438 12.234375 -10.054688 11.265625 -10.390625 C 10.296875 -10.734375 9.269531 -11.09375 8.1875 -11.46875 C 7.113281 -11.84375 6.097656 -12.320312 5.140625 -12.90625 C 4.191406 -13.5 3.410156 -14.285156 2.796875 -15.265625 C 2.179688 -16.242188 1.875 -17.507812 1.875 -19.0625 C 1.875 -20.664062 2.164062 -22.035156 2.75 -23.171875 C 3.34375 -24.316406 4.304688 -25.191406 5.640625 -25.796875 C 6.972656 -26.398438 8.78125 -26.703125 11.0625 -26.703125 C 13.1875 -26.703125 14.898438 -26.347656 16.203125 -25.640625 C 17.515625 -24.941406 18.484375 -24.019531 19.109375 -22.875 C 19.734375 -21.738281 20.097656 -20.53125 20.203125 -19.25 C 20.203125 -19.050781 20.128906 -18.867188 19.984375 -18.703125 C 19.847656 -18.546875 19.664062 -18.46875 19.4375 -18.46875 L 15 -18.46875 C 14.550781 -18.46875 14.300781 -18.691406 14.25 -19.140625 C 14.226562 -19.585938 14.132812 -20.085938 13.96875 -20.640625 C 13.8125 -21.191406 13.507812 -21.675781 13.0625 -22.09375 C 12.625 -22.507812 11.976562 -22.71875 11.125 -22.71875 C 10.125 -22.71875 9.382812 -22.546875 8.90625 -22.203125 C 8.4375 -21.867188 8.140625 -21.421875 8.015625 -20.859375 C 7.890625 -20.296875 7.828125 -19.695312 7.828125 -19.0625 Z M 7.828125 -19.0625 "/></g></g></g><g fill="#000000" fill-opacity="1"><g transform="translate(233.782663, 197.441532)"><g><path d="M 20.265625 -23.09375 C 20.265625 -22.894531 20.1875 -22.71875 20.03125 -22.5625 C 19.882812 -22.414062 19.710938 -22.34375 19.515625 -22.34375 L 14.625 -22.34375 C 14.425781 -22.34375 14.257812 -22.269531 14.125 -22.125 C 13.988281 -21.988281 13.921875 -21.820312 13.921875 -21.625 C 13.890625 -20.550781 13.867188 -19.3125 13.859375 -17.90625 C 13.847656 -16.5 13.84375 -14.914062 13.84375 -13.15625 C 13.84375 -9.90625 13.859375 -7.234375 13.890625 -5.140625 C 13.929688 -3.046875 13.960938 -1.582031 13.984375 -0.75 C 14.015625 -0.550781 13.953125 -0.375 13.796875 -0.21875 C 13.648438 -0.0703125 13.476562 0 13.28125 0 L 8.875 0 C 8.675781 0 8.5 -0.0703125 8.34375 -0.21875 C 8.195312 -0.375 8.125 -0.550781 8.125 -0.75 C 8.175781 -1.582031 8.21875 -3.046875 8.25 -5.140625 C 8.289062 -7.234375 8.3125 -9.90625 8.3125 -13.15625 C 8.3125 -14.914062 8.304688 -16.5 8.296875 -17.90625 C 8.285156 -19.3125 8.265625 -20.550781 8.234375 -21.625 C 8.234375 -21.820312 8.164062 -21.988281 8.03125 -22.125 C 7.894531 -22.269531 7.710938 -22.34375 7.484375 -22.34375 L 2.625 -22.34375 C 2.425781 -22.34375 2.25 -22.414062 2.09375 -22.5625 C 1.945312 -22.71875 1.875 -22.894531 1.875 -23.09375 L 1.875 -25.578125 C 1.875 -25.773438 1.945312 -25.945312 2.09375 -26.09375 C 2.25 -26.25 2.425781 -26.328125 2.625 -26.328125 L 19.515625 -26.328125 C 19.710938 -26.328125 19.882812 -26.25 20.03125 -26.09375 C 20.1875 -25.945312 20.265625 -25.773438 20.265625 -25.578125 Z M 20.265625 -23.09375 "/></g></g></g><g fill="#000000" fill-opacity="1"><g transform="translate(255.935419, 197.441532)"><g><path d="M 18.953125 -23.09375 C 18.953125 -22.894531 18.882812 -22.71875 18.75 -22.5625 C 18.613281 -22.414062 18.429688 -22.34375 18.203125 -22.34375 L 8.390625 -22.34375 C 8.191406 -22.34375 8.015625 -22.269531 7.859375 -22.125 C 7.710938 -21.988281 7.640625 -21.820312 7.640625 -21.625 C 7.640625 -20.84375 7.628906 -19.972656 7.609375 -19.015625 C 7.597656 -18.066406 7.582031 -17.03125 7.5625 -15.90625 C 7.5625 -15.707031 7.632812 -15.53125 7.78125 -15.375 C 7.9375 -15.226562 8.113281 -15.15625 8.3125 -15.15625 L 16.25 -15.15625 C 16.445312 -15.15625 16.617188 -15.078125 16.765625 -14.921875 C 16.921875 -14.773438 17 -14.601562 17 -14.40625 L 17 -11.921875 C 17 -11.722656 16.921875 -11.546875 16.765625 -11.390625 C 16.617188 -11.242188 16.445312 -11.171875 16.25 -11.171875 L 8.3125 -11.171875 C 8.113281 -11.171875 7.9375 -11.09375 7.78125 -10.9375 C 7.632812 -10.789062 7.5625 -10.617188 7.5625 -10.421875 C 7.582031 -9.285156 7.597656 -8.238281 7.609375 -7.28125 C 7.628906 -6.332031 7.640625 -5.472656 7.640625 -4.703125 C 7.640625 -4.503906 7.710938 -4.332031 7.859375 -4.1875 C 8.015625 -4.050781 8.191406 -3.984375 8.390625 -3.984375 L 18.203125 -3.984375 C 18.429688 -3.984375 18.613281 -3.90625 18.75 -3.75 C 18.882812 -3.601562 18.953125 -3.429688 18.953125 -3.234375 L 18.953125 -0.75 C 18.953125 -0.550781 18.882812 -0.375 18.75 -0.21875 C 18.613281 -0.0703125 18.429688 0 18.203125 0 L 2.625 0 C 2.40625 0 2.222656 -0.0703125 2.078125 -0.21875 C 1.941406 -0.375 1.875 -0.550781 1.875 -0.75 C 1.90625 -1.582031 1.941406 -3.046875 1.984375 -5.140625 C 2.035156 -7.234375 2.0625 -9.90625 2.0625 -13.15625 C 2.0625 -16.445312 2.035156 -19.128906 1.984375 -21.203125 C 1.941406 -23.285156 1.90625 -24.742188 1.875 -25.578125 C 1.875 -25.773438 1.941406 -25.945312 2.078125 -26.09375 C 2.222656 -26.25 2.40625 -26.328125 2.625 -26.328125 L 18.203125 -26.328125 C 18.429688 -26.328125 18.613281 -26.25 18.75 -26.09375 C 18.882812 -25.945312 18.953125 -25.773438 18.953125 -25.578125 Z M 18.953125 -23.09375 "/></g></g></g><g fill="#000000" fill-opacity="1"><g transform="translate(276.809417, 197.441532)"><g><path d="M 28.015625 -26.328125 C 28.210938 -26.328125 28.382812 -26.25 28.53125 -26.09375 C 28.6875 -25.945312 28.765625 -25.773438 28.765625 -25.578125 C 28.742188 -24.742188 28.707031 -23.285156 28.65625 -21.203125 C 28.601562 -19.128906 28.578125 -16.445312 28.578125 -13.15625 C 28.578125 -9.90625 28.601562 -7.234375 28.65625 -5.140625 C 28.707031 -3.046875 28.742188 -1.582031 28.765625 -0.75 C 28.765625 -0.550781 28.6875 -0.375 28.53125 -0.21875 C 28.382812 -0.0703125 28.210938 0 28.015625 0 L 23.625 0 C 23.414062 0 23.234375 -0.0703125 23.078125 -0.21875 C 22.929688 -0.375 22.875 -0.550781 22.90625 -0.75 C 22.925781 -1.582031 22.960938 -3.046875 23.015625 -5.140625 C 23.066406 -7.234375 23.09375 -9.90625 23.09375 -13.15625 C 23.09375 -14.738281 23.082031 -16.175781 23.0625 -17.46875 C 23.050781 -18.757812 23.035156 -19.921875 23.015625 -20.953125 C 23.015625 -21.148438 22.921875 -21.253906 22.734375 -21.265625 C 22.546875 -21.273438 22.425781 -21.179688 22.375 -20.984375 C 22.195312 -19.984375 21.992188 -18.820312 21.765625 -17.5 C 21.546875 -16.1875 21.3125 -14.738281 21.0625 -13.15625 C 20.53125 -9.820312 20.113281 -7.097656 19.8125 -4.984375 C 19.519531 -2.867188 19.332031 -1.421875 19.25 -0.640625 C 19.175781 -0.210938 18.925781 0 18.5 0 L 12.140625 0 C 11.691406 0 11.441406 -0.210938 11.390625 -0.640625 C 11.296875 -1.421875 11.101562 -2.867188 10.8125 -4.984375 C 10.519531 -7.097656 10.097656 -9.820312 9.546875 -13.15625 C 9.296875 -14.738281 9.054688 -16.1875 8.828125 -17.5 C 8.609375 -18.820312 8.410156 -19.984375 8.234375 -20.984375 C 8.210938 -21.179688 8.109375 -21.273438 7.921875 -21.265625 C 7.734375 -21.253906 7.640625 -21.148438 7.640625 -20.953125 C 7.609375 -19.921875 7.585938 -18.757812 7.578125 -17.46875 C 7.566406 -16.175781 7.5625 -14.738281 7.5625 -13.15625 C 7.5625 -9.90625 7.582031 -7.234375 7.625 -5.140625 C 7.675781 -3.046875 7.71875 -1.582031 7.75 -0.75 C 7.75 -0.550781 7.675781 -0.375 7.53125 -0.21875 C 7.394531 -0.0703125 7.21875 0 7 0 L 2.625 0 C 2.40625 0 2.222656 -0.0703125 2.078125 -0.21875 C 1.941406 -0.375 1.875 -0.550781 1.875 -0.75 C 1.90625 -1.582031 1.941406 -3.046875 1.984375 -5.140625 C 2.035156 -7.234375 2.0625 -9.90625 2.0625 -13.15625 C 2.0625 -16.445312 2.035156 -19.128906 1.984375 -21.203125 C 1.941406 -23.285156 1.90625 -24.742188 1.875 -25.578125 C 1.875 -25.773438 1.941406 -25.945312 2.078125 -26.09375 C 2.222656 -26.25 2.40625 -26.328125 2.625 -26.328125 L 11.171875 -26.328125 C 11.597656 -26.328125 11.835938 -26.113281 11.890625 -25.6875 C 11.984375 -24.90625 12.175781 -23.460938 12.46875 -21.359375 C 12.757812 -19.253906 13.179688 -16.519531 13.734375 -13.15625 C 13.984375 -11.632812 14.210938 -10.234375 14.421875 -8.953125 C 14.640625 -7.671875 14.832031 -6.53125 15 -5.53125 C 15.03125 -5.351562 15.128906 -5.265625 15.296875 -5.265625 C 15.472656 -5.265625 15.578125 -5.351562 15.609375 -5.53125 C 15.804688 -6.53125 16.007812 -7.671875 16.21875 -8.953125 C 16.4375 -10.234375 16.671875 -11.632812 16.921875 -13.15625 C 17.453125 -16.519531 17.863281 -19.253906 18.15625 -21.359375 C 18.457031 -23.460938 18.648438 -24.90625 18.734375 -25.6875 C 18.773438 -26.113281 19.023438 -26.328125 19.484375 -26.328125 Z M 28.015625 -26.328125 "/></g></g></g></svg>