<svg xmlns="http://www.w3.org/2000/svg" xmlns:xlink="http://www.w3.org/1999/xlink" width="500" zoomAndPan="magnify" viewBox="0 0 375 374.999991" height="500" preserveAspectRatio="xMidYMid meet" version="1.0"><defs><g/><clipPath id="12dce71ebc"><path d="M 140 110.410156 L 272.675781 110.410156 L 272.675781 193 L 140 193 Z M 140 110.410156 " clip-rule="nonzero"/></clipPath><clipPath id="ba75fb75d7"><path d="M 156.847656 166.222656 L 155.488281 166.648438 C 155.082031 166.773438 154.699219 166.96875 154.363281 167.203125 C 153.945312 167.207031 153.523438 167.269531 153.121094 167.394531 L 149.226562 168.621094 C 148.121094 167.535156 146.996094 166.445312 145.902344 165.382812 C 149.777344 163.527344 153.335938 164.46875 156.847656 166.222656 Z M 243.300781 178.199219 C 238.914062 179.367188 234.226562 179.40625 229.667969 179.960938 C 229.449219 179.214844 229.230469 178.472656 229.011719 177.730469 C 235.722656 175.46875 243.734375 175.210938 246.875 167.808594 C 241.597656 167.808594 236.441406 167.808594 231.214844 167.808594 C 233.863281 160.347656 236.40625 153.621094 238.640625 146.78125 C 240.824219 140.105469 244.253906 134.597656 250.988281 131.667969 C 238.855469 133.589844 227.863281 136.996094 221.878906 149.335938 C 220.269531 152.660156 216.761719 155.050781 214.125 157.875 C 213.625 157.507812 213.132812 157.140625 212.636719 156.773438 C 215.628906 150.640625 220.90625 145.035156 218.902344 140.261719 C 215.613281 142.746094 211.445312 145.886719 206.199219 149.847656 C 203.890625 135.367188 190.761719 125.714844 194.601562 110.488281 C 187.714844 119.9375 183.03125 129.601562 187.148438 141.714844 C 188.367188 145.300781 187.675781 149.542969 187.859375 153.480469 C 187.25 153.625 186.644531 153.769531 186.039062 153.910156 C 183.648438 147.304688 183.558594 139.175781 176.097656 136.464844 C 176.097656 141.671875 176.097656 146.984375 176.097656 152.199219 C 168.84375 149.632812 162.105469 147.144531 155.304688 144.863281 C 148.640625 142.636719 142.941406 139.367188 140.324219 132.238281 C 141.945312 144.554688 145.460938 155.46875 157.675781 161.542969 C 159.191406 162.296875 160.515625 163.425781 161.789062 164.671875 L 165.15625 163.617188 C 165.574219 163.484375 166.003906 163.417969 166.433594 163.417969 C 166.921875 163.417969 167.40625 163.5 167.875 163.667969 L 172.738281 165.410156 C 178.691406 159.203125 187.097656 155.363281 196.40625 155.441406 C 212.964844 155.582031 226.675781 168.78125 227.921875 185.179688 L 229.019531 185.570312 C 229.53125 185.757812 229.984375 186.042969 230.378906 186.382812 C 230.425781 186.382812 230.460938 186.371094 230.507812 186.371094 C 230.996094 186.371094 231.480469 186.453125 231.945312 186.621094 L 248.113281 192.414062 C 255.808594 188.3125 263.152344 183.835938 272.683594 186.273438 C 263.914062 179.71875 254.796875 175.140625 243.300781 178.199219 Z M 243.300781 178.199219 " clip-rule="evenodd"/></clipPath><linearGradient x1="253.506" gradientTransform="matrix(0.410538, 0, 0, 0.411865, 102.42647, 110.488827)" y1="0.00000339018" x2="253.506" gradientUnits="userSpaceOnUse" y2="198.909977" id="aa8728f96e"><stop stop-opacity="1" stop-color="rgb(99.998474%, 94.898987%, 0%)" offset="0"/><stop stop-opacity="1" stop-color="rgb(99.977112%, 94.665527%, 0.062561%)" offset="0.00390625"/><stop stop-opacity="1" stop-color="rgb(99.95575%, 94.433594%, 0.125122%)" offset="0.0078125"/><stop stop-opacity="1" stop-color="rgb(99.934387%, 94.200134%, 0.187683%)" offset="0.0117188"/><stop stop-opacity="1" stop-color="rgb(99.913025%, 93.968201%, 0.250244%)" offset="0.015625"/><stop stop-opacity="1" stop-color="rgb(99.891663%, 93.734741%, 0.312805%)" offset="0.0195312"/><stop stop-opacity="1" stop-color="rgb(99.8703%, 93.502808%, 0.376892%)" offset="0.0234375"/><stop stop-opacity="1" stop-color="rgb(99.848938%, 93.269348%, 0.439453%)" offset="0.0273438"/><stop stop-opacity="1" stop-color="rgb(99.827576%, 93.037415%, 0.502014%)" offset="0.03125"/><stop stop-opacity="1" stop-color="rgb(99.806213%, 92.803955%, 0.564575%)" offset="0.0351562"/><stop stop-opacity="1" stop-color="rgb(99.784851%, 92.570496%, 0.628662%)" offset="0.0390625"/><stop stop-opacity="1" stop-color="rgb(99.763489%, 92.337036%, 0.691223%)" offset="0.0429688"/><stop stop-opacity="1" stop-color="rgb(99.742126%, 92.105103%, 0.753784%)" offset="0.046875"/><stop stop-opacity="1" stop-color="rgb(99.719238%, 91.871643%, 0.816345%)" offset="0.0507812"/><stop stop-opacity="1" stop-color="rgb(99.697876%, 91.639709%, 0.880432%)" offset="0.0546875"/><stop stop-opacity="1" stop-color="rgb(99.676514%, 91.40625%, 0.942993%)" offset="0.0585938"/><stop stop-opacity="1" stop-color="rgb(99.655151%, 91.174316%, 1.005554%)" offset="0.0625"/><stop stop-opacity="1" stop-color="rgb(99.633789%, 90.940857%, 1.068115%)" offset="0.0664062"/><stop stop-opacity="1" stop-color="rgb(99.612427%, 90.708923%, 1.130676%)" offset="0.0703125"/><stop stop-opacity="1" stop-color="rgb(99.591064%, 90.475464%, 1.193237%)" offset="0.0742188"/><stop stop-opacity="1" stop-color="rgb(99.569702%, 90.24353%, 1.257324%)" offset="0.078125"/><stop stop-opacity="1" stop-color="rgb(99.54834%, 90.010071%, 1.319885%)" offset="0.0820312"/><stop stop-opacity="1" stop-color="rgb(99.526978%, 89.778137%, 1.382446%)" offset="0.0859375"/><stop stop-opacity="1" stop-color="rgb(99.505615%, 89.544678%, 1.445007%)" offset="0.0898438"/><stop stop-opacity="1" stop-color="rgb(99.484253%, 89.311218%, 1.509094%)" offset="0.09375"/><stop stop-opacity="1" stop-color="rgb(99.461365%, 89.077759%, 1.571655%)" offset="0.0976562"/><stop stop-opacity="1" stop-color="rgb(99.440002%, 88.845825%, 1.634216%)" offset="0.101562"/><stop stop-opacity="1" stop-color="rgb(99.41864%, 88.612366%, 1.696777%)" offset="0.105469"/><stop stop-opacity="1" stop-color="rgb(99.397278%, 88.380432%, 1.760864%)" offset="0.109375"/><stop stop-opacity="1" stop-color="rgb(99.375916%, 88.146973%, 1.823425%)" offset="0.113281"/><stop stop-opacity="1" stop-color="rgb(99.354553%, 87.915039%, 1.885986%)" offset="0.117188"/><stop stop-opacity="1" stop-color="rgb(99.333191%, 87.68158%, 1.948547%)" offset="0.121094"/><stop stop-opacity="1" stop-color="rgb(99.311829%, 87.449646%, 2.011108%)" offset="0.125"/><stop stop-opacity="1" stop-color="rgb(99.290466%, 87.216187%, 2.073669%)" offset="0.128906"/><stop stop-opacity="1" stop-color="rgb(99.269104%, 86.984253%, 2.137756%)" offset="0.132812"/><stop stop-opacity="1" stop-color="rgb(99.247742%, 86.750793%, 2.200317%)" offset="0.136719"/><stop stop-opacity="1" stop-color="rgb(99.226379%, 86.51886%, 2.262878%)" offset="0.140625"/><stop stop-opacity="1" stop-color="rgb(99.203491%, 86.2854%, 2.325439%)" offset="0.144531"/><stop stop-opacity="1" stop-color="rgb(99.182129%, 86.051941%, 2.389526%)" offset="0.148438"/><stop stop-opacity="1" stop-color="rgb(99.160767%, 85.818481%, 2.452087%)" offset="0.152344"/><stop stop-opacity="1" stop-color="rgb(99.139404%, 85.586548%, 2.514648%)" offset="0.15625"/><stop stop-opacity="1" stop-color="rgb(99.118042%, 85.353088%, 2.577209%)" offset="0.160156"/><stop stop-opacity="1" stop-color="rgb(99.09668%, 85.121155%, 2.641296%)" offset="0.164062"/><stop stop-opacity="1" stop-color="rgb(99.075317%, 84.887695%, 2.703857%)" offset="0.167969"/><stop stop-opacity="1" stop-color="rgb(99.053955%, 84.655762%, 2.766418%)" offset="0.171875"/><stop stop-opacity="1" stop-color="rgb(99.032593%, 84.422302%, 2.828979%)" offset="0.175781"/><stop stop-opacity="1" stop-color="rgb(99.01123%, 84.190369%, 2.891541%)" offset="0.179688"/><stop stop-opacity="1" stop-color="rgb(98.989868%, 83.956909%, 2.954102%)" offset="0.183594"/><stop stop-opacity="1" stop-color="rgb(98.968506%, 83.724976%, 3.018188%)" offset="0.1875"/><stop stop-opacity="1" stop-color="rgb(98.947144%, 83.491516%, 3.08075%)" offset="0.191406"/><stop stop-opacity="1" stop-color="rgb(98.925781%, 83.259583%, 3.143311%)" offset="0.195312"/><stop stop-opacity="1" stop-color="rgb(98.902893%, 83.026123%, 3.205872%)" offset="0.199219"/><stop stop-opacity="1" stop-color="rgb(98.881531%, 82.792664%, 3.269958%)" offset="0.203125"/><stop stop-opacity="1" stop-color="rgb(98.860168%, 82.559204%, 3.33252%)" offset="0.207031"/><stop stop-opacity="1" stop-color="rgb(98.838806%, 82.327271%, 3.395081%)" offset="0.210938"/><stop stop-opacity="1" stop-color="rgb(98.817444%, 82.093811%, 3.457642%)" offset="0.214844"/><stop stop-opacity="1" stop-color="rgb(98.796082%, 81.861877%, 3.521729%)" offset="0.21875"/><stop stop-opacity="1" stop-color="rgb(98.774719%, 81.628418%, 3.58429%)" offset="0.222656"/><stop stop-opacity="1" stop-color="rgb(98.753357%, 81.396484%, 3.646851%)" offset="0.226562"/><stop stop-opacity="1" stop-color="rgb(98.731995%, 81.163025%, 3.709412%)" offset="0.230469"/><stop stop-opacity="1" stop-color="rgb(98.710632%, 80.931091%, 3.771973%)" offset="0.234375"/><stop stop-opacity="1" stop-color="rgb(98.68927%, 80.697632%, 3.834534%)" offset="0.238281"/><stop stop-opacity="1" stop-color="rgb(98.667908%, 80.465698%, 3.898621%)" offset="0.242188"/><stop stop-opacity="1" stop-color="rgb(98.64502%, 80.232239%, 3.961182%)" offset="0.246094"/><stop stop-opacity="1" stop-color="rgb(98.623657%, 80.000305%, 4.023743%)" offset="0.25"/><stop stop-opacity="1" stop-color="rgb(98.602295%, 79.766846%, 4.086304%)" offset="0.253906"/><stop stop-opacity="1" stop-color="rgb(98.580933%, 79.534912%, 4.150391%)" offset="0.257812"/><stop stop-opacity="1" stop-color="rgb(98.55957%, 79.301453%, 4.212952%)" offset="0.261719"/><stop stop-opacity="1" stop-color="rgb(98.538208%, 79.067993%, 4.275513%)" offset="0.265625"/><stop stop-opacity="1" stop-color="rgb(98.516846%, 78.834534%, 4.338074%)" offset="0.269531"/><stop stop-opacity="1" stop-color="rgb(98.495483%, 78.6026%, 4.402161%)" offset="0.273438"/><stop stop-opacity="1" stop-color="rgb(98.474121%, 78.369141%, 4.464722%)" offset="0.277344"/><stop stop-opacity="1" stop-color="rgb(98.452759%, 78.137207%, 4.527283%)" offset="0.28125"/><stop stop-opacity="1" stop-color="rgb(98.431396%, 77.903748%, 4.589844%)" offset="0.285156"/><stop stop-opacity="1" stop-color="rgb(98.410034%, 77.671814%, 4.652405%)" offset="0.289062"/><stop stop-opacity="1" stop-color="rgb(98.387146%, 77.438354%, 4.714966%)" offset="0.292969"/><stop stop-opacity="1" stop-color="rgb(98.365784%, 77.206421%, 4.779053%)" offset="0.296875"/><stop stop-opacity="1" stop-color="rgb(98.344421%, 76.972961%, 4.841614%)" offset="0.300781"/><stop stop-opacity="1" stop-color="rgb(98.323059%, 76.741028%, 4.904175%)" offset="0.304687"/><stop stop-opacity="1" stop-color="rgb(98.301697%, 76.507568%, 4.966736%)" offset="0.308594"/><stop stop-opacity="1" stop-color="rgb(98.280334%, 76.275635%, 5.030823%)" offset="0.3125"/><stop stop-opacity="1" stop-color="rgb(98.258972%, 76.042175%, 5.093384%)" offset="0.316406"/><stop stop-opacity="1" stop-color="rgb(98.23761%, 75.808716%, 5.155945%)" offset="0.320312"/><stop stop-opacity="1" stop-color="rgb(98.216248%, 75.575256%, 5.218506%)" offset="0.324219"/><stop stop-opacity="1" stop-color="rgb(98.194885%, 75.343323%, 5.282593%)" offset="0.328125"/><stop stop-opacity="1" stop-color="rgb(98.173523%, 75.109863%, 5.345154%)" offset="0.332031"/><stop stop-opacity="1" stop-color="rgb(98.152161%, 74.87793%, 5.407715%)" offset="0.335938"/><stop stop-opacity="1" stop-color="rgb(98.130798%, 74.64447%, 5.470276%)" offset="0.339844"/><stop stop-opacity="1" stop-color="rgb(98.109436%, 74.412537%, 5.532837%)" offset="0.34375"/><stop stop-opacity="1" stop-color="rgb(98.086548%, 74.179077%, 5.595398%)" offset="0.347656"/><stop stop-opacity="1" stop-color="rgb(98.065186%, 73.947144%, 5.659485%)" offset="0.351562"/><stop stop-opacity="1" stop-color="rgb(98.043823%, 73.713684%, 5.722046%)" offset="0.355469"/><stop stop-opacity="1" stop-color="rgb(98.022461%, 73.48175%, 5.784607%)" offset="0.359375"/><stop stop-opacity="1" stop-color="rgb(98.001099%, 73.248291%, 5.847168%)" offset="0.363281"/><stop stop-opacity="1" stop-color="rgb(97.979736%, 73.016357%, 5.911255%)" offset="0.367188"/><stop stop-opacity="1" stop-color="rgb(97.958374%, 72.782898%, 5.973816%)" offset="0.371094"/><stop stop-opacity="1" stop-color="rgb(97.937012%, 72.549438%, 6.036377%)" offset="0.375"/><stop stop-opacity="1" stop-color="rgb(97.915649%, 72.315979%, 6.098938%)" offset="0.378906"/><stop stop-opacity="1" stop-color="rgb(97.894287%, 72.084045%, 6.163025%)" offset="0.382812"/><stop stop-opacity="1" stop-color="rgb(97.872925%, 71.850586%, 6.225586%)" offset="0.386719"/><stop stop-opacity="1" stop-color="rgb(97.851562%, 71.618652%, 6.288147%)" offset="0.390625"/><stop stop-opacity="1" stop-color="rgb(97.828674%, 71.385193%, 6.350708%)" offset="0.394531"/><stop stop-opacity="1" stop-color="rgb(97.807312%, 71.153259%, 6.413269%)" offset="0.398438"/><stop stop-opacity="1" stop-color="rgb(97.78595%, 70.9198%, 6.47583%)" offset="0.402344"/><stop stop-opacity="1" stop-color="rgb(97.764587%, 70.687866%, 6.539917%)" offset="0.40625"/><stop stop-opacity="1" stop-color="rgb(97.743225%, 70.454407%, 6.602478%)" offset="0.410156"/><stop stop-opacity="1" stop-color="rgb(97.721863%, 70.222473%, 6.665039%)" offset="0.414062"/><stop stop-opacity="1" stop-color="rgb(97.7005%, 69.989014%, 6.7276%)" offset="0.417969"/><stop stop-opacity="1" stop-color="rgb(97.679138%, 69.75708%, 6.791687%)" offset="0.421875"/><stop stop-opacity="1" stop-color="rgb(97.657776%, 69.523621%, 6.854248%)" offset="0.425781"/><stop stop-opacity="1" stop-color="rgb(97.636414%, 69.290161%, 6.916809%)" offset="0.429687"/><stop stop-opacity="1" stop-color="rgb(97.615051%, 69.056702%, 6.97937%)" offset="0.433594"/><stop stop-opacity="1" stop-color="rgb(97.593689%, 68.824768%, 7.043457%)" offset="0.4375"/><stop stop-opacity="1" stop-color="rgb(97.570801%, 68.591309%, 7.106018%)" offset="0.441406"/><stop stop-opacity="1" stop-color="rgb(97.549438%, 68.359375%, 7.168579%)" offset="0.445312"/><stop stop-opacity="1" stop-color="rgb(97.528076%, 68.125916%, 7.23114%)" offset="0.449219"/><stop stop-opacity="1" stop-color="rgb(97.506714%, 67.893982%, 7.293701%)" offset="0.453125"/><stop stop-opacity="1" stop-color="rgb(97.485352%, 67.660522%, 7.356262%)" offset="0.457031"/><stop stop-opacity="1" stop-color="rgb(97.463989%, 67.428589%, 7.420349%)" offset="0.460937"/><stop stop-opacity="1" stop-color="rgb(97.442627%, 67.195129%, 7.48291%)" offset="0.464844"/><stop stop-opacity="1" stop-color="rgb(97.421265%, 66.963196%, 7.545471%)" offset="0.46875"/><stop stop-opacity="1" stop-color="rgb(97.399902%, 66.729736%, 7.608032%)" offset="0.472656"/><stop stop-opacity="1" stop-color="rgb(97.37854%, 66.497803%, 7.672119%)" offset="0.476562"/><stop stop-opacity="1" stop-color="rgb(97.357178%, 66.264343%, 7.73468%)" offset="0.480469"/><stop stop-opacity="1" stop-color="rgb(97.335815%, 66.030884%, 7.797241%)" offset="0.484375"/><stop stop-opacity="1" stop-color="rgb(97.312927%, 65.797424%, 7.859802%)" offset="0.488281"/><stop stop-opacity="1" stop-color="rgb(97.291565%, 65.565491%, 7.923889%)" offset="0.492188"/><stop stop-opacity="1" stop-color="rgb(97.270203%, 65.332031%, 7.98645%)" offset="0.496094"/><stop stop-opacity="1" stop-color="rgb(97.24884%, 65.100098%, 8.049011%)" offset="0.5"/><stop stop-opacity="1" stop-color="rgb(97.227478%, 64.866638%, 8.111572%)" offset="0.503906"/><stop stop-opacity="1" stop-color="rgb(97.206116%, 64.634705%, 8.174133%)" offset="0.507812"/><stop stop-opacity="1" stop-color="rgb(97.184753%, 64.401245%, 8.236694%)" offset="0.511719"/><stop stop-opacity="1" stop-color="rgb(97.163391%, 64.169312%, 8.300781%)" offset="0.515625"/><stop stop-opacity="1" stop-color="rgb(97.142029%, 63.935852%, 8.363342%)" offset="0.519531"/><stop stop-opacity="1" stop-color="rgb(97.120667%, 63.703918%, 8.425903%)" offset="0.523438"/><stop stop-opacity="1" stop-color="rgb(97.099304%, 63.470459%, 8.488464%)" offset="0.527344"/><stop stop-opacity="1" stop-color="rgb(97.077942%, 63.238525%, 8.552551%)" offset="0.53125"/><stop stop-opacity="1" stop-color="rgb(97.05658%, 63.005066%, 8.615112%)" offset="0.535156"/><stop stop-opacity="1" stop-color="rgb(97.035217%, 62.771606%, 8.677673%)" offset="0.539062"/><stop stop-opacity="1" stop-color="rgb(97.012329%, 62.538147%, 8.740234%)" offset="0.542969"/><stop stop-opacity="1" stop-color="rgb(96.990967%, 62.306213%, 8.804321%)" offset="0.546875"/><stop stop-opacity="1" stop-color="rgb(96.969604%, 62.072754%, 8.866882%)" offset="0.550781"/><stop stop-opacity="1" stop-color="rgb(96.948242%, 61.84082%, 8.929443%)" offset="0.554688"/><stop stop-opacity="1" stop-color="rgb(96.92688%, 61.607361%, 8.992004%)" offset="0.558594"/><stop stop-opacity="1" stop-color="rgb(96.905518%, 61.375427%, 9.054565%)" offset="0.5625"/><stop stop-opacity="1" stop-color="rgb(96.884155%, 61.141968%, 9.117126%)" offset="0.566406"/><stop stop-opacity="1" stop-color="rgb(96.862793%, 60.910034%, 9.181213%)" offset="0.570312"/><stop stop-opacity="1" stop-color="rgb(96.841431%, 60.676575%, 9.243774%)" offset="0.574219"/><stop stop-opacity="1" stop-color="rgb(96.820068%, 60.444641%, 9.306335%)" offset="0.578125"/><stop stop-opacity="1" stop-color="rgb(96.798706%, 60.211182%, 9.368896%)" offset="0.582031"/><stop stop-opacity="1" stop-color="rgb(96.777344%, 59.979248%, 9.432983%)" offset="0.585937"/><stop stop-opacity="1" stop-color="rgb(96.754456%, 59.745789%, 9.495544%)" offset="0.589844"/><stop stop-opacity="1" stop-color="rgb(96.733093%, 59.512329%, 9.558105%)" offset="0.59375"/><stop stop-opacity="1" stop-color="rgb(96.711731%, 59.27887%, 9.620667%)" offset="0.597656"/><stop stop-opacity="1" stop-color="rgb(96.690369%, 59.046936%, 9.684753%)" offset="0.601562"/><stop stop-opacity="1" stop-color="rgb(96.669006%, 58.813477%, 9.747314%)" offset="0.605469"/><stop stop-opacity="1" stop-color="rgb(96.647644%, 58.581543%, 9.809875%)" offset="0.609375"/><stop stop-opacity="1" stop-color="rgb(96.626282%, 58.348083%, 9.872437%)" offset="0.613281"/><stop stop-opacity="1" stop-color="rgb(96.604919%, 58.11615%, 9.934998%)" offset="0.617188"/><stop stop-opacity="1" stop-color="rgb(96.583557%, 57.88269%, 9.997559%)" offset="0.621094"/><stop stop-opacity="1" stop-color="rgb(96.562195%, 57.650757%, 10.061646%)" offset="0.625"/><stop stop-opacity="1" stop-color="rgb(96.540833%, 57.417297%, 10.124207%)" offset="0.628906"/><stop stop-opacity="1" stop-color="rgb(96.51947%, 57.185364%, 10.186768%)" offset="0.632812"/><stop stop-opacity="1" stop-color="rgb(96.496582%, 56.951904%, 10.249329%)" offset="0.636719"/><stop stop-opacity="1" stop-color="rgb(96.47522%, 56.719971%, 10.313416%)" offset="0.640625"/><stop stop-opacity="1" stop-color="rgb(96.453857%, 56.486511%, 10.375977%)" offset="0.644531"/><stop stop-opacity="1" stop-color="rgb(96.432495%, 56.253052%, 10.438538%)" offset="0.648438"/><stop stop-opacity="1" stop-color="rgb(96.411133%, 56.019592%, 10.501099%)" offset="0.652344"/><stop stop-opacity="1" stop-color="rgb(96.389771%, 55.787659%, 10.565186%)" offset="0.65625"/><stop stop-opacity="1" stop-color="rgb(96.368408%, 55.554199%, 10.627747%)" offset="0.660156"/><stop stop-opacity="1" stop-color="rgb(96.347046%, 55.322266%, 10.690308%)" offset="0.664062"/><stop stop-opacity="1" stop-color="rgb(96.325684%, 55.088806%, 10.752869%)" offset="0.667969"/><stop stop-opacity="1" stop-color="rgb(96.304321%, 54.856873%, 10.81543%)" offset="0.671875"/><stop stop-opacity="1" stop-color="rgb(96.282959%, 54.623413%, 10.877991%)" offset="0.675781"/><stop stop-opacity="1" stop-color="rgb(96.261597%, 54.391479%, 10.942078%)" offset="0.679687"/><stop stop-opacity="1" stop-color="rgb(96.240234%, 54.15802%, 11.004639%)" offset="0.683594"/><stop stop-opacity="1" stop-color="rgb(96.218872%, 53.926086%, 11.0672%)" offset="0.6875"/><stop stop-opacity="1" stop-color="rgb(96.195984%, 53.692627%, 11.129761%)" offset="0.691406"/><stop stop-opacity="1" stop-color="rgb(96.174622%, 53.460693%, 11.193848%)" offset="0.695312"/><stop stop-opacity="1" stop-color="rgb(96.153259%, 53.227234%, 11.256409%)" offset="0.699219"/><stop stop-opacity="1" stop-color="rgb(96.131897%, 52.993774%, 11.31897%)" offset="0.703125"/><stop stop-opacity="1" stop-color="rgb(96.110535%, 52.760315%, 11.381531%)" offset="0.707031"/><stop stop-opacity="1" stop-color="rgb(96.089172%, 52.528381%, 11.445618%)" offset="0.710938"/><stop stop-opacity="1" stop-color="rgb(96.06781%, 52.294922%, 11.508179%)" offset="0.714844"/><stop stop-opacity="1" stop-color="rgb(96.046448%, 52.062988%, 11.57074%)" offset="0.71875"/><stop stop-opacity="1" stop-color="rgb(96.025085%, 51.829529%, 11.633301%)" offset="0.722656"/><stop stop-opacity="1" stop-color="rgb(96.003723%, 51.597595%, 11.695862%)" offset="0.726562"/><stop stop-opacity="1" stop-color="rgb(95.982361%, 51.364136%, 11.758423%)" offset="0.730469"/><stop stop-opacity="1" stop-color="rgb(95.960999%, 51.132202%, 11.82251%)" offset="0.734375"/><stop stop-opacity="1" stop-color="rgb(95.93811%, 50.898743%, 11.885071%)" offset="0.738281"/><stop stop-opacity="1" stop-color="rgb(95.916748%, 50.666809%, 11.947632%)" offset="0.742188"/><stop stop-opacity="1" stop-color="rgb(95.895386%, 50.43335%, 12.010193%)" offset="0.746094"/><stop stop-opacity="1" stop-color="rgb(95.874023%, 50.201416%, 12.07428%)" offset="0.75"/><stop stop-opacity="1" stop-color="rgb(95.852661%, 49.967957%, 12.136841%)" offset="0.753906"/><stop stop-opacity="1" stop-color="rgb(95.831299%, 49.734497%, 12.199402%)" offset="0.757812"/><stop stop-opacity="1" stop-color="rgb(95.809937%, 49.501038%, 12.261963%)" offset="0.761719"/><stop stop-opacity="1" stop-color="rgb(95.788574%, 49.269104%, 12.32605%)" offset="0.765625"/><stop stop-opacity="1" stop-color="rgb(95.767212%, 49.035645%, 12.388611%)" offset="0.769531"/><stop stop-opacity="1" stop-color="rgb(95.74585%, 48.803711%, 12.451172%)" offset="0.773438"/><stop stop-opacity="1" stop-color="rgb(95.724487%, 48.570251%, 12.513733%)" offset="0.777344"/><stop stop-opacity="1" stop-color="rgb(95.703125%, 48.338318%, 12.576294%)" offset="0.78125"/><stop stop-opacity="1" stop-color="rgb(95.680237%, 48.104858%, 12.638855%)" offset="0.785156"/><stop stop-opacity="1" stop-color="rgb(95.658875%, 47.872925%, 12.702942%)" offset="0.789062"/><stop stop-opacity="1" stop-color="rgb(95.637512%, 47.639465%, 12.765503%)" offset="0.792969"/><stop stop-opacity="1" stop-color="rgb(95.61615%, 47.407532%, 12.828064%)" offset="0.796875"/><stop stop-opacity="1" stop-color="rgb(95.594788%, 47.174072%, 12.890625%)" offset="0.800781"/><stop stop-opacity="1" stop-color="rgb(95.573425%, 46.942139%, 12.954712%)" offset="0.804688"/><stop stop-opacity="1" stop-color="rgb(95.552063%, 46.708679%, 13.017273%)" offset="0.808594"/><stop stop-opacity="1" stop-color="rgb(95.530701%, 46.47522%, 13.079834%)" offset="0.8125"/><stop stop-opacity="1" stop-color="rgb(95.509338%, 46.24176%, 13.142395%)" offset="0.816406"/><stop stop-opacity="1" stop-color="rgb(95.487976%, 46.009827%, 13.206482%)" offset="0.820312"/><stop stop-opacity="1" stop-color="rgb(95.466614%, 45.776367%, 13.269043%)" offset="0.824219"/><stop stop-opacity="1" stop-color="rgb(95.445251%, 45.544434%, 13.331604%)" offset="0.828125"/><stop stop-opacity="1" stop-color="rgb(95.422363%, 45.310974%, 13.394165%)" offset="0.832031"/><stop stop-opacity="1" stop-color="rgb(95.401001%, 45.079041%, 13.456726%)" offset="0.835938"/><stop stop-opacity="1" stop-color="rgb(95.379639%, 44.845581%, 13.519287%)" offset="0.839844"/><stop stop-opacity="1" stop-color="rgb(95.358276%, 44.613647%, 13.583374%)" offset="0.84375"/><stop stop-opacity="1" stop-color="rgb(95.336914%, 44.380188%, 13.645935%)" offset="0.847656"/><stop stop-opacity="1" stop-color="rgb(95.315552%, 44.148254%, 13.708496%)" offset="0.851562"/><stop stop-opacity="1" stop-color="rgb(95.294189%, 43.914795%, 13.771057%)" offset="0.855469"/><stop stop-opacity="1" stop-color="rgb(95.272827%, 43.682861%, 13.835144%)" offset="0.859375"/><stop stop-opacity="1" stop-color="rgb(95.251465%, 43.449402%, 13.897705%)" offset="0.863281"/><stop stop-opacity="1" stop-color="rgb(95.230103%, 43.215942%, 13.960266%)" offset="0.867188"/><stop stop-opacity="1" stop-color="rgb(95.20874%, 42.982483%, 14.022827%)" offset="0.871094"/><stop stop-opacity="1" stop-color="rgb(95.187378%, 42.750549%, 14.086914%)" offset="0.875"/><stop stop-opacity="1" stop-color="rgb(95.166016%, 42.51709%, 14.149475%)" offset="0.878906"/><stop stop-opacity="1" stop-color="rgb(95.144653%, 42.285156%, 14.212036%)" offset="0.882812"/><stop stop-opacity="1" stop-color="rgb(95.121765%, 42.051697%, 14.274597%)" offset="0.886719"/><stop stop-opacity="1" stop-color="rgb(95.100403%, 41.819763%, 14.337158%)" offset="0.890625"/><stop stop-opacity="1" stop-color="rgb(95.079041%, 41.586304%, 14.399719%)" offset="0.894531"/><stop stop-opacity="1" stop-color="rgb(95.057678%, 41.35437%, 14.463806%)" offset="0.898438"/><stop stop-opacity="1" stop-color="rgb(95.036316%, 41.120911%, 14.526367%)" offset="0.902344"/><stop stop-opacity="1" stop-color="rgb(95.014954%, 40.888977%, 14.588928%)" offset="0.90625"/><stop stop-opacity="1" stop-color="rgb(94.993591%, 40.655518%, 14.651489%)" offset="0.910156"/><stop stop-opacity="1" stop-color="rgb(94.972229%, 40.423584%, 14.715576%)" offset="0.914062"/><stop stop-opacity="1" stop-color="rgb(94.950867%, 40.190125%, 14.778137%)" offset="0.917969"/><stop stop-opacity="1" stop-color="rgb(94.929504%, 39.958191%, 14.840698%)" offset="0.921875"/><stop stop-opacity="1" stop-color="rgb(94.908142%, 39.724731%, 14.903259%)" offset="0.925781"/><stop stop-opacity="1" stop-color="rgb(94.88678%, 39.491272%, 14.967346%)" offset="0.929688"/><stop stop-opacity="1" stop-color="rgb(94.863892%, 39.257812%, 15.029907%)" offset="0.933594"/><stop stop-opacity="1" stop-color="rgb(94.842529%, 39.025879%, 15.092468%)" offset="0.9375"/><stop stop-opacity="1" stop-color="rgb(94.821167%, 38.792419%, 15.155029%)" offset="0.941406"/><stop stop-opacity="1" stop-color="rgb(94.799805%, 38.560486%, 15.21759%)" offset="0.945312"/><stop stop-opacity="1" stop-color="rgb(94.778442%, 38.327026%, 15.280151%)" offset="0.949219"/><stop stop-opacity="1" stop-color="rgb(94.75708%, 38.095093%, 15.344238%)" offset="0.953125"/><stop stop-opacity="1" stop-color="rgb(94.735718%, 37.861633%, 15.406799%)" offset="0.957031"/><stop stop-opacity="1" stop-color="rgb(94.714355%, 37.6297%, 15.46936%)" offset="0.960938"/><stop stop-opacity="1" stop-color="rgb(94.692993%, 37.39624%, 15.531921%)" offset="0.964844"/><stop stop-opacity="1" stop-color="rgb(94.671631%, 37.164307%, 15.596008%)" offset="0.96875"/><stop stop-opacity="1" stop-color="rgb(94.650269%, 36.930847%, 15.658569%)" offset="0.972656"/><stop stop-opacity="1" stop-color="rgb(94.628906%, 36.698914%, 15.72113%)" offset="0.976562"/><stop stop-opacity="1" stop-color="rgb(94.606018%, 36.465454%, 15.783691%)" offset="0.980469"/><stop stop-opacity="1" stop-color="rgb(94.584656%, 36.231995%, 15.847778%)" offset="0.984375"/><stop stop-opacity="1" stop-color="rgb(94.563293%, 35.998535%, 15.910339%)" offset="0.988281"/><stop stop-opacity="1" stop-color="rgb(94.541931%, 35.766602%, 15.9729%)" offset="0.992188"/><stop stop-opacity="1" stop-color="rgb(94.520569%, 35.533142%, 16.035461%)" offset="0.996094"/><stop stop-opacity="1" stop-color="rgb(94.499207%, 35.301208%, 16.098022%)" offset="1"/></linearGradient><clipPath id="0a14185478"><path d="M 102.425781 167 L 254 167 L 254 198.910156 L 102.425781 198.910156 Z M 102.425781 167 " clip-rule="nonzero"/></clipPath><clipPath id="a59468c66b"><path d="M 194.695312 184.941406 L 176.226562 178.027344 L 185.933594 174.699219 L 204.414062 181.320312 Z M 183.265625 173.742188 L 166.429688 167.710938 L 156.765625 170.746094 L 173.554688 177.03125 Z M 227.574219 189.617188 L 207.210938 182.320312 L 197.492188 185.988281 L 217.890625 193.621094 Z M 230.5 190.664062 L 220.824219 194.71875 L 231.785156 198.816406 L 252.878906 198.816406 L 253.042969 198.738281 Z M 192.367188 185.804688 L 173.902344 178.824219 L 163.667969 182.335938 L 182.09375 189.632812 Z M 171.179688 177.832031 L 154.394531 171.488281 L 144.230469 174.683594 L 160.949219 181.300781 Z M 215.5625 194.578125 L 195.164062 186.859375 L 184.890625 190.738281 L 205.304688 198.816406 Z M 218.445312 195.71875 L 211.039062 198.820312 L 226.644531 198.820312 Z M 179.636719 190.546875 L 161.214844 183.171875 L 150.414062 186.875 L 168.773438 194.589844 Z M 158.4375 182.152344 L 141.738281 175.464844 L 131.039062 178.824219 L 147.644531 185.804688 Z M 182.433594 191.664062 L 171.554688 195.769531 L 178.8125 198.816406 L 200.289062 198.816406 Z M 157.433594 198.816406 L 166.167969 195.5625 L 147.820312 187.761719 L 136.402344 191.679688 L 152.332031 198.816406 Z M 144.988281 186.710938 L 128.410156 179.652344 L 117.121094 183.199219 L 133.574219 190.574219 Z M 168.945312 196.75 L 163.460938 198.816406 L 173.808594 198.816406 Z M 133.382812 192.71875 L 121.273438 196.859375 L 125.34375 198.816406 L 146.816406 198.816406 Z M 130.765625 191.53125 L 114.347656 184.074219 L 102.425781 187.816406 L 118.679688 195.621094 Z M 130.765625 191.53125 " clip-rule="evenodd"/></clipPath><linearGradient x1="-2.414581" gradientTransform="matrix(0.410538, 0, 0, 0.411865, 102.42647, 110.488827)" y1="167.566932" x2="368.199888" gradientUnits="userSpaceOnUse" y2="198.815908" id="c34beb87ca"><stop stop-opacity="1" stop-color="rgb(4.299927%, 28.375244%, 50.68512%)" offset="0"/><stop stop-opacity="1" stop-color="rgb(4.299927%, 28.263855%, 50.628662%)" offset="0.0170644"/><stop stop-opacity="1" stop-color="rgb(4.299927%, 28.153992%, 50.572205%)" offset="0.0625"/><stop stop-opacity="1" stop-color="rgb(4.299927%, 28.004456%, 50.485229%)" offset="0.125"/><stop stop-opacity="1" stop-color="rgb(4.299927%, 27.706909%, 50.309753%)" offset="0.1875"/><stop stop-opacity="1" stop-color="rgb(4.299927%, 27.409363%, 50.135803%)" offset="0.25"/><stop stop-opacity="1" stop-color="rgb(4.299927%, 27.111816%, 49.961853%)" offset="0.3125"/><stop stop-opacity="1" stop-color="rgb(4.299927%, 26.81427%, 49.786377%)" offset="0.375"/><stop stop-opacity="1" stop-color="rgb(4.299927%, 26.516724%, 49.612427%)" offset="0.4375"/><stop stop-opacity="1" stop-color="rgb(4.299927%, 26.219177%, 49.436951%)" offset="0.5"/><stop stop-opacity="1" stop-color="rgb(4.299927%, 25.921631%, 49.263%)" offset="0.5625"/><stop stop-opacity="1" stop-color="rgb(4.299927%, 25.624084%, 49.087524%)" offset="0.625"/><stop stop-opacity="1" stop-color="rgb(4.299927%, 25.326538%, 48.913574%)" offset="0.6875"/><stop stop-opacity="1" stop-color="rgb(4.299927%, 25.028992%, 48.738098%)" offset="0.75"/><stop stop-opacity="1" stop-color="rgb(4.299927%, 24.731445%, 48.564148%)" offset="0.8125"/><stop stop-opacity="1" stop-color="rgb(4.299927%, 24.433899%, 48.390198%)" offset="0.875"/><stop stop-opacity="1" stop-color="rgb(4.299927%, 24.136353%, 48.214722%)" offset="0.9375"/><stop stop-opacity="1" stop-color="rgb(4.299927%, 23.838806%, 48.040771%)" offset="0.982936"/><stop stop-opacity="1" stop-color="rgb(4.299927%, 23.690796%, 47.953796%)" offset="1"/></linearGradient></defs><g clip-path="url(#12dce71ebc)"><g clip-path="url(#ba75fb75d7)"><path fill="url(#aa8728f96e)" d="M 140.324219 110.488281 L 140.324219 192.414062 L 272.675781 192.414062 L 272.675781 110.488281 Z M 140.324219 110.488281 " fill-rule="nonzero"/></g></g><g clip-path="url(#0a14185478)"><g clip-path="url(#a59468c66b)"><path fill="url(#c34beb87ca)" d="M 102.425781 167.710938 L 102.425781 198.820312 L 253.042969 198.820312 L 253.042969 167.710938 Z M 102.425781 167.710938 " fill-rule="nonzero"/></g></g><g fill="#000000" fill-opacity="1"><g transform="translate(44.484377, 237.537875)"><g><path d="M 22.890625 -27.875 C 22.890625 -27.632812 22.804688 -27.421875 22.640625 -27.234375 C 22.472656 -27.054688 22.253906 -26.96875 21.984375 -26.96875 L 10.125 -26.96875 C 9.882812 -26.96875 9.671875 -26.882812 9.484375 -26.71875 C 9.304688 -26.550781 9.21875 -26.347656 9.21875 -26.109375 C 9.21875 -25.171875 9.207031 -24.125 9.1875 -22.96875 C 9.175781 -21.820312 9.15625 -20.566406 9.125 -19.203125 C 9.125 -18.960938 9.210938 -18.75 9.390625 -18.5625 C 9.578125 -18.382812 9.789062 -18.296875 10.03125 -18.296875 L 19.609375 -18.296875 C 19.859375 -18.296875 20.070312 -18.203125 20.25 -18.015625 C 20.4375 -17.835938 20.53125 -17.628906 20.53125 -17.390625 L 20.53125 -14.390625 C 20.53125 -14.148438 20.4375 -13.9375 20.25 -13.75 C 20.070312 -13.570312 19.859375 -13.484375 19.609375 -13.484375 L 10.03125 -13.484375 C 9.789062 -13.484375 9.578125 -13.390625 9.390625 -13.203125 C 9.210938 -13.023438 9.125 -12.816406 9.125 -12.578125 C 9.15625 -11.210938 9.175781 -9.953125 9.1875 -8.796875 C 9.207031 -7.648438 9.21875 -6.609375 9.21875 -5.671875 C 9.21875 -5.429688 9.304688 -5.226562 9.484375 -5.0625 C 9.671875 -4.894531 9.882812 -4.8125 10.125 -4.8125 L 21.984375 -4.8125 C 22.253906 -4.8125 22.472656 -4.71875 22.640625 -4.53125 C 22.804688 -4.351562 22.890625 -4.144531 22.890625 -3.90625 L 22.890625 -0.90625 C 22.890625 -0.664062 22.804688 -0.453125 22.640625 -0.265625 C 22.472656 -0.0859375 22.253906 0 21.984375 0 L 3.171875 0 C 2.898438 0 2.679688 -0.0859375 2.515625 -0.265625 C 2.347656 -0.453125 2.265625 -0.664062 2.265625 -0.90625 C 2.296875 -1.90625 2.34375 -3.664062 2.40625 -6.1875 C 2.46875 -8.71875 2.5 -11.953125 2.5 -15.890625 C 2.5 -19.859375 2.46875 -23.097656 2.40625 -25.609375 C 2.34375 -28.117188 2.296875 -29.875 2.265625 -30.875 C 2.265625 -31.113281 2.347656 -31.320312 2.515625 -31.5 C 2.679688 -31.6875 2.898438 -31.78125 3.171875 -31.78125 L 21.984375 -31.78125 C 22.253906 -31.78125 22.472656 -31.6875 22.640625 -31.5 C 22.804688 -31.320312 22.890625 -31.113281 22.890625 -30.875 Z M 22.890625 -27.875 "/></g></g></g><g fill="#000000" fill-opacity="1"><g transform="translate(69.680466, 237.537875)"><g><path d="M 24.65625 -15.890625 C 24.65625 -11.953125 24.675781 -8.71875 24.71875 -6.1875 C 24.769531 -3.664062 24.820312 -1.90625 24.875 -0.90625 C 24.875 -0.664062 24.785156 -0.453125 24.609375 -0.265625 C 24.429688 -0.0859375 24.21875 0 23.96875 0 L 14.4375 0 C 13.894531 0 13.59375 -0.253906 13.53125 -0.765625 C 13.40625 -1.703125 13.140625 -3.441406 12.734375 -5.984375 C 12.328125 -8.535156 11.773438 -11.835938 11.078125 -15.890625 C 10.867188 -17.066406 10.664062 -18.175781 10.46875 -19.21875 C 10.269531 -20.269531 10.082031 -21.25 9.90625 -22.15625 C 9.875 -22.394531 9.742188 -22.5 9.515625 -22.46875 C 9.285156 -22.445312 9.171875 -22.328125 9.171875 -22.109375 C 9.171875 -21.203125 9.160156 -20.234375 9.140625 -19.203125 C 9.128906 -18.171875 9.125 -17.066406 9.125 -15.890625 C 9.125 -11.953125 9.15625 -8.71875 9.21875 -6.1875 C 9.28125 -3.664062 9.328125 -1.90625 9.359375 -0.90625 C 9.359375 -0.664062 9.273438 -0.453125 9.109375 -0.265625 C 8.941406 -0.0859375 8.722656 0 8.453125 0 L 3.171875 0 C 2.898438 0 2.679688 -0.0859375 2.515625 -0.265625 C 2.347656 -0.453125 2.265625 -0.664062 2.265625 -0.90625 C 2.296875 -1.90625 2.34375 -3.664062 2.40625 -6.1875 C 2.46875 -8.71875 2.5 -11.953125 2.5 -15.890625 C 2.5 -19.859375 2.46875 -23.097656 2.40625 -25.609375 C 2.34375 -28.117188 2.296875 -29.875 2.265625 -30.875 C 2.265625 -31.113281 2.347656 -31.320312 2.515625 -31.5 C 2.679688 -31.6875 2.898438 -31.78125 3.171875 -31.78125 L 12.71875 -31.78125 C 13.226562 -31.78125 13.53125 -31.523438 13.625 -31.015625 C 13.738281 -30.109375 13.992188 -28.375 14.390625 -25.8125 C 14.785156 -23.257812 15.347656 -19.953125 16.078125 -15.890625 C 16.285156 -14.742188 16.488281 -13.640625 16.6875 -12.578125 C 16.882812 -11.515625 17.054688 -10.53125 17.203125 -9.625 C 17.265625 -9.382812 17.410156 -9.28125 17.640625 -9.3125 C 17.867188 -9.34375 17.984375 -9.460938 17.984375 -9.671875 C 17.984375 -10.578125 17.988281 -11.550781 18 -12.59375 C 18.019531 -13.644531 18.03125 -14.742188 18.03125 -15.890625 C 18.03125 -19.859375 18 -23.097656 17.9375 -25.609375 C 17.875 -28.117188 17.828125 -29.875 17.796875 -30.875 C 17.765625 -31.113281 17.835938 -31.320312 18.015625 -31.5 C 18.203125 -31.6875 18.414062 -31.78125 18.65625 -31.78125 L 23.96875 -31.78125 C 24.21875 -31.78125 24.429688 -31.6875 24.609375 -31.5 C 24.785156 -31.320312 24.875 -31.113281 24.875 -30.875 C 24.820312 -29.875 24.769531 -28.117188 24.71875 -25.609375 C 24.675781 -23.097656 24.65625 -19.859375 24.65625 -15.890625 Z M 24.65625 -15.890625 "/></g></g></g><g fill="#000000" fill-opacity="1"><g transform="translate(96.828677, 237.537875)"><g><path d="M 22.890625 -27.875 C 22.890625 -27.632812 22.804688 -27.421875 22.640625 -27.234375 C 22.472656 -27.054688 22.253906 -26.96875 21.984375 -26.96875 L 10.125 -26.96875 C 9.882812 -26.96875 9.671875 -26.882812 9.484375 -26.71875 C 9.304688 -26.550781 9.21875 -26.347656 9.21875 -26.109375 C 9.21875 -25.171875 9.207031 -24.125 9.1875 -22.96875 C 9.175781 -21.820312 9.15625 -20.566406 9.125 -19.203125 C 9.125 -18.960938 9.210938 -18.75 9.390625 -18.5625 C 9.578125 -18.382812 9.789062 -18.296875 10.03125 -18.296875 L 19.609375 -18.296875 C 19.859375 -18.296875 20.070312 -18.203125 20.25 -18.015625 C 20.4375 -17.835938 20.53125 -17.628906 20.53125 -17.390625 L 20.53125 -14.390625 C 20.53125 -14.148438 20.4375 -13.9375 20.25 -13.75 C 20.070312 -13.570312 19.859375 -13.484375 19.609375 -13.484375 L 10.03125 -13.484375 C 9.789062 -13.484375 9.578125 -13.390625 9.390625 -13.203125 C 9.210938 -13.023438 9.125 -12.816406 9.125 -12.578125 C 9.15625 -11.210938 9.175781 -9.953125 9.1875 -8.796875 C 9.207031 -7.648438 9.21875 -6.609375 9.21875 -5.671875 C 9.21875 -5.429688 9.304688 -5.226562 9.484375 -5.0625 C 9.671875 -4.894531 9.882812 -4.8125 10.125 -4.8125 L 21.984375 -4.8125 C 22.253906 -4.8125 22.472656 -4.71875 22.640625 -4.53125 C 22.804688 -4.351562 22.890625 -4.144531 22.890625 -3.90625 L 22.890625 -0.90625 C 22.890625 -0.664062 22.804688 -0.453125 22.640625 -0.265625 C 22.472656 -0.0859375 22.253906 0 21.984375 0 L 3.171875 0 C 2.898438 0 2.679688 -0.0859375 2.515625 -0.265625 C 2.347656 -0.453125 2.265625 -0.664062 2.265625 -0.90625 C 2.296875 -1.90625 2.34375 -3.664062 2.40625 -6.1875 C 2.46875 -8.71875 2.5 -11.953125 2.5 -15.890625 C 2.5 -19.859375 2.46875 -23.097656 2.40625 -25.609375 C 2.34375 -28.117188 2.296875 -29.875 2.265625 -30.875 C 2.265625 -31.113281 2.347656 -31.320312 2.515625 -31.5 C 2.679688 -31.6875 2.898438 -31.78125 3.171875 -31.78125 L 21.984375 -31.78125 C 22.253906 -31.78125 22.472656 -31.6875 22.640625 -31.5 C 22.804688 -31.320312 22.890625 -31.113281 22.890625 -30.875 Z M 22.890625 -27.875 "/></g></g></g><g fill="#000000" fill-opacity="1"><g transform="translate(122.024766, 237.537875)"><g><path d="M 23.34375 0 L 17.578125 0 C 17.328125 0 17.113281 -0.0859375 16.9375 -0.265625 C 16.757812 -0.453125 16.671875 -0.664062 16.671875 -0.90625 L 16.671875 -7.90625 C 16.671875 -8.59375 16.5625 -9.269531 16.34375 -9.9375 C 16.132812 -10.601562 15.75 -11.15625 15.1875 -11.59375 C 14.625 -12.039062 13.84375 -12.265625 12.84375 -12.265625 L 10.03125 -12.265625 C 9.789062 -12.265625 9.578125 -12.171875 9.390625 -11.984375 C 9.210938 -11.804688 9.140625 -11.597656 9.171875 -11.359375 C 9.171875 -8.691406 9.191406 -6.476562 9.234375 -4.71875 C 9.285156 -2.96875 9.328125 -1.695312 9.359375 -0.90625 C 9.359375 -0.664062 9.273438 -0.453125 9.109375 -0.265625 C 8.941406 -0.0859375 8.722656 0 8.453125 0 L 3.171875 0 C 2.898438 0 2.679688 -0.0859375 2.515625 -0.265625 C 2.347656 -0.453125 2.265625 -0.664062 2.265625 -0.90625 C 2.296875 -1.90625 2.34375 -3.664062 2.40625 -6.1875 C 2.46875 -8.71875 2.5 -11.953125 2.5 -15.890625 C 2.5 -19.859375 2.46875 -23.097656 2.40625 -25.609375 C 2.34375 -28.117188 2.296875 -29.875 2.265625 -30.875 C 2.265625 -31.113281 2.347656 -31.320312 2.515625 -31.5 C 2.679688 -31.6875 2.898438 -31.78125 3.171875 -31.78125 L 13.03125 -31.78125 C 14.507812 -31.78125 15.914062 -31.644531 17.25 -31.375 C 18.582031 -31.101562 19.765625 -30.617188 20.796875 -29.921875 C 21.828125 -29.222656 22.632812 -28.253906 23.21875 -27.015625 C 23.8125 -25.773438 24.109375 -24.1875 24.109375 -22.25 C 24.109375 -20.457031 23.707031 -18.976562 22.90625 -17.8125 C 22.101562 -16.65625 21.066406 -15.742188 19.796875 -15.078125 C 19.671875 -15.015625 19.609375 -14.90625 19.609375 -14.75 C 19.609375 -14.601562 19.6875 -14.484375 19.84375 -14.390625 C 20.988281 -13.847656 21.941406 -13.050781 22.703125 -12 C 23.460938 -10.957031 23.84375 -9.59375 23.84375 -7.90625 C 23.84375 -6.269531 23.882812 -4.867188 23.96875 -3.703125 C 24.0625 -2.535156 24.15625 -1.632812 24.25 -1 C 24.28125 -0.726562 24.203125 -0.492188 24.015625 -0.296875 C 23.835938 -0.0976562 23.613281 0 23.34375 0 Z M 13.125 -26.96875 L 10.125 -26.96875 C 9.882812 -26.96875 9.671875 -26.882812 9.484375 -26.71875 C 9.304688 -26.550781 9.21875 -26.347656 9.21875 -26.109375 C 9.21875 -25.015625 9.203125 -23.796875 9.171875 -22.453125 C 9.140625 -21.109375 9.125 -19.617188 9.125 -17.984375 C 9.125 -17.710938 9.210938 -17.492188 9.390625 -17.328125 C 9.578125 -17.160156 9.789062 -17.078125 10.03125 -17.078125 L 13.125 -17.078125 C 14.125 -17.078125 14.898438 -17.363281 15.453125 -17.9375 C 16.015625 -18.507812 16.398438 -19.195312 16.609375 -20 C 16.828125 -20.800781 16.9375 -21.550781 16.9375 -22.25 C 16.9375 -23.457031 16.71875 -24.398438 16.28125 -25.078125 C 15.84375 -25.765625 15.328125 -26.25 14.734375 -26.53125 C 14.140625 -26.820312 13.601562 -26.96875 13.125 -26.96875 Z M 13.125 -26.96875 "/></g></g></g><g fill="#000000" fill-opacity="1"><g transform="translate(148.537406, 237.537875)"><g><path d="M 13.390625 -15.890625 C 13.390625 -16.128906 13.472656 -16.335938 13.640625 -16.515625 C 13.804688 -16.703125 14.007812 -16.796875 14.25 -16.796875 L 23.515625 -16.796875 C 23.765625 -16.796875 23.972656 -16.703125 24.140625 -16.515625 C 24.304688 -16.335938 24.390625 -16.128906 24.390625 -15.890625 L 24.390625 -9.578125 C 24.390625 -7.640625 24.039062 -5.921875 23.34375 -4.421875 C 22.644531 -2.921875 21.484375 -1.738281 19.859375 -0.875 C 18.242188 -0.0195312 16.070312 0.40625 13.34375 0.40625 C 10.5625 0.40625 8.359375 -0.078125 6.734375 -1.046875 C 5.117188 -2.015625 3.96875 -3.257812 3.28125 -4.78125 C 2.601562 -6.3125 2.265625 -7.910156 2.265625 -9.578125 C 2.265625 -10.210938 2.28125 -10.816406 2.3125 -11.390625 C 2.34375 -11.972656 2.378906 -12.609375 2.421875 -13.296875 C 2.472656 -13.992188 2.5 -14.859375 2.5 -15.890625 C 2.5 -16.921875 2.472656 -17.785156 2.421875 -18.484375 C 2.378906 -19.179688 2.34375 -19.816406 2.3125 -20.390625 C 2.28125 -20.960938 2.265625 -21.566406 2.265625 -22.203125 C 2.265625 -24.140625 2.617188 -25.859375 3.328125 -27.359375 C 4.046875 -28.859375 5.207031 -30.035156 6.8125 -30.890625 C 8.414062 -31.753906 10.59375 -32.1875 13.34375 -32.1875 C 15.914062 -32.1875 17.988281 -31.753906 19.5625 -30.890625 C 21.144531 -30.035156 22.3125 -28.925781 23.0625 -27.5625 C 23.820312 -26.195312 24.265625 -24.742188 24.390625 -23.203125 C 24.390625 -22.929688 24.304688 -22.695312 24.140625 -22.5 C 23.972656 -22.300781 23.75 -22.203125 23.46875 -22.203125 L 18.109375 -22.203125 C 17.566406 -22.203125 17.265625 -22.488281 17.203125 -23.0625 C 17.171875 -23.582031 17.054688 -24.179688 16.859375 -24.859375 C 16.671875 -25.535156 16.3125 -26.125 15.78125 -26.625 C 15.25 -27.125 14.46875 -27.375 13.4375 -27.375 C 12.226562 -27.375 11.335938 -27.101562 10.765625 -26.5625 C 10.191406 -26.019531 9.828125 -25.347656 9.671875 -24.546875 C 9.515625 -23.742188 9.4375 -22.960938 9.4375 -22.203125 L 9.4375 -9.578125 C 9.4375 -9.304688 9.457031 -8.890625 9.5 -8.328125 C 9.550781 -7.765625 9.691406 -7.179688 9.921875 -6.578125 C 10.148438 -5.972656 10.523438 -5.457031 11.046875 -5.03125 C 11.578125 -4.613281 12.316406 -4.40625 13.265625 -4.40625 C 14.441406 -4.40625 15.347656 -4.675781 15.984375 -5.21875 C 16.617188 -5.757812 17.039062 -6.429688 17.25 -7.234375 C 17.46875 -8.046875 17.578125 -8.828125 17.578125 -9.578125 C 17.578125 -10.066406 17.578125 -10.582031 17.578125 -11.125 C 17.546875 -11.363281 17.445312 -11.566406 17.28125 -11.734375 C 17.113281 -11.898438 16.910156 -11.984375 16.671875 -11.984375 L 14.25 -11.984375 C 14.007812 -11.984375 13.804688 -12.066406 13.640625 -12.234375 C 13.472656 -12.398438 13.390625 -12.617188 13.390625 -12.890625 Z M 13.390625 -15.890625 "/></g></g></g><g fill="#000000" fill-opacity="1"><g transform="translate(175.231641, 237.537875)"><g><path d="M 9.4375 -23.015625 C 9.4375 -22.078125 9.800781 -21.328125 10.53125 -20.765625 C 11.257812 -20.210938 12.207031 -19.726562 13.375 -19.3125 C 14.539062 -18.90625 15.773438 -18.472656 17.078125 -18.015625 C 18.378906 -17.566406 19.609375 -16.988281 20.765625 -16.28125 C 21.929688 -15.570312 22.878906 -14.617188 23.609375 -13.421875 C 24.335938 -12.222656 24.703125 -10.671875 24.703125 -8.765625 C 24.703125 -6.828125 24.351562 -5.164062 23.65625 -3.78125 C 22.957031 -2.40625 21.796875 -1.351562 20.171875 -0.625 C 18.554688 0.09375 16.390625 0.453125 13.671875 0.453125 C 11.066406 0.453125 8.945312 0.03125 7.3125 -0.8125 C 5.675781 -1.664062 4.457031 -2.78125 3.65625 -4.15625 C 2.851562 -5.53125 2.390625 -6.988281 2.265625 -8.53125 C 2.234375 -8.78125 2.304688 -9 2.484375 -9.1875 C 2.671875 -9.382812 2.898438 -9.484375 3.171875 -9.484375 L 8.53125 -9.484375 C 9.082031 -9.484375 9.375 -9.210938 9.40625 -8.671875 C 9.457031 -8.128906 9.613281 -7.523438 9.875 -6.859375 C 10.132812 -6.191406 10.554688 -5.609375 11.140625 -5.109375 C 11.734375 -4.609375 12.546875 -4.359375 13.578125 -4.359375 C 14.785156 -4.359375 15.671875 -4.5625 16.234375 -4.96875 C 16.796875 -5.375 17.160156 -5.914062 17.328125 -6.59375 C 17.492188 -7.28125 17.578125 -8.003906 17.578125 -8.765625 C 17.578125 -9.734375 17.203125 -10.503906 16.453125 -11.078125 C 15.710938 -11.648438 14.757812 -12.140625 13.59375 -12.546875 C 12.425781 -12.960938 11.191406 -13.394531 9.890625 -13.84375 C 8.597656 -14.300781 7.375 -14.882812 6.21875 -15.59375 C 5.070312 -16.3125 4.125 -17.257812 3.375 -18.4375 C 2.632812 -19.613281 2.265625 -21.140625 2.265625 -23.015625 C 2.265625 -24.953125 2.617188 -26.609375 3.328125 -27.984375 C 4.046875 -29.367188 5.207031 -30.421875 6.8125 -31.140625 C 8.414062 -31.867188 10.59375 -32.234375 13.34375 -32.234375 C 15.914062 -32.234375 17.988281 -31.8125 19.5625 -30.96875 C 21.144531 -30.125 22.3125 -29.007812 23.0625 -27.625 C 23.820312 -26.25 24.265625 -24.789062 24.390625 -23.25 C 24.390625 -23.007812 24.304688 -22.789062 24.140625 -22.59375 C 23.972656 -22.394531 23.75 -22.296875 23.46875 -22.296875 L 18.109375 -22.296875 C 17.566406 -22.296875 17.265625 -22.566406 17.203125 -23.109375 C 17.171875 -23.648438 17.054688 -24.253906 16.859375 -24.921875 C 16.671875 -25.585938 16.3125 -26.171875 15.78125 -26.671875 C 15.25 -27.171875 14.46875 -27.421875 13.4375 -27.421875 C 12.226562 -27.421875 11.335938 -27.21875 10.765625 -26.8125 C 10.191406 -26.40625 9.828125 -25.859375 9.671875 -25.171875 C 9.515625 -24.492188 9.4375 -23.773438 9.4375 -23.015625 Z M 9.4375 -23.015625 "/></g></g></g><g fill="#000000" fill-opacity="1"><g transform="translate(202.243656, 237.537875)"><g><path d="M 20.5625 -22.0625 C 19.65625 -20.007812 18.914062 -18.269531 18.34375 -16.84375 C 17.769531 -15.425781 17.332031 -14.351562 17.03125 -13.625 C 16.84375 -13.164062 16.75 -12.695312 16.75 -12.21875 C 16.71875 -11.613281 16.6875 -10.894531 16.65625 -10.0625 C 16.632812 -9.226562 16.625 -8.28125 16.625 -7.21875 C 16.625 -5.707031 16.644531 -4.425781 16.6875 -3.375 C 16.726562 -2.332031 16.765625 -1.523438 16.796875 -0.953125 C 16.828125 -0.679688 16.75 -0.453125 16.5625 -0.265625 C 16.382812 -0.0859375 16.160156 0 15.890625 0 L 10.71875 0 C 10.445312 0 10.21875 -0.0859375 10.03125 -0.265625 C 9.851562 -0.453125 9.78125 -0.679688 9.8125 -0.953125 C 9.84375 -1.523438 9.878906 -2.332031 9.921875 -3.375 C 9.960938 -4.425781 9.984375 -5.707031 9.984375 -7.21875 C 9.984375 -8.28125 9.96875 -9.226562 9.9375 -10.0625 C 9.914062 -10.894531 9.890625 -11.613281 9.859375 -12.21875 C 9.859375 -12.695312 9.765625 -13.164062 9.578125 -13.625 C 9.273438 -14.351562 8.835938 -15.425781 8.265625 -16.84375 C 7.691406 -18.269531 6.945312 -20.007812 6.03125 -22.0625 C 5.125 -24.09375 4.335938 -25.8125 3.671875 -27.21875 C 3.003906 -28.625 2.492188 -29.722656 2.140625 -30.515625 C 1.984375 -30.785156 1.992188 -31.0625 2.171875 -31.34375 C 2.359375 -31.632812 2.617188 -31.78125 2.953125 -31.78125 L 7.984375 -31.78125 C 8.410156 -31.78125 8.703125 -31.570312 8.859375 -31.15625 C 9.035156 -30.507812 9.375 -29.421875 9.875 -27.890625 C 10.375 -26.367188 11.046875 -24.425781 11.890625 -22.0625 C 12.253906 -21.0625 12.601562 -20.109375 12.9375 -19.203125 C 13 -19.023438 13.117188 -18.9375 13.296875 -18.9375 C 13.484375 -18.9375 13.609375 -19.023438 13.671875 -19.203125 C 14.003906 -20.109375 14.351562 -21.0625 14.71875 -22.0625 C 15.5625 -24.425781 16.234375 -26.367188 16.734375 -27.890625 C 17.234375 -29.421875 17.570312 -30.507812 17.75 -31.15625 C 17.90625 -31.570312 18.191406 -31.78125 18.609375 -31.78125 L 23.65625 -31.78125 C 23.988281 -31.78125 24.242188 -31.632812 24.421875 -31.34375 C 24.609375 -31.0625 24.625 -30.785156 24.46875 -30.515625 C 24.101562 -29.722656 23.585938 -28.625 22.921875 -27.21875 C 22.265625 -25.8125 21.476562 -24.09375 20.5625 -22.0625 Z M 20.5625 -22.0625 "/></g></g></g><g fill="#000000" fill-opacity="1"><g transform="translate(228.892492, 237.537875)"><g><path d="M 9.4375 -23.015625 C 9.4375 -22.078125 9.800781 -21.328125 10.53125 -20.765625 C 11.257812 -20.210938 12.207031 -19.726562 13.375 -19.3125 C 14.539062 -18.90625 15.773438 -18.472656 17.078125 -18.015625 C 18.378906 -17.566406 19.609375 -16.988281 20.765625 -16.28125 C 21.929688 -15.570312 22.878906 -14.617188 23.609375 -13.421875 C 24.335938 -12.222656 24.703125 -10.671875 24.703125 -8.765625 C 24.703125 -6.828125 24.351562 -5.164062 23.65625 -3.78125 C 22.957031 -2.40625 21.796875 -1.351562 20.171875 -0.625 C 18.554688 0.09375 16.390625 0.453125 13.671875 0.453125 C 11.066406 0.453125 8.945312 0.03125 7.3125 -0.8125 C 5.675781 -1.664062 4.457031 -2.78125 3.65625 -4.15625 C 2.851562 -5.53125 2.390625 -6.988281 2.265625 -8.53125 C 2.234375 -8.78125 2.304688 -9 2.484375 -9.1875 C 2.671875 -9.382812 2.898438 -9.484375 3.171875 -9.484375 L 8.53125 -9.484375 C 9.082031 -9.484375 9.375 -9.210938 9.40625 -8.671875 C 9.457031 -8.128906 9.613281 -7.523438 9.875 -6.859375 C 10.132812 -6.191406 10.554688 -5.609375 11.140625 -5.109375 C 11.734375 -4.609375 12.546875 -4.359375 13.578125 -4.359375 C 14.785156 -4.359375 15.671875 -4.5625 16.234375 -4.96875 C 16.796875 -5.375 17.160156 -5.914062 17.328125 -6.59375 C 17.492188 -7.28125 17.578125 -8.003906 17.578125 -8.765625 C 17.578125 -9.734375 17.203125 -10.503906 16.453125 -11.078125 C 15.710938 -11.648438 14.757812 -12.140625 13.59375 -12.546875 C 12.425781 -12.960938 11.191406 -13.394531 9.890625 -13.84375 C 8.597656 -14.300781 7.375 -14.882812 6.21875 -15.59375 C 5.070312 -16.3125 4.125 -17.257812 3.375 -18.4375 C 2.632812 -19.613281 2.265625 -21.140625 2.265625 -23.015625 C 2.265625 -24.953125 2.617188 -26.609375 3.328125 -27.984375 C 4.046875 -29.367188 5.207031 -30.421875 6.8125 -31.140625 C 8.414062 -31.867188 10.59375 -32.234375 13.34375 -32.234375 C 15.914062 -32.234375 17.988281 -31.8125 19.5625 -30.96875 C 21.144531 -30.125 22.3125 -29.007812 23.0625 -27.625 C 23.820312 -26.25 24.265625 -24.789062 24.390625 -23.25 C 24.390625 -23.007812 24.304688 -22.789062 24.140625 -22.59375 C 23.972656 -22.394531 23.75 -22.296875 23.46875 -22.296875 L 18.109375 -22.296875 C 17.566406 -22.296875 17.265625 -22.566406 17.203125 -23.109375 C 17.171875 -23.648438 17.054688 -24.253906 16.859375 -24.921875 C 16.671875 -25.585938 16.3125 -26.171875 15.78125 -26.671875 C 15.25 -27.171875 14.46875 -27.421875 13.4375 -27.421875 C 12.226562 -27.421875 11.335938 -27.21875 10.765625 -26.8125 C 10.191406 -26.40625 9.828125 -25.859375 9.671875 -25.171875 C 9.515625 -24.492188 9.4375 -23.773438 9.4375 -23.015625 Z M 9.4375 -23.015625 "/></g></g></g><g fill="#000000" fill-opacity="1"><g transform="translate(255.904507, 237.537875)"><g><path d="M 24.46875 -27.875 C 24.46875 -27.632812 24.375 -27.421875 24.1875 -27.234375 C 24.007812 -27.054688 23.800781 -26.96875 23.5625 -26.96875 L 17.65625 -26.96875 C 17.414062 -26.96875 17.210938 -26.882812 17.046875 -26.71875 C 16.878906 -26.550781 16.796875 -26.347656 16.796875 -26.109375 C 16.765625 -24.804688 16.738281 -23.304688 16.71875 -21.609375 C 16.707031 -19.921875 16.703125 -18.015625 16.703125 -15.890625 C 16.703125 -11.953125 16.722656 -8.71875 16.765625 -6.1875 C 16.816406 -3.664062 16.859375 -1.90625 16.890625 -0.90625 C 16.921875 -0.664062 16.84375 -0.453125 16.65625 -0.265625 C 16.476562 -0.0859375 16.269531 0 16.03125 0 L 10.71875 0 C 10.476562 0 10.265625 -0.0859375 10.078125 -0.265625 C 9.898438 -0.453125 9.8125 -0.664062 9.8125 -0.90625 C 9.875 -1.90625 9.925781 -3.664062 9.96875 -6.1875 C 10.007812 -8.71875 10.03125 -11.953125 10.03125 -15.890625 C 10.03125 -18.015625 10.019531 -19.921875 10 -21.609375 C 9.988281 -23.304688 9.96875 -24.804688 9.9375 -26.109375 C 9.9375 -26.347656 9.851562 -26.550781 9.6875 -26.71875 C 9.519531 -26.882812 9.300781 -26.96875 9.03125 -26.96875 L 3.171875 -26.96875 C 2.929688 -26.96875 2.71875 -27.054688 2.53125 -27.234375 C 2.351562 -27.421875 2.265625 -27.632812 2.265625 -27.875 L 2.265625 -30.875 C 2.265625 -31.113281 2.351562 -31.320312 2.53125 -31.5 C 2.71875 -31.6875 2.929688 -31.78125 3.171875 -31.78125 L 23.5625 -31.78125 C 23.800781 -31.78125 24.007812 -31.6875 24.1875 -31.5 C 24.375 -31.320312 24.46875 -31.113281 24.46875 -30.875 Z M 24.46875 -27.875 "/></g></g></g><g fill="#000000" fill-opacity="1"><g transform="translate(282.644153, 237.537875)"><g><path d="M 22.890625 -27.875 C 22.890625 -27.632812 22.804688 -27.421875 22.640625 -27.234375 C 22.472656 -27.054688 22.253906 -26.96875 21.984375 -26.96875 L 10.125 -26.96875 C 9.882812 -26.96875 9.671875 -26.882812 9.484375 -26.71875 C 9.304688 -26.550781 9.21875 -26.347656 9.21875 -26.109375 C 9.21875 -25.171875 9.207031 -24.125 9.1875 -22.96875 C 9.175781 -21.820312 9.15625 -20.566406 9.125 -19.203125 C 9.125 -18.960938 9.210938 -18.75 9.390625 -18.5625 C 9.578125 -18.382812 9.789062 -18.296875 10.03125 -18.296875 L 19.609375 -18.296875 C 19.859375 -18.296875 20.070312 -18.203125 20.25 -18.015625 C 20.4375 -17.835938 20.53125 -17.628906 20.53125 -17.390625 L 20.53125 -14.390625 C 20.53125 -14.148438 20.4375 -13.9375 20.25 -13.75 C 20.070312 -13.570312 19.859375 -13.484375 19.609375 -13.484375 L 10.03125 -13.484375 C 9.789062 -13.484375 9.578125 -13.390625 9.390625 -13.203125 C 9.210938 -13.023438 9.125 -12.816406 9.125 -12.578125 C 9.15625 -11.210938 9.175781 -9.953125 9.1875 -8.796875 C 9.207031 -7.648438 9.21875 -6.609375 9.21875 -5.671875 C 9.21875 -5.429688 9.304688 -5.226562 9.484375 -5.0625 C 9.671875 -4.894531 9.882812 -4.8125 10.125 -4.8125 L 21.984375 -4.8125 C 22.253906 -4.8125 22.472656 -4.71875 22.640625 -4.53125 C 22.804688 -4.351562 22.890625 -4.144531 22.890625 -3.90625 L 22.890625 -0.90625 C 22.890625 -0.664062 22.804688 -0.453125 22.640625 -0.265625 C 22.472656 -0.0859375 22.253906 0 21.984375 0 L 3.171875 0 C 2.898438 0 2.679688 -0.0859375 2.515625 -0.265625 C 2.347656 -0.453125 2.265625 -0.664062 2.265625 -0.90625 C 2.296875 -1.90625 2.34375 -3.664062 2.40625 -6.1875 C 2.46875 -8.71875 2.5 -11.953125 2.5 -15.890625 C 2.5 -19.859375 2.46875 -23.097656 2.40625 -25.609375 C 2.34375 -28.117188 2.296875 -29.875 2.265625 -30.875 C 2.265625 -31.113281 2.347656 -31.320312 2.515625 -31.5 C 2.679688 -31.6875 2.898438 -31.78125 3.171875 -31.78125 L 21.984375 -31.78125 C 22.253906 -31.78125 22.472656 -31.6875 22.640625 -31.5 C 22.804688 -31.320312 22.890625 -31.113281 22.890625 -30.875 Z M 22.890625 -27.875 "/></g></g></g><g fill="#000000" fill-opacity="1"><g transform="translate(307.840242, 237.537875)"><g><path d="M 33.828125 -31.78125 C 34.066406 -31.78125 34.273438 -31.6875 34.453125 -31.5 C 34.640625 -31.320312 34.734375 -31.113281 34.734375 -30.875 C 34.703125 -29.875 34.65625 -28.117188 34.59375 -25.609375 C 34.539062 -23.097656 34.515625 -19.859375 34.515625 -15.890625 C 34.515625 -11.953125 34.539062 -8.71875 34.59375 -6.1875 C 34.65625 -3.664062 34.703125 -1.90625 34.734375 -0.90625 C 34.734375 -0.664062 34.640625 -0.453125 34.453125 -0.265625 C 34.273438 -0.0859375 34.066406 0 33.828125 0 L 28.515625 0 C 28.273438 0 28.0625 -0.0859375 27.875 -0.265625 C 27.695312 -0.453125 27.625 -0.664062 27.65625 -0.90625 C 27.6875 -1.90625 27.726562 -3.664062 27.78125 -6.1875 C 27.84375 -8.71875 27.875 -11.953125 27.875 -15.890625 C 27.875 -17.796875 27.863281 -19.523438 27.84375 -21.078125 C 27.832031 -22.640625 27.8125 -24.046875 27.78125 -25.296875 C 27.78125 -25.535156 27.664062 -25.660156 27.4375 -25.671875 C 27.21875 -25.691406 27.078125 -25.582031 27.015625 -25.34375 C 26.804688 -24.125 26.5625 -22.71875 26.28125 -21.125 C 26.007812 -19.539062 25.722656 -17.796875 25.421875 -15.890625 C 24.785156 -11.867188 24.285156 -8.578125 23.921875 -6.015625 C 23.566406 -3.453125 23.34375 -1.703125 23.25 -0.765625 C 23.15625 -0.253906 22.851562 0 22.34375 0 L 14.671875 0 C 14.117188 0 13.816406 -0.253906 13.765625 -0.765625 C 13.640625 -1.703125 13.398438 -3.453125 13.046875 -6.015625 C 12.703125 -8.578125 12.195312 -11.867188 11.53125 -15.890625 C 11.226562 -17.796875 10.941406 -19.539062 10.671875 -21.125 C 10.398438 -22.71875 10.15625 -24.125 9.9375 -25.34375 C 9.914062 -25.582031 9.789062 -25.691406 9.5625 -25.671875 C 9.332031 -25.660156 9.21875 -25.535156 9.21875 -25.296875 C 9.1875 -24.046875 9.160156 -22.640625 9.140625 -21.078125 C 9.128906 -19.523438 9.125 -17.796875 9.125 -15.890625 C 9.125 -11.953125 9.15625 -8.71875 9.21875 -6.1875 C 9.28125 -3.664062 9.328125 -1.90625 9.359375 -0.90625 C 9.359375 -0.664062 9.273438 -0.453125 9.109375 -0.265625 C 8.941406 -0.0859375 8.722656 0 8.453125 0 L 3.171875 0 C 2.898438 0 2.679688 -0.0859375 2.515625 -0.265625 C 2.347656 -0.453125 2.265625 -0.664062 2.265625 -0.90625 C 2.296875 -1.90625 2.34375 -3.664062 2.40625 -6.1875 C 2.46875 -8.71875 2.5 -11.953125 2.5 -15.890625 C 2.5 -19.859375 2.46875 -23.097656 2.40625 -25.609375 C 2.34375 -28.117188 2.296875 -29.875 2.265625 -30.875 C 2.265625 -31.113281 2.347656 -31.320312 2.515625 -31.5 C 2.679688 -31.6875 2.898438 -31.78125 3.171875 -31.78125 L 13.484375 -31.78125 C 13.992188 -31.78125 14.28125 -31.523438 14.34375 -31.015625 C 14.46875 -30.078125 14.703125 -28.335938 15.046875 -25.796875 C 15.398438 -23.253906 15.910156 -19.953125 16.578125 -15.890625 C 16.878906 -14.046875 17.15625 -12.347656 17.40625 -10.796875 C 17.664062 -9.253906 17.898438 -7.878906 18.109375 -6.671875 C 18.140625 -6.460938 18.257812 -6.359375 18.46875 -6.359375 C 18.6875 -6.359375 18.8125 -6.460938 18.84375 -6.671875 C 19.082031 -7.878906 19.332031 -9.253906 19.59375 -10.796875 C 19.851562 -12.347656 20.132812 -14.046875 20.4375 -15.890625 C 21.070312 -19.953125 21.566406 -23.253906 21.921875 -25.796875 C 22.285156 -28.335938 22.515625 -30.078125 22.609375 -31.015625 C 22.671875 -31.523438 22.972656 -31.78125 23.515625 -31.78125 Z M 33.828125 -31.78125 "/></g></g></g></svg>