<svg xmlns="http://www.w3.org/2000/svg" xmlns:xlink="http://www.w3.org/1999/xlink" width="500" zoomAndPan="magnify" viewBox="0 0 375 374.999991" height="500" preserveAspectRatio="xMidYMid meet" version="1.0"><defs><g/><clipPath id="f3ef7a54d7"><path d="M 191 135 L 235.835938 135 L 235.835938 227 L 191 227 Z M 191 135 " clip-rule="nonzero"/></clipPath><clipPath id="8278e66798"><path d="M 122.585938 113.335938 L 190 113.335938 L 190 249 L 122.585938 249 Z M 122.585938 113.335938 " clip-rule="nonzero"/></clipPath></defs><g clip-path="url(#f3ef7a54d7)"><path fill="#000000" d="M 234.328125 193.253906 C 235.332031 189.65625 235.902344 185.882812 235.972656 181.988281 L 233.871094 181.988281 C 233.839844 185.882812 233.589844 189.746094 233.160156 193.597656 C 233.554688 193.484375 233.941406 193.363281 234.328125 193.253906 M 230.980469 166.3125 C 230.546875 163.476562 229.980469 160.605469 229.265625 157.695312 C 226.6875 156.265625 223.964844 155.078125 221.097656 154.101562 C 221.886719 157.648438 222.511719 161.144531 222.992188 164.582031 C 225.730469 165.035156 228.402344 165.605469 230.980469 166.3125 Z M 232.097656 180.292969 C 232.058594 176.394531 231.800781 172.441406 231.28125 168.421875 C 228.710938 167.824219 226.039062 167.320312 223.285156 166.894531 C 223.828125 171.449219 224.101562 175.910156 224.136719 180.292969 Z M 231.359375 194.097656 C 231.8125 190.105469 232.074219 186.074219 232.097656 181.984375 L 224.136719 181.984375 C 224.109375 186.730469 223.800781 191.382812 223.253906 195.949219 C 225.972656 195.441406 228.671875 194.820312 231.359375 194.097656 Z M 229.085938 205.0625 C 229.382812 204.59375 229.667969 204.121094 229.945312 203.644531 C 230.410156 201.117188 230.808594 198.574219 231.132812 196.015625 C 228.457031 196.761719 225.75 197.378906 223.011719 197.878906 C 222.523438 201.480469 221.882812 205.035156 221.113281 208.546875 C 223.8125 207.589844 226.472656 206.4375 229.085938 205.0625 Z M 218.335938 151.320312 C 217.867188 149.09375 217.347656 146.84375 216.761719 144.570312 C 213.222656 143.570312 209.597656 142.683594 205.90625 141.957031 C 206.4375 144.21875 206.910156 146.601562 207.335938 149.070312 C 211.160156 149.546875 214.839844 150.285156 218.335938 151.320312 Z M 220.46875 164.207031 C 220.042969 160.652344 219.472656 157.039062 218.75 153.351562 C 215.226562 152.308594 211.519531 151.5625 207.660156 151.046875 C 208.261719 154.921875 208.738281 158.996094 209.082031 163.195312 C 212.96875 163.390625 216.777344 163.707031 220.46875 164.207031 Z M 221.480469 180.292969 C 221.453125 175.808594 221.214844 171.222656 220.726562 166.523438 C 217.027344 166.023438 213.183594 165.652344 209.25 165.378906 C 209.59375 170.253906 209.769531 175.265625 209.777344 180.292969 Z M 220.652344 196.414062 C 221.15625 191.710938 221.449219 186.910156 221.480469 181.988281 L 209.769531 181.988281 C 209.738281 187.289062 209.511719 192.589844 209.105469 197.742188 C 212.980469 197.476562 216.828125 197.042969 220.652344 196.414062 Z M 218.699219 209.332031 C 219.398438 205.714844 219.984375 202.042969 220.429688 198.3125 C 216.65625 198.902344 212.832031 199.285156 208.960938 199.5 C 208.589844 203.71875 208.089844 207.832031 207.460938 211.746094 C 211.277344 211.238281 215.027344 210.460938 218.699219 209.332031 Z M 216.925781 217.476562 C 217.433594 215.382812 217.90625 213.277344 218.339844 211.148438 C 214.699219 212.25 210.96875 213.03125 207.167969 213.53125 C 206.730469 216.078125 206.234375 218.535156 205.6875 220.878906 C 209.464844 220.054688 213.210938 218.890625 216.925781 217.476562 Z M 203.335938 139.484375 C 203.222656 138.886719 203.109375 138.289062 202.992188 137.699219 C 199.285156 136.652344 195.378906 136.054688 191.347656 135.980469 L 191.347656 138.289062 C 195.378906 138.382812 199.378906 138.800781 203.335938 139.484375 Z M 204.867188 148.792969 C 204.523438 146.347656 204.136719 143.925781 203.710938 141.542969 C 199.664062 140.824219 195.535156 140.300781 191.34375 140.03125 L 191.34375 148.398438 C 195.988281 148.269531 200.515625 148.378906 204.867188 148.792969 Z M 206.417969 163.082031 C 206.101562 158.917969 205.667969 154.800781 205.136719 150.746094 C 200.707031 150.277344 196.09375 150.09375 191.347656 150.121094 L 191.347656 162.933594 C 196.417969 162.902344 201.472656 162.90625 206.417969 163.082031 Z M 207.109375 180.292969 C 207.089844 175.238281 206.90625 170.195312 206.566406 165.207031 C 201.609375 164.910156 196.515625 164.753906 191.34375 164.664062 L 191.34375 180.296875 L 207.109375 180.296875 Z M 206.539062 197.886719 C 206.910156 192.625 207.097656 187.304688 207.109375 181.984375 L 191.34375 181.984375 L 191.34375 197.828125 C 196.445312 198.09375 201.507812 198.128906 206.539062 197.886719 Z M 205.082031 212.03125 C 205.644531 207.953125 206.082031 203.808594 206.40625 199.621094 C 201.453125 199.808594 196.429688 199.746094 191.339844 199.519531 L 191.339844 212.492188 C 195.988281 212.617188 200.578125 212.496094 205.082031 212.03125 Z M 203.589844 221.300781 C 204.050781 218.835938 204.464844 216.335938 204.835938 213.804688 C 200.429688 214.253906 195.921875 214.355469 191.347656 214.195312 L 191.347656 222.191406 C 195.460938 222.382812 199.546875 222.042969 203.589844 221.300781 Z M 191.34375 226.296875 C 195.359375 226.222656 199.246094 225.636719 202.9375 224.59375 C 203.039062 224.085938 203.144531 223.582031 203.246094 223.070312 C 199.332031 223.757812 195.363281 224.058594 191.34375 223.882812 Z M 235.976562 180.292969 C 235.910156 176.457031 235.355469 172.742188 234.382812 169.207031 C 233.96875 169.09375 233.546875 168.980469 233.125 168.871094 C 233.605469 172.707031 233.847656 176.511719 233.875 180.292969 Z M 235.976562 180.292969 " fill-opacity="1" fill-rule="evenodd"/></g><g clip-path="url(#8278e66798)"><path fill="#fcb040" d="M 189.644531 135.980469 L 189.40625 113.347656 L 188.234375 136.027344 C 187.546875 136.058594 186.867188 136.109375 186.1875 136.171875 L 184.929688 128.394531 L 184.730469 136.328125 L 184.730469 136.332031 C 184.46875 136.367188 184.210938 136.398438 183.945312 136.4375 L 177.746094 114.839844 L 180.527344 137.066406 C 179.65625 137.257812 178.800781 137.480469 177.953125 137.71875 L 177.945312 137.71875 L 175.25 129.9375 L 177.09375 137.972656 L 177.09375 137.980469 C 176.628906 138.117188 176.167969 138.269531 175.710938 138.425781 L 175.707031 138.425781 L 165.96875 117.664062 L 172.242188 139.757812 C 171.683594 140 171.125 140.257812 170.578125 140.527344 L 170.570312 140.527344 L 166.28125 132.839844 L 169.554688 141.03125 C 169.066406 141.285156 168.578125 141.546875 168.097656 141.816406 L 154.707031 122.304688 L 165.511719 143.390625 C 164.855469 143.820312 164.207031 144.269531 163.578125 144.734375 L 163.570312 144.734375 L 158.175781 138.238281 L 162.824219 145.285156 C 162.390625 145.617188 161.960938 145.957031 161.539062 146.304688 L 161.535156 146.304688 L 145.226562 129.925781 L 159.082031 148.464844 L 159.082031 148.472656 C 158.621094 148.914062 158.167969 149.359375 157.722656 149.816406 L 157.71875 149.816406 L 150.75 143.929688 L 156.589844 151.027344 C 156.304688 151.34375 156.019531 151.671875 155.738281 151.992188 L 136.832031 138.71875 L 153.660156 154.632812 L 153.660156 154.636719 C 153.347656 155.0625 153.046875 155.492188 152.75 155.921875 L 144.820312 151.917969 L 151.863281 157.28125 L 151.863281 157.289062 C 151.589844 157.730469 151.320312 158.175781 151.058594 158.625 L 129.6875 148.644531 L 149.578125 161.375 L 149.578125 161.378906 C 149.207031 162.136719 148.851562 162.902344 148.527344 163.679688 L 140.902344 160.421875 L 148.070312 164.808594 C 147.917969 165.191406 147.777344 165.574219 147.636719 165.960938 L 126.300781 160.1875 L 146.617188 169.195312 L 146.617188 169.199219 C 146.414062 169.9375 146.230469 170.683594 146.0625 171.4375 L 146.058594 171.4375 L 138.324219 169.308594 L 145.835938 172.492188 L 145.84375 172.492188 C 145.730469 173.070312 145.628906 173.65625 145.535156 174.242188 L 123.839844 172.496094 L 145.203125 176.925781 L 145.207031 176.925781 C 145.140625 177.671875 145.089844 178.429688 145.054688 179.1875 L 145.046875 179.1875 L 136.953125 179.113281 L 145.019531 179.957031 C 145.007812 180.351562 145.003906 180.746094 145.003906 181.140625 C 145.003906 181.351562 145.007812 181.566406 145.007812 181.773438 L 145.003906 181.773438 L 122.585938 184.472656 L 145.15625 184.785156 C 145.214844 185.503906 145.289062 186.21875 145.378906 186.929688 L 137.359375 188.425781 L 145.59375 188.355469 C 145.621094 188.511719 145.644531 188.671875 145.671875 188.828125 L 125.085938 196.097656 L 146.617188 193.097656 C 146.675781 193.316406 146.742188 193.535156 146.804688 193.757812 L 138.804688 198.679688 L 147.457031 195.800781 L 147.585938 196.164062 L 127.425781 207.960938 L 149.328125 200.378906 C 149.40625 200.550781 149.492188 200.722656 149.578125 200.894531 L 144.375 206.101562 L 150.773438 203.160156 C 150.859375 203.316406 150.949219 203.472656 151.035156 203.621094 L 134.125 218.449219 L 153.507812 207.4375 C 153.808594 207.851562 154.117188 208.265625 154.429688 208.667969 L 148.890625 214.660156 L 155.601562 210.121094 C 155.867188 210.4375 156.144531 210.753906 156.421875 211.066406 L 140.984375 227.8125 L 158.664062 213.410156 C 159.023438 213.765625 159.394531 214.109375 159.773438 214.449219 L 154.78125 221.355469 L 160.96875 215.496094 C 161.382812 215.847656 161.804688 216.191406 162.234375 216.527344 L 150.105469 236.441406 L 164.355469 218.105469 C 164.867188 218.457031 165.382812 218.808594 165.910156 219.140625 L 162.453125 227.402344 L 167.449219 220.082031 C 167.921875 220.355469 168.398438 220.625 168.882812 220.882812 L 160.511719 241.925781 L 170.863281 221.886719 C 171.515625 222.199219 172.183594 222.496094 172.855469 222.78125 L 171.242188 230.875 L 174.769531 223.535156 C 175.296875 223.726562 175.828125 223.914062 176.367188 224.085938 L 171.40625 246.046875 L 178.585938 224.742188 C 179.300781 224.9375 180.023438 225.109375 180.746094 225.265625 L 180.359375 232.730469 L 182.53125 225.613281 C 183.300781 225.75 184.082031 225.867188 184.867188 225.964844 L 184.398438 248.707031 L 186.902344 226.164062 C 187.460938 226.207031 188.027344 226.242188 188.597656 226.265625 L 189.320312 231.199219 L 189.644531 226.296875 Z M 189.644531 135.980469 " fill-opacity="1" fill-rule="evenodd"/></g><path stroke-linecap="butt" transform="matrix(0.621346, 0, 0, 0.621346, 63.9, 161.403445)" fill="none" stroke-linejoin="miter" d="M 39.817769 20.826235 C 39.817769 21.153146 39.704608 21.43605 39.478285 21.68752 C 39.264535 21.92013 38.969058 22.039578 38.604426 22.039578 L 22.80582 22.039578 C 22.491482 22.039578 22.208578 22.15274 21.963395 22.379063 C 21.718211 22.599099 21.592476 22.869429 21.592476 23.190054 C 21.592476 24.441117 21.58619 25.836776 21.567329 27.37703 C 21.548469 28.904711 21.517035 30.5707 21.479315 32.387571 C 21.479315 32.708195 21.592476 32.997386 21.831373 33.242569 C 22.076556 33.481466 22.365747 33.600914 22.686371 33.600914 L 35.46105 33.600914 C 35.781675 33.600914 36.064579 33.720362 36.303475 33.965546 C 36.548658 34.204442 36.668107 34.487346 36.668107 34.80797 L 36.668107 38.812631 C 36.668107 39.133256 36.548658 39.409873 36.303475 39.655056 C 36.064579 39.893952 35.781675 40.013401 35.46105 40.013401 L 22.686371 40.013401 C 22.365747 40.013401 22.076556 40.132849 21.831373 40.384319 C 21.592476 40.629502 21.479315 40.906119 21.479315 41.226744 C 21.517035 43.049902 21.548469 44.728464 21.567329 46.262432 C 21.58619 47.790112 21.592476 49.179485 21.592476 50.430548 C 21.592476 50.757459 21.718211 51.034076 21.963395 51.260399 C 22.208578 51.474149 22.491482 51.58731 22.80582 51.58731 L 38.604426 51.58731 C 38.969058 51.58731 39.264535 51.706759 39.478285 51.951942 C 39.704608 52.190839 39.817769 52.473742 39.817769 52.794367 L 39.817769 56.786454 C 39.817769 57.113365 39.704608 57.396269 39.478285 57.647739 C 39.264535 57.880349 38.969058 57.999797 38.604426 57.999797 L 13.551721 57.999797 C 13.18709 57.999797 12.891612 57.880349 12.665289 57.647739 C 12.45154 57.396269 12.344665 57.113365 12.344665 56.786454 C 12.382385 55.459949 12.438966 53.108704 12.520694 49.739005 C 12.596135 46.369307 12.640142 42.056595 12.640142 36.807157 C 12.640142 31.526286 12.596135 27.207288 12.520694 23.856449 C 12.438966 20.505611 12.382385 18.166939 12.344665 16.834148 C 12.344665 16.513523 12.45154 16.23062 12.665289 15.991723 C 12.891612 15.74654 13.18709 15.627091 13.551721 15.627091 L 38.604426 15.627091 C 38.969058 15.627091 39.264535 15.74654 39.478285 15.991723 C 39.704608 16.23062 39.817769 16.513523 39.817769 16.834148 Z M 75.777988 36.807157 C 75.777988 42.056595 75.809422 46.369307 75.866003 49.739005 C 75.92887 53.108704 75.998025 55.459949 76.086039 56.786454 C 76.086039 57.113365 75.966591 57.396269 75.721408 57.647739 C 75.476224 57.880349 75.19332 57.999797 74.878983 57.999797 L 62.167171 57.999797 C 61.437908 57.999797 61.035556 57.654026 60.953828 56.962483 C 60.784086 55.711419 60.432028 53.391608 59.891367 50.003049 C 59.350706 46.61449 58.60887 42.213764 57.672144 36.807157 C 57.395527 35.23547 57.125196 33.758083 56.861153 32.368711 C 56.603396 30.973052 56.351926 29.665408 56.106743 28.452065 C 56.069022 28.13144 55.892993 27.993132 55.591229 28.043426 C 55.283178 28.081146 55.132296 28.238315 55.132296 28.514932 C 55.132296 29.728275 55.119723 31.023346 55.100862 32.400145 C 55.082002 33.770656 55.069429 35.23547 55.069429 36.807157 C 55.069429 42.056595 55.113436 46.369307 55.188877 49.739005 C 55.276891 53.108704 55.339759 55.459949 55.383766 56.786454 C 55.383766 57.113365 55.270605 57.396269 55.044282 57.647739 C 54.824245 57.880349 54.535055 57.999797 54.170423 57.999797 L 47.148122 57.999797 C 46.78349 57.999797 46.488013 57.880349 46.26169 57.647739 C 46.04794 57.396269 45.934779 57.113365 45.934779 56.786454 C 45.978786 55.459949 46.035367 53.108704 46.117094 49.739005 C 46.192535 46.369307 46.230256 42.056595 46.230256 36.807157 C 46.230256 31.526286 46.192535 27.207288 46.117094 23.856449 C 46.035367 20.505611 45.978786 18.166939 45.934779 16.834148 C 45.934779 16.513523 46.04794 16.23062 46.26169 15.991723 C 46.488013 15.74654 46.78349 15.627091 47.148122 15.627091 L 59.859933 15.627091 C 60.551476 15.627091 60.953828 15.966576 61.073276 16.645545 C 61.230445 17.858888 61.56993 20.172413 62.09173 23.592406 C 62.626104 26.999825 63.374227 31.406838 64.3361 36.807157 C 64.625291 38.341125 64.895621 39.818511 65.153378 41.239317 C 65.417422 42.64755 65.650031 43.961481 65.844921 45.168537 C 65.932935 45.489161 66.127825 45.621183 66.423302 45.583463 C 66.725066 45.545742 66.882235 45.388573 66.882235 45.111956 C 66.882235 43.898613 66.888522 42.597256 66.907382 41.207884 C 66.932529 39.812225 66.938816 38.341125 66.938816 36.807157 C 66.938816 31.526286 66.901095 27.207288 66.819367 23.856449 C 66.743926 20.505611 66.681059 18.166939 66.643338 16.834148 C 66.605618 16.513523 66.706206 16.23062 66.938816 15.991723 C 67.183999 15.74654 67.466903 15.627091 67.78124 15.627091 L 74.878983 15.627091 C 75.19332 15.627091 75.476224 15.74654 75.721408 15.991723 C 75.966591 16.23062 76.086039 16.513523 76.086039 16.834148 C 75.998025 18.166939 75.92887 20.505611 75.866003 23.856449 C 75.809422 27.207288 75.777988 31.526286 75.777988 36.807157 Z M 109.613285 20.826235 C 109.613285 21.153146 109.500124 21.43605 109.273801 21.68752 C 109.053764 21.92013 108.764574 22.039578 108.399942 22.039578 L 92.601335 22.039578 C 92.286998 22.039578 92.004094 22.15274 91.758911 22.379063 C 91.507441 22.599099 91.387992 22.869429 91.387992 23.190054 C 91.387992 24.441117 91.375419 25.836776 91.356559 27.37703 C 91.337698 28.904711 91.306265 30.5707 91.268544 32.387571 C 91.268544 32.708195 91.387992 32.997386 91.626889 33.242569 C 91.872072 33.481466 92.154976 33.600914 92.481887 33.600914 L 105.25028 33.600914 C 105.577191 33.600914 105.860095 33.720362 106.092704 33.965546 C 106.337888 34.204442 106.463623 34.487346 106.463623 34.80797 L 106.463623 38.812631 C 106.463623 39.133256 106.337888 39.409873 106.092704 39.655056 C 105.860095 39.893952 105.577191 40.013401 105.25028 40.013401 L 92.481887 40.013401 C 92.154976 40.013401 91.872072 40.132849 91.626889 40.384319 C 91.387992 40.629502 91.268544 40.906119 91.268544 41.226744 C 91.306265 43.049902 91.337698 44.728464 91.356559 46.262432 C 91.375419 47.790112 91.387992 49.179485 91.387992 50.430548 C 91.387992 50.757459 91.507441 51.034076 91.758911 51.260399 C 92.004094 51.474149 92.286998 51.58731 92.601335 51.58731 L 108.399942 51.58731 C 108.764574 51.58731 109.053764 51.706759 109.273801 51.951942 C 109.500124 52.190839 109.613285 52.473742 109.613285 52.794367 L 109.613285 56.786454 C 109.613285 57.113365 109.500124 57.396269 109.273801 57.647739 C 109.053764 57.880349 108.764574 57.999797 108.399942 57.999797 L 83.347237 57.999797 C 82.982606 57.999797 82.687128 57.880349 82.460805 57.647739 C 82.240769 57.396269 82.133894 57.113365 82.133894 56.786454 C 82.171615 55.459949 82.234482 53.108704 82.309923 49.739005 C 82.391651 46.369307 82.429371 42.056595 82.429371 36.807157 C 82.429371 31.526286 82.391651 27.207288 82.309923 23.856449 C 82.234482 20.505611 82.171615 18.166939 82.133894 16.834148 C 82.133894 16.513523 82.240769 16.23062 82.460805 15.991723 C 82.687128 15.74654 82.982606 15.627091 83.347237 15.627091 L 108.399942 15.627091 C 108.764574 15.627091 109.053764 15.74654 109.273801 15.991723 C 109.500124 16.23062 109.613285 16.513523 109.613285 16.834148 Z M 143.813214 57.999797 L 136.124517 57.999797 C 135.803892 57.999797 135.514702 57.880349 135.269518 57.647739 C 135.030622 57.396269 134.91746 57.113365 134.91746 56.786454 L 134.91746 47.463201 C 134.91746 46.532762 134.772865 45.62747 134.483674 44.741038 C 134.207057 43.854606 133.697831 43.119056 132.949707 42.540675 C 132.201584 41.94972 131.157983 41.654243 129.831478 41.654243 L 126.078288 41.654243 C 125.751377 41.654243 125.462186 41.773691 125.217003 42.025161 C 124.984393 42.257771 124.883805 42.540675 124.921525 42.867586 C 124.921525 46.413314 124.952959 49.355514 125.00954 51.700472 C 125.078694 54.051717 125.135275 55.742853 125.172995 56.786454 C 125.172995 57.113365 125.059834 57.396269 124.833511 57.647739 C 124.619761 57.880349 124.324284 57.999797 123.959652 57.999797 L 116.943638 57.999797 C 116.579006 57.999797 116.283529 57.880349 116.057206 57.647739 C 115.837169 57.396269 115.730295 57.113365 115.730295 56.786454 C 115.768015 55.459949 115.830883 53.108704 115.906324 49.739005 C 115.988051 46.369307 116.025772 42.056595 116.025772 36.807157 C 116.025772 31.526286 115.988051 27.207288 115.906324 23.856449 C 115.830883 20.505611 115.768015 18.166939 115.730295 16.834148 C 115.730295 16.513523 115.837169 16.23062 116.057206 15.991723 C 116.283529 15.74654 116.579006 15.627091 116.943638 15.627091 L 130.082948 15.627091 C 132.050702 15.627091 133.924154 15.809407 135.697018 16.174039 C 137.482455 16.53867 139.06043 17.179919 140.424655 18.110358 C 141.795167 19.034511 142.876488 20.323295 143.662332 21.982997 C 144.454462 23.636413 144.844241 25.755048 144.844241 28.338903 C 144.844241 30.721582 144.309867 32.689335 143.234833 34.24845 C 142.172372 35.79499 140.789286 37.01462 139.09815 37.901052 C 138.928408 37.976493 138.84668 38.121089 138.84668 38.328551 C 138.84668 38.523441 138.947268 38.686896 139.154731 38.812631 C 140.694985 39.535608 141.964909 40.591782 142.970789 41.993728 C 143.976669 43.3831 144.479609 45.206258 144.479609 47.463201 C 144.479609 49.638417 144.53619 51.505583 144.655639 53.064697 C 144.781374 54.617525 144.907109 55.824581 145.026557 56.667006 C 145.064277 57.031637 144.957403 57.352262 144.712219 57.616305 C 144.479609 57.874062 144.177845 57.999797 143.813214 57.999797 Z M 130.202397 22.039578 L 126.191449 22.039578 C 125.877112 22.039578 125.600494 22.15274 125.349024 22.379063 C 125.103841 22.599099 124.984393 22.869429 124.984393 23.190054 C 124.984393 24.642293 124.965533 26.264275 124.921525 28.068573 C 124.883805 29.860297 124.864945 31.84691 124.864945 34.028413 C 124.864945 34.393045 124.984393 34.688522 125.217003 34.914845 C 125.462186 35.128595 125.751377 35.23547 126.078288 35.23547 L 130.202397 35.23547 C 131.528901 35.23547 132.566215 34.851978 133.301765 34.084994 C 134.049889 33.31801 134.571689 32.400145 134.854593 31.337684 C 135.143783 30.262649 135.282092 29.263056 135.282092 28.338903 C 135.282092 26.716921 134.986615 25.459571 134.39566 24.554279 C 133.817279 23.6427 133.132023 23.001451 132.339892 22.617959 C 131.554048 22.234467 130.837359 22.039578 130.202397 22.039578 Z M 165.904859 36.807157 C 165.904859 36.49282 166.011734 36.209916 166.23177 35.964733 C 166.458093 35.713263 166.73471 35.593814 167.055334 35.593814 L 179.415088 35.593814 C 179.729426 35.593814 179.999756 35.713263 180.226079 35.964733 C 180.452402 36.209916 180.565563 36.49282 180.565563 36.807157 L 180.565563 45.231405 C 180.565563 47.808973 180.100344 50.103637 179.163618 52.102824 C 178.233179 54.095724 176.692925 55.667412 174.536569 56.817888 C 172.380213 57.968363 169.48202 58.546744 165.848278 58.546744 C 162.132808 58.546744 159.196895 57.899209 157.034252 56.610425 C 154.877897 55.321641 153.343929 53.655652 152.438637 51.612457 C 151.533345 49.57555 151.080699 47.444341 151.080699 45.231405 C 151.080699 44.382693 151.099559 43.571702 151.137279 42.804718 C 151.181287 42.037735 151.225294 41.189023 151.288161 40.264871 C 151.344742 39.334432 151.376176 38.183956 151.376176 36.807157 C 151.376176 35.436646 151.344742 34.28617 151.288161 33.362018 C 151.225294 32.437865 151.181287 31.589154 151.137279 30.82217 C 151.099559 30.0489 151.080699 29.244195 151.080699 28.395484 C 151.080699 25.811629 151.552205 23.523251 152.501504 21.524064 C 153.444517 19.524877 154.984771 17.953189 157.122267 16.809001 C 159.266049 15.652238 162.170528 15.080144 165.848278 15.080144 C 169.274558 15.080144 172.040728 15.652238 174.134217 16.809001 C 176.233992 17.953189 177.786819 19.430576 178.7927 21.253734 C 179.804867 23.070605 180.402108 25.006925 180.565563 27.062693 C 180.565563 27.427324 180.452402 27.741662 180.226079 28.011992 C 179.999756 28.269749 179.710565 28.395484 179.35222 28.395484 L 172.197897 28.395484 C 171.481207 28.395484 171.078855 28.011992 170.990841 27.245008 C 170.946834 26.559752 170.795952 25.767622 170.531908 24.862329 C 170.274151 23.944464 169.790071 23.15862 169.079668 22.498511 C 168.381839 21.825828 167.344525 21.492631 165.96144 21.492631 C 164.358318 21.492631 163.170122 21.857262 162.403138 22.586525 C 161.629868 23.315789 161.145788 24.214794 160.938325 25.289829 C 160.743436 26.358576 160.642848 27.389604 160.642848 28.395484 L 160.642848 45.231405 C 160.642848 45.596036 160.674282 46.14927 160.730862 46.897394 C 160.787443 47.63923 160.969759 48.412501 161.27781 49.223492 C 161.58586 50.028196 162.088801 50.719739 162.78663 51.291833 C 163.497033 51.851354 164.477766 52.134258 165.72883 52.134258 C 167.300518 52.134258 168.513861 51.769626 169.362572 51.040363 C 170.211284 50.3111 170.770805 49.412094 171.047422 48.349633 C 171.336612 47.274599 171.474921 46.237285 171.474921 45.231405 C 171.474921 44.577582 171.474921 43.892326 171.474921 43.163063 C 171.4372 42.842439 171.305178 42.578395 171.078855 42.364646 C 170.858819 42.138323 170.588489 42.025161 170.261578 42.025161 L 167.055334 42.025161 C 166.73471 42.025161 166.458093 41.912 166.23177 41.69825 C 166.011734 41.471927 165.904859 41.17645 165.904859 40.811818 Z M 196.232148 27.301589 C 196.232148 28.552653 196.716228 29.552246 197.684388 30.30037 C 198.658835 31.048493 199.922472 31.696028 201.469012 32.236689 C 203.02184 32.77735 204.668969 33.355731 206.404112 33.965546 C 208.139256 34.569074 209.786385 35.348631 211.339212 36.304217 C 212.898327 37.24723 214.155677 38.517154 215.123837 40.113989 C 216.091997 41.704537 216.56979 43.766591 216.56979 46.306439 C 216.56979 48.902867 216.110857 51.109517 215.180418 52.945249 C 214.256265 54.78098 212.716011 56.182926 210.559655 57.157372 C 208.397013 58.125532 205.505107 58.603325 201.865078 58.603325 C 198.394791 58.603325 195.57204 58.043804 193.38425 56.918476 C 191.202747 55.78686 189.580765 54.303187 188.505731 52.473742 C 187.44327 50.631724 186.827168 48.676544 186.669999 46.620777 C 186.632279 46.293866 186.732867 46.004675 186.965477 45.746918 C 187.216947 45.482875 187.518711 45.350853 187.883342 45.350853 L 195.025092 45.350853 C 195.754355 45.350853 196.137847 45.715484 196.175568 46.444748 C 196.257295 47.161437 196.464758 47.966141 196.81053 48.865147 C 197.156301 49.751579 197.715822 50.531136 198.495379 51.203819 C 199.28751 51.863927 200.368831 52.190839 201.74563 52.190839 C 203.361325 52.190839 204.543234 51.920508 205.278784 51.379848 C 206.026907 50.826613 206.510987 50.09735 206.731024 49.192058 C 206.957347 48.286766 207.070508 47.324893 207.070508 46.306439 C 207.070508 45.017655 206.573855 43.992915 205.574261 43.232218 C 204.593528 42.465234 203.317317 41.811412 201.76449 41.270751 C 200.217949 40.717517 198.577107 40.139136 196.841963 39.541894 C 195.10682 38.925793 193.472264 38.152522 191.93201 37.203223 C 190.40433 36.26021 189.146979 34.996573 188.147386 33.418598 C 187.166653 31.84691 186.669999 29.803716 186.669999 27.301589 C 186.669999 24.717734 187.147792 22.511084 188.090805 20.68164 C 189.040105 18.839621 190.580359 17.431389 192.717854 16.469516 C 194.85535 15.501356 197.759829 15.017277 201.437579 15.017277 C 204.863858 15.017277 207.630029 15.583084 209.729804 16.720986 C 211.829579 17.840028 213.382407 19.323701 214.388287 21.16572 C 215.400454 23.001451 215.991409 24.944057 216.161151 27.006112 C 216.161151 27.333023 216.047989 27.6285 215.821666 27.892544 C 215.595343 28.150301 215.299866 28.276036 214.947808 28.276036 L 207.793485 28.276036 C 207.076795 28.276036 206.668156 27.911404 206.580142 27.182141 C 206.542421 26.452878 206.391539 25.648173 206.121209 24.761741 C 205.869739 23.875309 205.385659 23.095752 204.675256 22.435643 C 203.977426 21.769248 202.933826 21.43605 201.557027 21.43605 C 199.947619 21.43605 198.759423 21.70638 197.992439 22.259614 C 197.225455 22.800275 196.735089 23.529538 196.527626 24.43483 C 196.332736 25.340123 196.232148 26.295709 196.232148 27.301589 Z M 247.073108 28.571513 C 245.872339 31.318823 244.885319 33.644921 244.118335 35.549807 C 243.351351 37.442119 242.766684 38.869212 242.358045 39.837372 C 242.112861 40.447187 241.993413 41.069575 241.993413 41.710824 C 241.949406 42.521815 241.911685 43.483688 241.873965 44.596443 C 241.836244 45.696624 241.811097 46.960261 241.811097 48.381067 C 241.811097 50.399114 241.842531 52.102824 241.905399 53.492196 C 241.961979 54.881568 242.01856 55.962889 242.062567 56.729873 C 242.106575 57.094505 241.9997 57.396269 241.754517 57.647739 C 241.509333 57.880349 241.207569 57.999797 240.855511 57.999797 L 233.952658 57.999797 C 233.588026 57.999797 233.279975 57.880349 233.034792 57.647739 C 232.795896 57.396269 232.701594 57.094505 232.739315 56.729873 C 232.777035 55.962889 232.827329 54.881568 232.88391 53.492196 C 232.946778 52.102824 232.978211 50.399114 232.978211 48.381067 C 232.978211 46.960261 232.953064 45.696624 232.915344 44.596443 C 232.877623 43.483688 232.839903 42.521815 232.795896 41.710824 C 232.795896 41.069575 232.676447 40.447187 232.431264 39.837372 C 232.022625 38.869212 231.437957 37.442119 230.670974 35.549807 C 229.910277 33.644921 228.923257 31.318823 227.7162 28.571513 C 226.502857 25.874496 225.45297 23.586119 224.566538 21.712667 C 223.680106 19.832928 222.99485 18.361828 222.51077 17.311941 C 222.303307 16.953596 222.315881 16.582678 222.554777 16.199186 C 222.799961 15.815694 223.145732 15.627091 223.592091 15.627091 L 230.312629 15.627091 C 230.878436 15.627091 231.261928 15.903708 231.469391 16.469516 C 231.702001 17.311941 232.154647 18.757894 232.814756 20.801088 C 233.481151 22.837995 234.386444 25.428137 235.518059 28.571513 C 236.002139 29.910591 236.461072 31.180515 236.907431 32.387571 C 236.995446 32.632754 237.158901 32.752203 237.391511 32.752203 C 237.642981 32.752203 237.806437 32.632754 237.881878 32.387571 C 238.328237 31.180515 238.78717 29.910591 239.27125 28.571513 C 240.402865 25.428137 241.30187 22.837995 241.961979 20.801088 C 242.634662 18.757894 243.087308 17.311941 243.338778 16.469516 C 243.533667 15.903708 243.910872 15.627091 244.47668 15.627091 L 251.197217 15.627091 C 251.643577 15.627091 251.983061 15.815694 252.221958 16.199186 C 252.467141 16.582678 252.492288 16.953596 252.291112 17.311941 C 251.813319 18.361828 251.121776 19.832928 250.222771 21.712667 C 249.336339 23.586119 248.286451 25.874496 247.073108 28.571513 Z M 267.781668 27.301589 C 267.781668 28.552653 268.265748 29.552246 269.233908 30.30037 C 270.208354 31.048493 271.465704 31.696028 273.012245 32.236689 C 274.57136 32.77735 276.218489 33.355731 277.953632 33.965546 C 279.688776 34.569074 281.329618 35.348631 282.888732 36.304217 C 284.447846 37.24723 285.705197 38.517154 286.673357 40.113989 C 287.63523 41.704537 288.119309 43.766591 288.119309 46.306439 C 288.119309 48.902867 287.660377 51.109517 286.729937 52.945249 C 285.805785 54.78098 284.265531 56.182926 282.102888 57.157372 C 279.946532 58.125532 277.04834 58.603325 273.414597 58.603325 C 269.944311 58.603325 267.115272 58.043804 264.927483 56.918476 C 262.752267 55.78686 261.123998 54.303187 260.05525 52.473742 C 258.986503 50.631724 258.376688 48.676544 258.219519 46.620777 C 258.181798 46.293866 258.2761 46.004675 258.514996 45.746918 C 258.76018 45.482875 259.06823 45.350853 259.432862 45.350853 L 266.568325 45.350853 C 267.297588 45.350853 267.687367 45.715484 267.725087 46.444748 C 267.800528 47.161437 268.014278 47.966141 268.360049 48.865147 C 268.705821 49.751579 269.265341 50.531136 270.044899 51.203819 C 270.830743 51.863927 271.918351 52.190839 273.295149 52.190839 C 274.910844 52.190839 276.086467 51.920508 276.828304 51.379848 C 277.576427 50.826613 278.060507 50.09735 278.274256 49.192058 C 278.50058 48.286766 278.613741 47.324893 278.613741 46.306439 C 278.613741 45.017655 278.117088 43.992915 277.123781 43.232218 C 276.136761 42.465234 274.866837 41.811412 273.307723 41.270751 C 271.761182 40.717517 270.12034 40.139136 268.391483 39.541894 C 266.65634 38.925793 265.021784 38.152522 263.48153 37.203223 C 261.953849 36.26021 260.690212 34.996573 259.696906 33.418598 C 258.709886 31.84691 258.219519 29.803716 258.219519 27.301589 C 258.219519 24.717734 258.691025 22.511084 259.640325 20.68164 C 260.583338 18.839621 262.129878 17.431389 264.267374 16.469516 C 266.404869 15.501356 269.309349 15.017277 272.987098 15.017277 C 276.413378 15.017277 279.179549 15.583084 281.279324 16.720986 C 283.379099 17.840028 284.92564 19.323701 285.93152 21.16572 C 286.949974 23.001451 287.540928 24.944057 287.704384 27.006112 C 287.704384 27.333023 287.591222 27.6285 287.364899 27.892544 C 287.138576 28.150301 286.849386 28.276036 286.497328 28.276036 L 279.343004 28.276036 C 278.620028 28.276036 278.217676 27.911404 278.129661 27.182141 C 278.091941 26.452878 277.934772 25.648173 277.670728 24.761741 C 277.412971 23.875309 276.928892 23.095752 276.224775 22.435643 C 275.520659 21.769248 274.483345 21.43605 273.106547 21.43605 C 271.497138 21.43605 270.308942 21.70638 269.541959 22.259614 C 268.774975 22.800275 268.284608 23.529538 268.077145 24.43483 C 267.882256 25.340123 267.781668 26.295709 267.781668 27.301589 Z M 323.840632 20.826235 C 323.840632 21.153146 323.714897 21.43605 323.469714 21.68752 C 323.237104 21.92013 322.9542 22.039578 322.627289 22.039578 L 314.749989 22.039578 C 314.435651 22.039578 314.165321 22.15274 313.938998 22.379063 C 313.718962 22.599099 313.612087 22.869429 313.612087 23.190054 C 313.561793 24.925197 313.530359 26.924384 313.511499 29.193901 C 313.492639 31.450845 313.480065 33.984406 313.480065 36.807157 C 313.480065 42.056595 313.511499 46.369307 313.56808 49.739005 C 313.637234 53.108704 313.693815 55.459949 313.731535 56.786454 C 313.769256 57.113365 313.668668 57.396269 313.423484 57.647739 C 313.184588 57.880349 312.901684 57.999797 312.58106 57.999797 L 305.495891 57.999797 C 305.175266 57.999797 304.886076 57.880349 304.640893 57.647739 C 304.401996 57.396269 304.288834 57.113365 304.288834 56.786454 C 304.364275 55.459949 304.43343 53.108704 304.496297 49.739005 C 304.552878 46.369307 304.584312 42.056595 304.584312 36.807157 C 304.584312 33.984406 304.571738 31.450845 304.552878 29.193901 C 304.534018 26.924384 304.502584 24.925197 304.464863 23.190054 C 304.464863 22.869429 304.351702 22.599099 304.125379 22.379063 C 303.905343 22.15274 303.616152 22.039578 303.25152 22.039578 L 295.449662 22.039578 C 295.122751 22.039578 294.839847 21.92013 294.588377 21.68752 C 294.355767 21.43605 294.236319 21.153146 294.236319 20.826235 L 294.236319 16.834148 C 294.236319 16.513523 294.355767 16.23062 294.588377 15.991723 C 294.839847 15.74654 295.122751 15.627091 295.449662 15.627091 L 322.627289 15.627091 C 322.9542 15.627091 323.237104 15.74654 323.469714 15.991723 C 323.714897 16.23062 323.840632 16.513523 323.840632 16.834148 Z M 357.367878 20.826235 C 357.367878 21.153146 357.254716 21.43605 357.028393 21.68752 C 356.808357 21.92013 356.519167 22.039578 356.154535 22.039578 L 340.355928 22.039578 C 340.035304 22.039578 339.758687 22.15274 339.513504 22.379063 C 339.262033 22.599099 339.142585 22.869429 339.142585 23.190054 C 339.142585 24.441117 339.130012 25.836776 339.111151 27.37703 C 339.092291 28.904711 339.060857 30.5707 339.023137 32.387571 C 339.023137 32.708195 339.142585 32.997386 339.375195 33.242569 C 339.626665 33.481466 339.909569 33.600914 340.23648 33.600914 L 353.004872 33.600914 C 353.331783 33.600914 353.608401 33.720362 353.847297 33.965546 C 354.09248 34.204442 354.218215 34.487346 354.218215 34.80797 L 354.218215 38.812631 C 354.218215 39.133256 354.09248 39.409873 353.847297 39.655056 C 353.608401 39.893952 353.331783 40.013401 353.004872 40.013401 L 340.23648 40.013401 C 339.909569 40.013401 339.626665 40.132849 339.375195 40.384319 C 339.142585 40.629502 339.023137 40.906119 339.023137 41.226744 C 339.060857 43.049902 339.092291 44.728464 339.111151 46.262432 C 339.130012 47.790112 339.142585 49.179485 339.142585 50.430548 C 339.142585 50.757459 339.262033 51.034076 339.513504 51.260399 C 339.758687 51.474149 340.035304 51.58731 340.355928 51.58731 L 356.154535 51.58731 C 356.519167 51.58731 356.808357 51.706759 357.028393 51.951942 C 357.254716 52.190839 357.367878 52.473742 357.367878 52.794367 L 357.367878 56.786454 C 357.367878 57.113365 357.254716 57.396269 357.028393 57.647739 C 356.808357 57.880349 356.519167 57.999797 356.154535 57.999797 L 331.10183 57.999797 C 330.737198 57.999797 330.441721 57.880349 330.215398 57.647739 C 329.995362 57.396269 329.888487 57.113365 329.888487 56.786454 C 329.926207 55.459949 329.989075 53.108704 330.064516 49.739005 C 330.146244 46.369307 330.183964 42.056595 330.183964 36.807157 C 330.183964 31.526286 330.146244 27.207288 330.064516 23.856449 C 329.989075 20.505611 329.926207 18.166939 329.888487 16.834148 C 329.888487 16.513523 329.995362 16.23062 330.215398 15.991723 C 330.441721 15.74654 330.737198 15.627091 331.10183 15.627091 L 356.154535 15.627091 C 356.519167 15.627091 356.808357 15.74654 357.028393 15.991723 C 357.254716 16.23062 357.367878 16.513523 357.367878 16.834148 Z M 405.562116 15.627091 C 405.876453 15.627091 406.15307 15.74654 406.391967 15.991723 C 406.63715 16.23062 406.762885 16.513523 406.762885 16.834148 C 406.718878 18.166939 406.662297 20.505611 406.580569 23.856449 C 406.505128 27.207288 406.467408 31.526286 406.467408 36.807157 C 406.467408 42.056595 406.505128 46.369307 406.580569 49.739005 C 406.662297 53.108704 406.718878 55.459949 406.762885 56.786454 C 406.762885 57.113365 406.63715 57.396269 406.391967 57.647739 C 406.15307 57.880349 405.876453 57.999797 405.562116 57.999797 L 398.47066 57.999797 C 398.156322 57.999797 397.873418 57.880349 397.628235 57.647739 C 397.376765 57.396269 397.276177 57.113365 397.313897 56.786454 C 397.364191 55.459949 397.427059 53.108704 397.508787 49.739005 C 397.584228 46.369307 397.628235 42.056595 397.628235 36.807157 C 397.628235 34.261023 397.615662 31.953785 397.596801 29.87287 C 397.577941 27.791956 397.546507 25.931077 397.508787 24.283948 C 397.508787 23.963324 397.357905 23.787295 397.049854 23.768435 C 396.741803 23.749574 396.553201 23.89417 396.471473 24.214794 C 396.188569 25.830489 395.861658 27.697654 395.497026 29.81629 C 395.144968 31.934925 394.761476 34.261023 394.359124 36.807157 C 393.510413 42.176043 392.844017 46.564196 392.347364 49.971615 C 391.869571 53.385321 391.567807 55.711419 391.448358 56.962483 C 391.32891 57.654026 390.926558 57.999797 390.235015 57.999797 L 380.00647 57.999797 C 379.277207 57.999797 378.874855 57.654026 378.793127 56.962483 C 378.635959 55.711419 378.321621 53.385321 377.850115 49.971615 C 377.384895 46.564196 376.712213 42.176043 375.825781 36.807157 C 375.423429 34.261023 375.039937 31.934925 374.675305 29.81629 C 374.31696 27.697654 373.996336 25.830489 373.713432 24.214794 C 373.669425 23.89417 373.499683 23.749574 373.191632 23.768435 C 372.889868 23.787295 372.738986 23.963324 372.738986 24.283948 C 372.694978 25.931077 372.669831 27.791956 372.644684 29.87287 C 372.625824 31.953785 372.619537 34.261023 372.619537 36.807157 C 372.619537 42.056595 372.657258 46.369307 372.738986 49.739005 C 372.827 53.108704 372.889868 55.459949 372.927588 56.786454 C 372.927588 57.113365 372.814427 57.396269 372.588104 57.647739 C 372.374354 57.880349 372.078877 57.999797 371.714245 57.999797 L 364.69823 57.999797 C 364.333599 57.999797 364.038121 57.880349 363.811798 57.647739 C 363.591762 57.396269 363.484887 57.113365 363.484887 56.786454 C 363.522608 55.459949 363.579189 53.108704 363.660916 49.739005 C 363.742644 46.369307 363.780365 42.056595 363.780365 36.807157 C 363.780365 31.526286 363.742644 27.207288 363.660916 23.856449 C 363.579189 20.505611 363.522608 18.166939 363.484887 16.834148 C 363.484887 16.513523 363.591762 16.23062 363.811798 15.991723 C 364.038121 15.74654 364.333599 15.627091 364.69823 15.627091 L 378.441069 15.627091 C 379.120038 15.627091 379.50353 15.966576 379.578971 16.645545 C 379.748714 17.896609 380.063051 20.222707 380.528271 23.623839 C 380.987204 27.012399 381.666173 31.406838 382.552605 36.807157 C 382.954957 39.271564 383.325875 41.528508 383.671647 43.590562 C 384.017418 45.64633 384.331755 47.488348 384.602086 49.104044 C 384.646093 49.386947 384.809549 49.531543 385.092452 49.531543 C 385.375356 49.531543 385.538812 49.386947 385.582819 49.104044 C 385.903443 47.488348 386.236641 45.64633 386.569839 43.590562 C 386.91561 41.528508 387.292815 39.271564 387.695168 36.807157 C 388.543879 31.406838 389.203988 27.012399 389.688068 23.623839 C 390.184721 20.222707 390.486485 17.896609 390.605934 16.645545 C 390.681375 15.966576 391.090013 15.627091 391.819277 15.627091 Z M 405.562116 15.627091 " stroke="#ffbd59" stroke-width="4.540575" stroke-opacity="1" stroke-miterlimit="4"/><g fill="#000000" fill-opacity="1"><g transform="translate(69.686288, 197.441532)"><g><path d="M 18.953125 -23.09375 C 18.953125 -22.894531 18.882812 -22.71875 18.75 -22.5625 C 18.613281 -22.414062 18.429688 -22.34375 18.203125 -22.34375 L 8.390625 -22.34375 C 8.191406 -22.34375 8.015625 -22.269531 7.859375 -22.125 C 7.710938 -21.988281 7.640625 -21.820312 7.640625 -21.625 C 7.640625 -20.84375 7.628906 -19.972656 7.609375 -19.015625 C 7.597656 -18.066406 7.582031 -17.03125 7.5625 -15.90625 C 7.5625 -15.707031 7.632812 -15.53125 7.78125 -15.375 C 7.9375 -15.226562 8.113281 -15.15625 8.3125 -15.15625 L 16.25 -15.15625 C 16.445312 -15.15625 16.617188 -15.078125 16.765625 -14.921875 C 16.921875 -14.773438 17 -14.601562 17 -14.40625 L 17 -11.921875 C 17 -11.722656 16.921875 -11.546875 16.765625 -11.390625 C 16.617188 -11.242188 16.445312 -11.171875 16.25 -11.171875 L 8.3125 -11.171875 C 8.113281 -11.171875 7.9375 -11.09375 7.78125 -10.9375 C 7.632812 -10.789062 7.5625 -10.617188 7.5625 -10.421875 C 7.582031 -9.285156 7.597656 -8.238281 7.609375 -7.28125 C 7.628906 -6.332031 7.640625 -5.472656 7.640625 -4.703125 C 7.640625 -4.503906 7.710938 -4.332031 7.859375 -4.1875 C 8.015625 -4.050781 8.191406 -3.984375 8.390625 -3.984375 L 18.203125 -3.984375 C 18.429688 -3.984375 18.613281 -3.90625 18.75 -3.75 C 18.882812 -3.601562 18.953125 -3.429688 18.953125 -3.234375 L 18.953125 -0.75 C 18.953125 -0.550781 18.882812 -0.375 18.75 -0.21875 C 18.613281 -0.0703125 18.429688 0 18.203125 0 L 2.625 0 C 2.40625 0 2.222656 -0.0703125 2.078125 -0.21875 C 1.941406 -0.375 1.875 -0.550781 1.875 -0.75 C 1.90625 -1.582031 1.941406 -3.046875 1.984375 -5.140625 C 2.035156 -7.234375 2.0625 -9.90625 2.0625 -13.15625 C 2.0625 -16.445312 2.035156 -19.128906 1.984375 -21.203125 C 1.941406 -23.285156 1.90625 -24.742188 1.875 -25.578125 C 1.875 -25.773438 1.941406 -25.945312 2.078125 -26.09375 C 2.222656 -26.25 2.40625 -26.328125 2.625 -26.328125 L 18.203125 -26.328125 C 18.429688 -26.328125 18.613281 -26.25 18.75 -26.09375 C 18.882812 -25.945312 18.953125 -25.773438 18.953125 -25.578125 Z M 18.953125 -23.09375 "/></g></g></g><g fill="#000000" fill-opacity="1"><g transform="translate(90.560286, 197.441532)"><g><path d="M 20.421875 -13.15625 C 20.421875 -9.90625 20.4375 -7.234375 20.46875 -5.140625 C 20.507812 -3.046875 20.554688 -1.582031 20.609375 -0.75 C 20.609375 -0.550781 20.53125 -0.375 20.375 -0.21875 C 20.226562 -0.0703125 20.054688 0 19.859375 0 L 11.953125 0 C 11.503906 0 11.253906 -0.210938 11.203125 -0.640625 C 11.109375 -1.421875 10.890625 -2.863281 10.546875 -4.96875 C 10.210938 -7.070312 9.753906 -9.800781 9.171875 -13.15625 C 8.992188 -14.132812 8.820312 -15.054688 8.65625 -15.921875 C 8.5 -16.785156 8.347656 -17.597656 8.203125 -18.359375 C 8.171875 -18.554688 8.0625 -18.640625 7.875 -18.609375 C 7.6875 -18.585938 7.59375 -18.488281 7.59375 -18.3125 C 7.59375 -17.5625 7.585938 -16.757812 7.578125 -15.90625 C 7.566406 -15.050781 7.5625 -14.132812 7.5625 -13.15625 C 7.5625 -9.90625 7.582031 -7.234375 7.625 -5.140625 C 7.675781 -3.046875 7.71875 -1.582031 7.75 -0.75 C 7.75 -0.550781 7.675781 -0.375 7.53125 -0.21875 C 7.394531 -0.0703125 7.21875 0 7 0 L 2.625 0 C 2.40625 0 2.222656 -0.0703125 2.078125 -0.21875 C 1.941406 -0.375 1.875 -0.550781 1.875 -0.75 C 1.90625 -1.582031 1.941406 -3.046875 1.984375 -5.140625 C 2.035156 -7.234375 2.0625 -9.90625 2.0625 -13.15625 C 2.0625 -16.445312 2.035156 -19.128906 1.984375 -21.203125 C 1.941406 -23.285156 1.90625 -24.742188 1.875 -25.578125 C 1.875 -25.773438 1.941406 -25.945312 2.078125 -26.09375 C 2.222656 -26.25 2.40625 -26.328125 2.625 -26.328125 L 10.53125 -26.328125 C 10.957031 -26.328125 11.207031 -26.113281 11.28125 -25.6875 C 11.382812 -24.9375 11.597656 -23.5 11.921875 -21.375 C 12.242188 -19.257812 12.707031 -16.519531 13.3125 -13.15625 C 13.488281 -12.207031 13.65625 -11.289062 13.8125 -10.40625 C 13.976562 -9.53125 14.125 -8.71875 14.25 -7.96875 C 14.300781 -7.769531 14.421875 -7.679688 14.609375 -7.703125 C 14.796875 -7.734375 14.890625 -7.835938 14.890625 -8.015625 C 14.890625 -8.765625 14.894531 -9.570312 14.90625 -10.4375 C 14.925781 -11.300781 14.9375 -12.207031 14.9375 -13.15625 C 14.9375 -16.445312 14.910156 -19.128906 14.859375 -21.203125 C 14.804688 -23.285156 14.769531 -24.742188 14.75 -25.578125 C 14.71875 -25.773438 14.773438 -25.945312 14.921875 -26.09375 C 15.078125 -26.25 15.253906 -26.328125 15.453125 -26.328125 L 19.859375 -26.328125 C 20.054688 -26.328125 20.226562 -26.25 20.375 -26.09375 C 20.53125 -25.945312 20.609375 -25.773438 20.609375 -25.578125 C 20.554688 -24.742188 20.507812 -23.285156 20.46875 -21.203125 C 20.4375 -19.128906 20.421875 -16.445312 20.421875 -13.15625 Z M 20.421875 -13.15625 "/></g></g></g><g fill="#000000" fill-opacity="1"><g transform="translate(113.051542, 197.441532)"><g><path d="M 18.953125 -23.09375 C 18.953125 -22.894531 18.882812 -22.71875 18.75 -22.5625 C 18.613281 -22.414062 18.429688 -22.34375 18.203125 -22.34375 L 8.390625 -22.34375 C 8.191406 -22.34375 8.015625 -22.269531 7.859375 -22.125 C 7.710938 -21.988281 7.640625 -21.820312 7.640625 -21.625 C 7.640625 -20.84375 7.628906 -19.972656 7.609375 -19.015625 C 7.597656 -18.066406 7.582031 -17.03125 7.5625 -15.90625 C 7.5625 -15.707031 7.632812 -15.53125 7.78125 -15.375 C 7.9375 -15.226562 8.113281 -15.15625 8.3125 -15.15625 L 16.25 -15.15625 C 16.445312 -15.15625 16.617188 -15.078125 16.765625 -14.921875 C 16.921875 -14.773438 17 -14.601562 17 -14.40625 L 17 -11.921875 C 17 -11.722656 16.921875 -11.546875 16.765625 -11.390625 C 16.617188 -11.242188 16.445312 -11.171875 16.25 -11.171875 L 8.3125 -11.171875 C 8.113281 -11.171875 7.9375 -11.09375 7.78125 -10.9375 C 7.632812 -10.789062 7.5625 -10.617188 7.5625 -10.421875 C 7.582031 -9.285156 7.597656 -8.238281 7.609375 -7.28125 C 7.628906 -6.332031 7.640625 -5.472656 7.640625 -4.703125 C 7.640625 -4.503906 7.710938 -4.332031 7.859375 -4.1875 C 8.015625 -4.050781 8.191406 -3.984375 8.390625 -3.984375 L 18.203125 -3.984375 C 18.429688 -3.984375 18.613281 -3.90625 18.75 -3.75 C 18.882812 -3.601562 18.953125 -3.429688 18.953125 -3.234375 L 18.953125 -0.75 C 18.953125 -0.550781 18.882812 -0.375 18.75 -0.21875 C 18.613281 -0.0703125 18.429688 0 18.203125 0 L 2.625 0 C 2.40625 0 2.222656 -0.0703125 2.078125 -0.21875 C 1.941406 -0.375 1.875 -0.550781 1.875 -0.75 C 1.90625 -1.582031 1.941406 -3.046875 1.984375 -5.140625 C 2.035156 -7.234375 2.0625 -9.90625 2.0625 -13.15625 C 2.0625 -16.445312 2.035156 -19.128906 1.984375 -21.203125 C 1.941406 -23.285156 1.90625 -24.742188 1.875 -25.578125 C 1.875 -25.773438 1.941406 -25.945312 2.078125 -26.09375 C 2.222656 -26.25 2.40625 -26.328125 2.625 -26.328125 L 18.203125 -26.328125 C 18.429688 -26.328125 18.613281 -26.25 18.75 -26.09375 C 18.882812 -25.945312 18.953125 -25.773438 18.953125 -25.578125 Z M 18.953125 -23.09375 "/></g></g></g><g fill="#000000" fill-opacity="1"><g transform="translate(133.925541, 197.441532)"><g><path d="M 19.328125 0 L 14.5625 0 C 14.351562 0 14.171875 -0.0703125 14.015625 -0.21875 C 13.867188 -0.375 13.796875 -0.550781 13.796875 -0.75 L 13.796875 -6.546875 C 13.796875 -7.117188 13.707031 -7.679688 13.53125 -8.234375 C 13.363281 -8.785156 13.046875 -9.242188 12.578125 -9.609375 C 12.117188 -9.972656 11.472656 -10.15625 10.640625 -10.15625 L 8.3125 -10.15625 C 8.113281 -10.15625 7.9375 -10.078125 7.78125 -9.921875 C 7.632812 -9.773438 7.570312 -9.601562 7.59375 -9.40625 C 7.59375 -7.195312 7.609375 -5.363281 7.640625 -3.90625 C 7.679688 -2.457031 7.71875 -1.40625 7.75 -0.75 C 7.75 -0.550781 7.675781 -0.375 7.53125 -0.21875 C 7.394531 -0.0703125 7.21875 0 7 0 L 2.625 0 C 2.40625 0 2.222656 -0.0703125 2.078125 -0.21875 C 1.941406 -0.375 1.875 -0.550781 1.875 -0.75 C 1.90625 -1.582031 1.941406 -3.046875 1.984375 -5.140625 C 2.035156 -7.234375 2.0625 -9.90625 2.0625 -13.15625 C 2.0625 -16.445312 2.035156 -19.128906 1.984375 -21.203125 C 1.941406 -23.285156 1.90625 -24.742188 1.875 -25.578125 C 1.875 -25.773438 1.941406 -25.945312 2.078125 -26.09375 C 2.222656 -26.25 2.40625 -26.328125 2.625 -26.328125 L 10.796875 -26.328125 C 12.023438 -26.328125 13.191406 -26.210938 14.296875 -25.984375 C 15.398438 -25.765625 16.375 -25.363281 17.21875 -24.78125 C 18.070312 -24.207031 18.742188 -23.40625 19.234375 -22.375 C 19.722656 -21.34375 19.96875 -20.023438 19.96875 -18.421875 C 19.96875 -16.941406 19.632812 -15.71875 18.96875 -14.75 C 18.3125 -13.789062 17.453125 -13.035156 16.390625 -12.484375 C 16.296875 -12.429688 16.25 -12.34375 16.25 -12.21875 C 16.25 -12.09375 16.3125 -11.992188 16.4375 -11.921875 C 17.382812 -11.472656 18.171875 -10.816406 18.796875 -9.953125 C 19.429688 -9.085938 19.75 -7.953125 19.75 -6.546875 C 19.75 -5.191406 19.785156 -4.03125 19.859375 -3.0625 C 19.929688 -2.101562 20.003906 -1.359375 20.078125 -0.828125 C 20.109375 -0.597656 20.046875 -0.398438 19.890625 -0.234375 C 19.742188 -0.078125 19.554688 0 19.328125 0 Z M 10.875 -22.34375 L 8.390625 -22.34375 C 8.191406 -22.34375 8.015625 -22.269531 7.859375 -22.125 C 7.710938 -21.988281 7.640625 -21.820312 7.640625 -21.625 C 7.640625 -20.71875 7.625 -19.707031 7.59375 -18.59375 C 7.570312 -17.476562 7.5625 -16.242188 7.5625 -14.890625 C 7.5625 -14.671875 7.632812 -14.488281 7.78125 -14.34375 C 7.9375 -14.207031 8.113281 -14.140625 8.3125 -14.140625 L 10.875 -14.140625 C 11.695312 -14.140625 12.335938 -14.375 12.796875 -14.84375 C 13.265625 -15.320312 13.585938 -15.894531 13.765625 -16.5625 C 13.941406 -17.226562 14.03125 -17.847656 14.03125 -18.421875 C 14.03125 -19.429688 13.847656 -20.21875 13.484375 -20.78125 C 13.117188 -21.34375 12.691406 -21.742188 12.203125 -21.984375 C 11.710938 -22.222656 11.269531 -22.34375 10.875 -22.34375 Z M 10.875 -22.34375 "/></g></g></g><g fill="#000000" fill-opacity="1"><g transform="translate(155.890251, 197.441532)"><g><path d="M 11.09375 -13.15625 C 11.09375 -13.363281 11.160156 -13.539062 11.296875 -13.6875 C 11.441406 -13.84375 11.613281 -13.921875 11.8125 -13.921875 L 19.484375 -13.921875 C 19.679688 -13.921875 19.847656 -13.84375 19.984375 -13.6875 C 20.128906 -13.539062 20.203125 -13.363281 20.203125 -13.15625 L 20.203125 -7.9375 C 20.203125 -6.332031 19.910156 -4.910156 19.328125 -3.671875 C 18.753906 -2.429688 17.796875 -1.453125 16.453125 -0.734375 C 15.109375 -0.015625 13.3125 0.34375 11.0625 0.34375 C 8.75 0.34375 6.921875 -0.0546875 5.578125 -0.859375 C 4.242188 -1.660156 3.289062 -2.691406 2.71875 -3.953125 C 2.15625 -5.222656 1.875 -6.550781 1.875 -7.9375 C 1.875 -8.457031 1.882812 -8.957031 1.90625 -9.4375 C 1.9375 -9.914062 1.96875 -10.441406 2 -11.015625 C 2.039062 -11.597656 2.0625 -12.3125 2.0625 -13.15625 C 2.0625 -14.007812 2.039062 -14.722656 2 -15.296875 C 1.96875 -15.878906 1.9375 -16.40625 1.90625 -16.875 C 1.882812 -17.351562 1.875 -17.859375 1.875 -18.390625 C 1.875 -19.992188 2.164062 -21.414062 2.75 -22.65625 C 3.34375 -23.894531 4.304688 -24.875 5.640625 -25.59375 C 6.972656 -26.3125 8.78125 -26.671875 11.0625 -26.671875 C 13.1875 -26.671875 14.898438 -26.3125 16.203125 -25.59375 C 17.515625 -24.875 18.484375 -23.953125 19.109375 -22.828125 C 19.734375 -21.703125 20.097656 -20.5 20.203125 -19.21875 C 20.203125 -18.988281 20.128906 -18.789062 19.984375 -18.625 C 19.847656 -18.46875 19.664062 -18.390625 19.4375 -18.390625 L 15 -18.390625 C 14.550781 -18.390625 14.300781 -18.628906 14.25 -19.109375 C 14.226562 -19.535156 14.132812 -20.03125 13.96875 -20.59375 C 13.8125 -21.15625 13.507812 -21.640625 13.0625 -22.046875 C 12.625 -22.460938 11.976562 -22.671875 11.125 -22.671875 C 10.125 -22.671875 9.382812 -22.445312 8.90625 -22 C 8.4375 -21.550781 8.140625 -20.992188 8.015625 -20.328125 C 7.890625 -19.660156 7.828125 -19.015625 7.828125 -18.390625 L 7.828125 -7.9375 C 7.828125 -7.707031 7.84375 -7.359375 7.875 -6.890625 C 7.914062 -6.429688 8.03125 -5.953125 8.21875 -5.453125 C 8.40625 -4.953125 8.71875 -4.523438 9.15625 -4.171875 C 9.59375 -3.816406 10.203125 -3.640625 10.984375 -3.640625 C 11.960938 -3.640625 12.710938 -3.863281 13.234375 -4.3125 C 13.765625 -4.769531 14.117188 -5.332031 14.296875 -6 C 14.472656 -6.664062 14.5625 -7.3125 14.5625 -7.9375 C 14.5625 -8.332031 14.5625 -8.757812 14.5625 -9.21875 C 14.53125 -9.414062 14.445312 -9.582031 14.3125 -9.71875 C 14.175781 -9.851562 14.003906 -9.921875 13.796875 -9.921875 L 11.8125 -9.921875 C 11.613281 -9.921875 11.441406 -9.988281 11.296875 -10.125 C 11.160156 -10.269531 11.09375 -10.457031 11.09375 -10.6875 Z M 11.09375 -13.15625 "/></g></g></g><g fill="#000000" fill-opacity="1"><g transform="translate(178.005406, 197.441532)"><g><path d="M 7.828125 -19.0625 C 7.828125 -18.289062 8.125 -17.671875 8.71875 -17.203125 C 9.320312 -16.742188 10.109375 -16.34375 11.078125 -16 C 12.046875 -15.664062 13.066406 -15.304688 14.140625 -14.921875 C 15.222656 -14.546875 16.242188 -14.0625 17.203125 -13.46875 C 18.171875 -12.882812 18.953125 -12.097656 19.546875 -11.109375 C 20.148438 -10.117188 20.453125 -8.835938 20.453125 -7.265625 C 20.453125 -5.660156 20.164062 -4.285156 19.59375 -3.140625 C 19.019531 -1.992188 18.0625 -1.117188 16.71875 -0.515625 C 15.375 0.078125 13.578125 0.375 11.328125 0.375 C 9.171875 0.375 7.414062 0.0234375 6.0625 -0.671875 C 4.707031 -1.378906 3.695312 -2.300781 3.03125 -3.4375 C 2.363281 -4.582031 1.976562 -5.796875 1.875 -7.078125 C 1.851562 -7.273438 1.914062 -7.453125 2.0625 -7.609375 C 2.21875 -7.773438 2.40625 -7.859375 2.625 -7.859375 L 7.078125 -7.859375 C 7.523438 -7.859375 7.757812 -7.632812 7.78125 -7.1875 C 7.832031 -6.726562 7.960938 -6.222656 8.171875 -5.671875 C 8.390625 -5.128906 8.742188 -4.648438 9.234375 -4.234375 C 9.722656 -3.816406 10.394531 -3.609375 11.25 -3.609375 C 12.25 -3.609375 12.976562 -3.773438 13.4375 -4.109375 C 13.90625 -4.453125 14.207031 -4.90625 14.34375 -5.46875 C 14.488281 -6.03125 14.5625 -6.628906 14.5625 -7.265625 C 14.5625 -8.066406 14.253906 -8.703125 13.640625 -9.171875 C 13.023438 -9.648438 12.234375 -10.054688 11.265625 -10.390625 C 10.296875 -10.734375 9.269531 -11.09375 8.1875 -11.46875 C 7.113281 -11.84375 6.097656 -12.320312 5.140625 -12.90625 C 4.191406 -13.5 3.410156 -14.285156 2.796875 -15.265625 C 2.179688 -16.242188 1.875 -17.507812 1.875 -19.0625 C 1.875 -20.664062 2.164062 -22.035156 2.75 -23.171875 C 3.34375 -24.316406 4.304688 -25.191406 5.640625 -25.796875 C 6.972656 -26.398438 8.78125 -26.703125 11.0625 -26.703125 C 13.1875 -26.703125 14.898438 -26.347656 16.203125 -25.640625 C 17.515625 -24.941406 18.484375 -24.019531 19.109375 -22.875 C 19.734375 -21.738281 20.097656 -20.53125 20.203125 -19.25 C 20.203125 -19.050781 20.128906 -18.867188 19.984375 -18.703125 C 19.847656 -18.546875 19.664062 -18.46875 19.4375 -18.46875 L 15 -18.46875 C 14.550781 -18.46875 14.300781 -18.691406 14.25 -19.140625 C 14.226562 -19.585938 14.132812 -20.085938 13.96875 -20.640625 C 13.8125 -21.191406 13.507812 -21.675781 13.0625 -22.09375 C 12.625 -22.507812 11.976562 -22.71875 11.125 -22.71875 C 10.125 -22.71875 9.382812 -22.546875 8.90625 -22.203125 C 8.4375 -21.867188 8.140625 -21.421875 8.015625 -20.859375 C 7.890625 -20.296875 7.828125 -19.695312 7.828125 -19.0625 Z M 7.828125 -19.0625 "/></g></g></g><g fill="#000000" fill-opacity="1"><g transform="translate(200.383829, 197.441532)"><g><path d="M 17.03125 -18.28125 C 16.28125 -16.570312 15.664062 -15.128906 15.1875 -13.953125 C 14.71875 -12.773438 14.359375 -11.882812 14.109375 -11.28125 C 13.953125 -10.90625 13.875 -10.515625 13.875 -10.109375 C 13.851562 -9.609375 13.828125 -9.015625 13.796875 -8.328125 C 13.773438 -7.640625 13.765625 -6.859375 13.765625 -5.984375 C 13.765625 -4.722656 13.78125 -3.660156 13.8125 -2.796875 C 13.851562 -1.929688 13.890625 -1.265625 13.921875 -0.796875 C 13.941406 -0.566406 13.875 -0.375 13.71875 -0.21875 C 13.570312 -0.0703125 13.382812 0 13.15625 0 L 8.875 0 C 8.644531 0 8.457031 -0.0703125 8.3125 -0.21875 C 8.164062 -0.375 8.101562 -0.566406 8.125 -0.796875 C 8.144531 -1.265625 8.175781 -1.929688 8.21875 -2.796875 C 8.257812 -3.660156 8.28125 -4.722656 8.28125 -5.984375 C 8.28125 -6.859375 8.265625 -7.640625 8.234375 -8.328125 C 8.210938 -9.015625 8.1875 -9.609375 8.15625 -10.109375 C 8.15625 -10.515625 8.082031 -10.90625 7.9375 -11.28125 C 7.6875 -11.882812 7.320312 -12.773438 6.84375 -13.953125 C 6.363281 -15.128906 5.75 -16.570312 5 -18.28125 C 4.25 -19.957031 3.597656 -21.378906 3.046875 -22.546875 C 2.492188 -23.710938 2.066406 -24.625 1.765625 -25.28125 C 1.640625 -25.5 1.648438 -25.726562 1.796875 -25.96875 C 1.953125 -26.207031 2.164062 -26.328125 2.4375 -26.328125 L 6.625 -26.328125 C 6.96875 -26.328125 7.203125 -26.148438 7.328125 -25.796875 C 7.484375 -25.273438 7.765625 -24.378906 8.171875 -23.109375 C 8.585938 -21.847656 9.148438 -20.238281 9.859375 -18.28125 C 10.160156 -17.445312 10.445312 -16.65625 10.71875 -15.90625 C 10.769531 -15.757812 10.867188 -15.6875 11.015625 -15.6875 C 11.171875 -15.6875 11.273438 -15.757812 11.328125 -15.90625 C 11.597656 -16.65625 11.882812 -17.445312 12.1875 -18.28125 C 12.882812 -20.238281 13.441406 -21.847656 13.859375 -23.109375 C 14.273438 -24.378906 14.554688 -25.273438 14.703125 -25.796875 C 14.828125 -26.148438 15.066406 -26.328125 15.421875 -26.328125 L 19.59375 -26.328125 C 19.875 -26.328125 20.085938 -26.207031 20.234375 -25.96875 C 20.378906 -25.726562 20.390625 -25.5 20.265625 -25.28125 C 19.960938 -24.625 19.535156 -23.710938 18.984375 -22.546875 C 18.441406 -21.378906 17.789062 -19.957031 17.03125 -18.28125 Z M 17.03125 -18.28125 "/></g></g></g><g fill="#000000" fill-opacity="1"><g transform="translate(222.461372, 197.441532)"><g><path d="M 7.828125 -19.0625 C 7.828125 -18.289062 8.125 -17.671875 8.71875 -17.203125 C 9.320312 -16.742188 10.109375 -16.34375 11.078125 -16 C 12.046875 -15.664062 13.066406 -15.304688 14.140625 -14.921875 C 15.222656 -14.546875 16.242188 -14.0625 17.203125 -13.46875 C 18.171875 -12.882812 18.953125 -12.097656 19.546875 -11.109375 C 20.148438 -10.117188 20.453125 -8.835938 20.453125 -7.265625 C 20.453125 -5.660156 20.164062 -4.285156 19.59375 -3.140625 C 19.019531 -1.992188 18.0625 -1.117188 16.71875 -0.515625 C 15.375 0.078125 13.578125 0.375 11.328125 0.375 C 9.171875 0.375 7.414062 0.0234375 6.0625 -0.671875 C 4.707031 -1.378906 3.695312 -2.300781 3.03125 -3.4375 C 2.363281 -4.582031 1.976562 -5.796875 1.875 -7.078125 C 1.851562 -7.273438 1.914062 -7.453125 2.0625 -7.609375 C 2.21875 -7.773438 2.40625 -7.859375 2.625 -7.859375 L 7.078125 -7.859375 C 7.523438 -7.859375 7.757812 -7.632812 7.78125 -7.1875 C 7.832031 -6.726562 7.960938 -6.222656 8.171875 -5.671875 C 8.390625 -5.128906 8.742188 -4.648438 9.234375 -4.234375 C 9.722656 -3.816406 10.394531 -3.609375 11.25 -3.609375 C 12.25 -3.609375 12.976562 -3.773438 13.4375 -4.109375 C 13.90625 -4.453125 14.207031 -4.90625 14.34375 -5.46875 C 14.488281 -6.03125 14.5625 -6.628906 14.5625 -7.265625 C 14.5625 -8.066406 14.253906 -8.703125 13.640625 -9.171875 C 13.023438 -9.648438 12.234375 -10.054688 11.265625 -10.390625 C 10.296875 -10.734375 9.269531 -11.09375 8.1875 -11.46875 C 7.113281 -11.84375 6.097656 -12.320312 5.140625 -12.90625 C 4.191406 -13.5 3.410156 -14.285156 2.796875 -15.265625 C 2.179688 -16.242188 1.875 -17.507812 1.875 -19.0625 C 1.875 -20.664062 2.164062 -22.035156 2.75 -23.171875 C 3.34375 -24.316406 4.304688 -25.191406 5.640625 -25.796875 C 6.972656 -26.398438 8.78125 -26.703125 11.0625 -26.703125 C 13.1875 -26.703125 14.898438 -26.347656 16.203125 -25.640625 C 17.515625 -24.941406 18.484375 -24.019531 19.109375 -22.875 C 19.734375 -21.738281 20.097656 -20.53125 20.203125 -19.25 C 20.203125 -19.050781 20.128906 -18.867188 19.984375 -18.703125 C 19.847656 -18.546875 19.664062 -18.46875 19.4375 -18.46875 L 15 -18.46875 C 14.550781 -18.46875 14.300781 -18.691406 14.25 -19.140625 C 14.226562 -19.585938 14.132812 -20.085938 13.96875 -20.640625 C 13.8125 -21.191406 13.507812 -21.675781 13.0625 -22.09375 C 12.625 -22.507812 11.976562 -22.71875 11.125 -22.71875 C 10.125 -22.71875 9.382812 -22.546875 8.90625 -22.203125 C 8.4375 -21.867188 8.140625 -21.421875 8.015625 -20.859375 C 7.890625 -20.296875 7.828125 -19.695312 7.828125 -19.0625 Z M 7.828125 -19.0625 "/></g></g></g><g fill="#000000" fill-opacity="1"><g transform="translate(244.839795, 197.441532)"><g><path d="M 20.265625 -23.09375 C 20.265625 -22.894531 20.1875 -22.71875 20.03125 -22.5625 C 19.882812 -22.414062 19.710938 -22.34375 19.515625 -22.34375 L 14.625 -22.34375 C 14.425781 -22.34375 14.257812 -22.269531 14.125 -22.125 C 13.988281 -21.988281 13.921875 -21.820312 13.921875 -21.625 C 13.890625 -20.550781 13.867188 -19.3125 13.859375 -17.90625 C 13.847656 -16.5 13.84375 -14.914062 13.84375 -13.15625 C 13.84375 -9.90625 13.859375 -7.234375 13.890625 -5.140625 C 13.929688 -3.046875 13.960938 -1.582031 13.984375 -0.75 C 14.015625 -0.550781 13.953125 -0.375 13.796875 -0.21875 C 13.648438 -0.0703125 13.476562 0 13.28125 0 L 8.875 0 C 8.675781 0 8.5 -0.0703125 8.34375 -0.21875 C 8.195312 -0.375 8.125 -0.550781 8.125 -0.75 C 8.175781 -1.582031 8.21875 -3.046875 8.25 -5.140625 C 8.289062 -7.234375 8.3125 -9.90625 8.3125 -13.15625 C 8.3125 -14.914062 8.304688 -16.5 8.296875 -17.90625 C 8.285156 -19.3125 8.265625 -20.550781 8.234375 -21.625 C 8.234375 -21.820312 8.164062 -21.988281 8.03125 -22.125 C 7.894531 -22.269531 7.710938 -22.34375 7.484375 -22.34375 L 2.625 -22.34375 C 2.425781 -22.34375 2.25 -22.414062 2.09375 -22.5625 C 1.945312 -22.71875 1.875 -22.894531 1.875 -23.09375 L 1.875 -25.578125 C 1.875 -25.773438 1.945312 -25.945312 2.09375 -26.09375 C 2.25 -26.25 2.425781 -26.328125 2.625 -26.328125 L 19.515625 -26.328125 C 19.710938 -26.328125 19.882812 -26.25 20.03125 -26.09375 C 20.1875 -25.945312 20.265625 -25.773438 20.265625 -25.578125 Z M 20.265625 -23.09375 "/></g></g></g><g fill="#000000" fill-opacity="1"><g transform="translate(266.99257, 197.441532)"><g><path d="M 18.953125 -23.09375 C 18.953125 -22.894531 18.882812 -22.71875 18.75 -22.5625 C 18.613281 -22.414062 18.429688 -22.34375 18.203125 -22.34375 L 8.390625 -22.34375 C 8.191406 -22.34375 8.015625 -22.269531 7.859375 -22.125 C 7.710938 -21.988281 7.640625 -21.820312 7.640625 -21.625 C 7.640625 -20.84375 7.628906 -19.972656 7.609375 -19.015625 C 7.597656 -18.066406 7.582031 -17.03125 7.5625 -15.90625 C 7.5625 -15.707031 7.632812 -15.53125 7.78125 -15.375 C 7.9375 -15.226562 8.113281 -15.15625 8.3125 -15.15625 L 16.25 -15.15625 C 16.445312 -15.15625 16.617188 -15.078125 16.765625 -14.921875 C 16.921875 -14.773438 17 -14.601562 17 -14.40625 L 17 -11.921875 C 17 -11.722656 16.921875 -11.546875 16.765625 -11.390625 C 16.617188 -11.242188 16.445312 -11.171875 16.25 -11.171875 L 8.3125 -11.171875 C 8.113281 -11.171875 7.9375 -11.09375 7.78125 -10.9375 C 7.632812 -10.789062 7.5625 -10.617188 7.5625 -10.421875 C 7.582031 -9.285156 7.597656 -8.238281 7.609375 -7.28125 C 7.628906 -6.332031 7.640625 -5.472656 7.640625 -4.703125 C 7.640625 -4.503906 7.710938 -4.332031 7.859375 -4.1875 C 8.015625 -4.050781 8.191406 -3.984375 8.390625 -3.984375 L 18.203125 -3.984375 C 18.429688 -3.984375 18.613281 -3.90625 18.75 -3.75 C 18.882812 -3.601562 18.953125 -3.429688 18.953125 -3.234375 L 18.953125 -0.75 C 18.953125 -0.550781 18.882812 -0.375 18.75 -0.21875 C 18.613281 -0.0703125 18.429688 0 18.203125 0 L 2.625 0 C 2.40625 0 2.222656 -0.0703125 2.078125 -0.21875 C 1.941406 -0.375 1.875 -0.550781 1.875 -0.75 C 1.90625 -1.582031 1.941406 -3.046875 1.984375 -5.140625 C 2.035156 -7.234375 2.0625 -9.90625 2.0625 -13.15625 C 2.0625 -16.445312 2.035156 -19.128906 1.984375 -21.203125 C 1.941406 -23.285156 1.90625 -24.742188 1.875 -25.578125 C 1.875 -25.773438 1.941406 -25.945312 2.078125 -26.09375 C 2.222656 -26.25 2.40625 -26.328125 2.625 -26.328125 L 18.203125 -26.328125 C 18.429688 -26.328125 18.613281 -26.25 18.75 -26.09375 C 18.882812 -25.945312 18.953125 -25.773438 18.953125 -25.578125 Z M 18.953125 -23.09375 "/></g></g></g><g fill="#000000" fill-opacity="1"><g transform="translate(287.866569, 197.441532)"><g><path d="M 28.015625 -26.328125 C 28.210938 -26.328125 28.382812 -26.25 28.53125 -26.09375 C 28.6875 -25.945312 28.765625 -25.773438 28.765625 -25.578125 C 28.742188 -24.742188 28.707031 -23.285156 28.65625 -21.203125 C 28.601562 -19.128906 28.578125 -16.445312 28.578125 -13.15625 C 28.578125 -9.90625 28.601562 -7.234375 28.65625 -5.140625 C 28.707031 -3.046875 28.742188 -1.582031 28.765625 -0.75 C 28.765625 -0.550781 28.6875 -0.375 28.53125 -0.21875 C 28.382812 -0.0703125 28.210938 0 28.015625 0 L 23.625 0 C 23.414062 0 23.234375 -0.0703125 23.078125 -0.21875 C 22.929688 -0.375 22.875 -0.550781 22.90625 -0.75 C 22.925781 -1.582031 22.960938 -3.046875 23.015625 -5.140625 C 23.066406 -7.234375 23.09375 -9.90625 23.09375 -13.15625 C 23.09375 -14.738281 23.082031 -16.175781 23.0625 -17.46875 C 23.050781 -18.757812 23.035156 -19.921875 23.015625 -20.953125 C 23.015625 -21.148438 22.921875 -21.253906 22.734375 -21.265625 C 22.546875 -21.273438 22.425781 -21.179688 22.375 -20.984375 C 22.195312 -19.984375 21.992188 -18.820312 21.765625 -17.5 C 21.546875 -16.1875 21.3125 -14.738281 21.0625 -13.15625 C 20.53125 -9.820312 20.113281 -7.097656 19.8125 -4.984375 C 19.519531 -2.867188 19.332031 -1.421875 19.25 -0.640625 C 19.175781 -0.210938 18.925781 0 18.5 0 L 12.140625 0 C 11.691406 0 11.441406 -0.210938 11.390625 -0.640625 C 11.296875 -1.421875 11.101562 -2.867188 10.8125 -4.984375 C 10.519531 -7.097656 10.097656 -9.820312 9.546875 -13.15625 C 9.296875 -14.738281 9.054688 -16.1875 8.828125 -17.5 C 8.609375 -18.820312 8.410156 -19.984375 8.234375 -20.984375 C 8.210938 -21.179688 8.109375 -21.273438 7.921875 -21.265625 C 7.734375 -21.253906 7.640625 -21.148438 7.640625 -20.953125 C 7.609375 -19.921875 7.585938 -18.757812 7.578125 -17.46875 C 7.566406 -16.175781 7.5625 -14.738281 7.5625 -13.15625 C 7.5625 -9.90625 7.582031 -7.234375 7.625 -5.140625 C 7.675781 -3.046875 7.71875 -1.582031 7.75 -0.75 C 7.75 -0.550781 7.675781 -0.375 7.53125 -0.21875 C 7.394531 -0.0703125 7.21875 0 7 0 L 2.625 0 C 2.40625 0 2.222656 -0.0703125 2.078125 -0.21875 C 1.941406 -0.375 1.875 -0.550781 1.875 -0.75 C 1.90625 -1.582031 1.941406 -3.046875 1.984375 -5.140625 C 2.035156 -7.234375 2.0625 -9.90625 2.0625 -13.15625 C 2.0625 -16.445312 2.035156 -19.128906 1.984375 -21.203125 C 1.941406 -23.285156 1.90625 -24.742188 1.875 -25.578125 C 1.875 -25.773438 1.941406 -25.945312 2.078125 -26.09375 C 2.222656 -26.25 2.40625 -26.328125 2.625 -26.328125 L 11.171875 -26.328125 C 11.597656 -26.328125 11.835938 -26.113281 11.890625 -25.6875 C 11.984375 -24.90625 12.175781 -23.460938 12.46875 -21.359375 C 12.757812 -19.253906 13.179688 -16.519531 13.734375 -13.15625 C 13.984375 -11.632812 14.210938 -10.234375 14.421875 -8.953125 C 14.640625 -7.671875 14.832031 -6.53125 15 -5.53125 C 15.03125 -5.351562 15.128906 -5.265625 15.296875 -5.265625 C 15.472656 -5.265625 15.578125 -5.351562 15.609375 -5.53125 C 15.804688 -6.53125 16.007812 -7.671875 16.21875 -8.953125 C 16.4375 -10.234375 16.671875 -11.632812 16.921875 -13.15625 C 17.453125 -16.519531 17.863281 -19.253906 18.15625 -21.359375 C 18.457031 -23.460938 18.648438 -24.90625 18.734375 -25.6875 C 18.773438 -26.113281 19.023438 -26.328125 19.484375 -26.328125 Z M 28.015625 -26.328125 "/></g></g></g></svg>